M48
; DRILL file {KiCad 8.0.4} date 2024-09-01T11:51:48-0700
; FORMAT={-:-/ absolute / inch / decimal}
; #@! TF.CreationDate,2024-09-01T11:51:48-07:00
; #@! TF.GenerationSoftware,Kicad,Pcbnew,8.0.4
; #@! TF.FileFunction,Plated,1,2,PTH
FMAT,2
INCH
; #@! TA.AperFunction,Plated,PTH,ViaDrill
T1C0.0118
; #@! TA.AperFunction,Plated,PTH,ComponentDrill
T2C0.0394
%
G90
G05
T1
X2.2146Y-3.1102
X2.2381Y-3.2023
X2.2441Y-3.1693
X2.2539Y-3.4744
X2.313Y-3.0906
X2.3281Y-4.6102
X2.3819Y-4.6161
X2.4902Y-3.1988
X2.5689Y-3.2874
X2.5689Y-4.4193
X2.5689Y-4.6457
X2.5728Y-3.6748
X2.5965Y-3.7503
X2.5984Y-3.376
X2.6063Y-4.0729
X2.6083Y-3.5924
X2.6083Y-3.6434
X2.6083Y-3.7795
X2.6083Y-3.9862
X2.626Y-3.5217
X2.6378Y-3.4449
X2.6378Y-4.4094
X2.6476Y-3.3268
X2.6925Y-4.0201
X2.7028Y-3.7205
X2.7028Y-3.7992
X2.7067Y-3.435
X2.7067Y-3.4744
X2.7165Y-3.2677
X2.7224Y-4.4311
X2.7264Y-3.3366
X2.7264Y-3.8583
X2.7362Y-3.6319
X2.7657Y-3.5964
X2.7756Y-3.9272
X2.7953Y-3.3268
X2.8642Y-3.5039
X2.9528Y-3.622
X2.9528Y-3.7303
X3.0217Y-3.7303
X3.0882Y-4.0075
X3.2693Y-4.5906
X3.2855Y-4.0669
X3.2972Y-3.7764
X3.3169Y-4.6161
X3.3661Y-4.5965
X3.4154Y-3.5335
X3.4693Y-4.6504
X3.4941Y-3.9764
X3.5039Y-3.622
X3.6614Y-4.1535
X3.7449Y-4.2764
X3.75Y-3.6516
X3.7598Y-4.626
X3.8091Y-3.7894
X3.8091Y-3.878
X3.8091Y-4.5374
X3.8091Y-4.6319
X3.937Y-4.5669
X3.9665Y-4.2421
X3.9764Y-4.2028
X4.0Y-4.1075
X4.0256Y-4.0256
X4.0453Y-4.4291
X4.1339Y-3.3268
X4.1535Y-4.1311
X4.2913Y-3.8528
X4.311Y-3.6417
X4.3307Y-4.5079
X4.439Y-4.0354
X4.4587Y-3.5925
X4.5374Y-3.9075
X4.5669Y-3.376
X4.5866Y-3.6811
X4.6063Y-3.3268
X4.6063Y-3.4055
X4.6063Y-3.5335
X4.6063Y-3.7795
X4.7638Y-3.3661
X4.7638Y-3.6024
X4.7638Y-3.9764
X4.7736Y-4.0453
X4.7835Y-3.4744
X4.7835Y-3.8386
X4.8425Y-3.3268
X4.8425Y-4.0693
X4.8425Y-4.1732
X4.8425Y-4.5079
X5.0Y-3.0906
X5.0787Y-3.2677
X5.0886Y-4.252
X5.128Y-3.1496
X5.1772Y-3.0315
X5.1969Y-4.626
X5.374Y-3.9764
X5.4134Y-3.937
X5.4134Y-4.2323
T2
X2.3819Y-3.2748
X2.3819Y-3.3748
X2.3819Y-3.4748
X2.3819Y-3.5748
X2.3819Y-3.6748
X2.3819Y-3.7748
X2.3819Y-3.8748
X2.3819Y-3.9748
X2.3819Y-4.0748
X2.3819Y-4.1748
X2.3819Y-4.2748
X2.3819Y-4.3748
X2.3819Y-4.4748
X2.3902Y-2.7953
X2.3902Y-2.8953
X2.3902Y-2.9953
X2.4819Y-3.2748
X2.4819Y-3.3748
X2.4819Y-3.4748
X2.4819Y-3.5748
X2.4819Y-3.6748
X2.4819Y-3.7748
X2.4819Y-3.8748
X2.4819Y-3.9748
X2.4819Y-4.0748
X2.4819Y-4.1748
X2.4819Y-4.2748
X2.4819Y-4.3748
X2.4819Y-4.4748
X2.4902Y-2.7953
X2.4902Y-2.8953
X2.4902Y-2.9953
X2.815Y-2.4764
X2.815Y-2.5764
X2.815Y-2.6764
X2.815Y-2.7764
X2.815Y-2.8764
X2.815Y-2.9764
X2.815Y-3.0764
X2.815Y-3.1764
X2.815Y-3.2764
X2.815Y-3.3764
X2.815Y-3.4764
X2.815Y-3.5764
X2.815Y-3.6764
X2.815Y-3.7764
X2.815Y-3.8764
X2.815Y-3.9764
X2.815Y-4.0764
X2.815Y-4.1764
X2.815Y-4.2764
X2.815Y-4.3764
X2.815Y-4.4764
X2.915Y-2.4764
X2.915Y-2.5764
X2.915Y-2.6764
X2.915Y-2.7764
X2.915Y-2.8764
X2.915Y-2.9764
X2.915Y-3.0764
X2.915Y-3.1764
X2.915Y-3.2764
X2.915Y-3.3764
X2.915Y-3.4764
X2.915Y-3.5764
X2.915Y-3.6764
X2.915Y-3.7764
X2.915Y-3.8764
X2.915Y-3.9764
X2.915Y-4.0764
X2.915Y-4.1764
X2.915Y-4.2764
X2.915Y-4.3764
X2.915Y-4.4764
X3.2693Y-4.3764
X3.2693Y-4.4764
X3.3693Y-4.3764
X3.3693Y-4.4764
X3.4693Y-4.3764
X3.4693Y-4.4764
X4.0961Y-2.9764
X4.0961Y-3.0764
X4.0961Y-3.1764
X4.0961Y-3.2764
X4.0961Y-3.3764
X4.0961Y-3.4764
X4.0961Y-3.5764
X4.0961Y-3.6764
X4.0961Y-3.7764
X4.0961Y-3.8764
X4.0961Y-3.9764
X4.0961Y-4.0764
X4.0961Y-4.1764
X4.0961Y-4.2764
X4.0961Y-4.3764
X4.0961Y-4.4764
X4.1961Y-2.9764
X4.1961Y-3.0764
X4.1961Y-3.1764
X4.1961Y-3.2764
X4.1961Y-3.3764
X4.1961Y-3.4764
X4.1961Y-3.5764
X4.1961Y-3.6764
X4.1961Y-3.7764
X4.1961Y-3.8764
X4.1961Y-3.9764
X4.1961Y-4.0764
X4.1961Y-4.1764
X4.1961Y-4.2764
X4.1961Y-4.3764
X4.1961Y-4.4764
X4.7047Y-2.4528
X4.7047Y-2.5528
X4.7047Y-2.6528
X4.7047Y-2.7528
X4.7047Y-2.8528
X4.7047Y-2.9528
X4.7047Y-3.0528
X4.7047Y-3.1528
X4.7047Y-3.2528
X4.7047Y-3.3528
X4.7047Y-3.4528
X4.7047Y-3.5528
X4.7047Y-3.6528
X4.7047Y-3.7528
X4.7047Y-3.8528
X4.7047Y-3.9528
X4.7047Y-4.0528
X4.7047Y-4.1528
X4.7047Y-4.2528
X4.7047Y-4.3528
X5.3047Y-2.4528
X5.3047Y-2.5528
X5.3047Y-2.6528
X5.3047Y-2.7528
X5.3047Y-2.8528
X5.3047Y-2.9528
X5.3047Y-3.0528
X5.3047Y-3.1528
X5.3047Y-3.2528
X5.3047Y-3.3528
X5.3047Y-3.4528
X5.3047Y-3.5528
X5.3047Y-3.6528
X5.3047Y-3.7528
X5.3047Y-3.8528
X5.3047Y-3.9528
X5.3047Y-4.0528
X5.3047Y-4.1528
X5.3047Y-4.2528
X5.3047Y-4.3528
M30
