%TF.GenerationSoftware,KiCad,Pcbnew,8.0.4*%
%TF.CreationDate,2024-09-01T02:32:28-07:00*%
%TF.ProjectId,chip_tester,63686970-5f74-4657-9374-65722e6b6963,rev?*%
%TF.SameCoordinates,Original*%
%TF.FileFunction,Legend,Top*%
%TF.FilePolarity,Positive*%
%FSLAX46Y46*%
G04 Gerber Fmt 4.6, Leading zero omitted, Abs format (unit mm)*
G04 Created by KiCad (PCBNEW 8.0.4) date 2024-09-01 02:32:28*
%MOMM*%
%LPD*%
G01*
G04 APERTURE LIST*
%ADD10C,0.100000*%
%ADD11C,0.150000*%
%ADD12C,0.120000*%
G04 APERTURE END LIST*
D10*
X55803884Y-91372419D02*
X55803884Y-90372419D01*
X55803884Y-90372419D02*
X56184836Y-90372419D01*
X56184836Y-90372419D02*
X56280074Y-90420038D01*
X56280074Y-90420038D02*
X56327693Y-90467657D01*
X56327693Y-90467657D02*
X56375312Y-90562895D01*
X56375312Y-90562895D02*
X56375312Y-90705752D01*
X56375312Y-90705752D02*
X56327693Y-90800990D01*
X56327693Y-90800990D02*
X56280074Y-90848609D01*
X56280074Y-90848609D02*
X56184836Y-90896228D01*
X56184836Y-90896228D02*
X55803884Y-90896228D01*
X56803884Y-90848609D02*
X57137217Y-90848609D01*
X57280074Y-91372419D02*
X56803884Y-91372419D01*
X56803884Y-91372419D02*
X56803884Y-90372419D01*
X56803884Y-90372419D02*
X57280074Y-90372419D01*
X57613408Y-90372419D02*
X58232455Y-90372419D01*
X58232455Y-90372419D02*
X57899122Y-90753371D01*
X57899122Y-90753371D02*
X58041979Y-90753371D01*
X58041979Y-90753371D02*
X58137217Y-90800990D01*
X58137217Y-90800990D02*
X58184836Y-90848609D01*
X58184836Y-90848609D02*
X58232455Y-90943847D01*
X58232455Y-90943847D02*
X58232455Y-91181942D01*
X58232455Y-91181942D02*
X58184836Y-91277180D01*
X58184836Y-91277180D02*
X58137217Y-91324800D01*
X58137217Y-91324800D02*
X58041979Y-91372419D01*
X58041979Y-91372419D02*
X57756265Y-91372419D01*
X57756265Y-91372419D02*
X57661027Y-91324800D01*
X57661027Y-91324800D02*
X57613408Y-91277180D01*
X139803884Y-80372419D02*
X139803884Y-79372419D01*
X139803884Y-79372419D02*
X140041979Y-79372419D01*
X140041979Y-79372419D02*
X140184836Y-79420038D01*
X140184836Y-79420038D02*
X140280074Y-79515276D01*
X140280074Y-79515276D02*
X140327693Y-79610514D01*
X140327693Y-79610514D02*
X140375312Y-79800990D01*
X140375312Y-79800990D02*
X140375312Y-79943847D01*
X140375312Y-79943847D02*
X140327693Y-80134323D01*
X140327693Y-80134323D02*
X140280074Y-80229561D01*
X140280074Y-80229561D02*
X140184836Y-80324800D01*
X140184836Y-80324800D02*
X140041979Y-80372419D01*
X140041979Y-80372419D02*
X139803884Y-80372419D01*
X141137217Y-79848609D02*
X141280074Y-79896228D01*
X141280074Y-79896228D02*
X141327693Y-79943847D01*
X141327693Y-79943847D02*
X141375312Y-80039085D01*
X141375312Y-80039085D02*
X141375312Y-80181942D01*
X141375312Y-80181942D02*
X141327693Y-80277180D01*
X141327693Y-80277180D02*
X141280074Y-80324800D01*
X141280074Y-80324800D02*
X141184836Y-80372419D01*
X141184836Y-80372419D02*
X140803884Y-80372419D01*
X140803884Y-80372419D02*
X140803884Y-79372419D01*
X140803884Y-79372419D02*
X141137217Y-79372419D01*
X141137217Y-79372419D02*
X141232455Y-79420038D01*
X141232455Y-79420038D02*
X141280074Y-79467657D01*
X141280074Y-79467657D02*
X141327693Y-79562895D01*
X141327693Y-79562895D02*
X141327693Y-79658133D01*
X141327693Y-79658133D02*
X141280074Y-79753371D01*
X141280074Y-79753371D02*
X141232455Y-79800990D01*
X141232455Y-79800990D02*
X141137217Y-79848609D01*
X141137217Y-79848609D02*
X140803884Y-79848609D01*
X141994360Y-79372419D02*
X142089598Y-79372419D01*
X142089598Y-79372419D02*
X142184836Y-79420038D01*
X142184836Y-79420038D02*
X142232455Y-79467657D01*
X142232455Y-79467657D02*
X142280074Y-79562895D01*
X142280074Y-79562895D02*
X142327693Y-79753371D01*
X142327693Y-79753371D02*
X142327693Y-79991466D01*
X142327693Y-79991466D02*
X142280074Y-80181942D01*
X142280074Y-80181942D02*
X142232455Y-80277180D01*
X142232455Y-80277180D02*
X142184836Y-80324800D01*
X142184836Y-80324800D02*
X142089598Y-80372419D01*
X142089598Y-80372419D02*
X141994360Y-80372419D01*
X141994360Y-80372419D02*
X141899122Y-80324800D01*
X141899122Y-80324800D02*
X141851503Y-80277180D01*
X141851503Y-80277180D02*
X141803884Y-80181942D01*
X141803884Y-80181942D02*
X141756265Y-79991466D01*
X141756265Y-79991466D02*
X141756265Y-79753371D01*
X141756265Y-79753371D02*
X141803884Y-79562895D01*
X141803884Y-79562895D02*
X141851503Y-79467657D01*
X141851503Y-79467657D02*
X141899122Y-79420038D01*
X141899122Y-79420038D02*
X141994360Y-79372419D01*
X55803884Y-88872419D02*
X55803884Y-87872419D01*
X55803884Y-87872419D02*
X56184836Y-87872419D01*
X56184836Y-87872419D02*
X56280074Y-87920038D01*
X56280074Y-87920038D02*
X56327693Y-87967657D01*
X56327693Y-87967657D02*
X56375312Y-88062895D01*
X56375312Y-88062895D02*
X56375312Y-88205752D01*
X56375312Y-88205752D02*
X56327693Y-88300990D01*
X56327693Y-88300990D02*
X56280074Y-88348609D01*
X56280074Y-88348609D02*
X56184836Y-88396228D01*
X56184836Y-88396228D02*
X55803884Y-88396228D01*
X56803884Y-88348609D02*
X57137217Y-88348609D01*
X57280074Y-88872419D02*
X56803884Y-88872419D01*
X56803884Y-88872419D02*
X56803884Y-87872419D01*
X56803884Y-87872419D02*
X57280074Y-87872419D01*
X57899122Y-87872419D02*
X57994360Y-87872419D01*
X57994360Y-87872419D02*
X58089598Y-87920038D01*
X58089598Y-87920038D02*
X58137217Y-87967657D01*
X58137217Y-87967657D02*
X58184836Y-88062895D01*
X58184836Y-88062895D02*
X58232455Y-88253371D01*
X58232455Y-88253371D02*
X58232455Y-88491466D01*
X58232455Y-88491466D02*
X58184836Y-88681942D01*
X58184836Y-88681942D02*
X58137217Y-88777180D01*
X58137217Y-88777180D02*
X58089598Y-88824800D01*
X58089598Y-88824800D02*
X57994360Y-88872419D01*
X57994360Y-88872419D02*
X57899122Y-88872419D01*
X57899122Y-88872419D02*
X57803884Y-88824800D01*
X57803884Y-88824800D02*
X57756265Y-88777180D01*
X57756265Y-88777180D02*
X57708646Y-88681942D01*
X57708646Y-88681942D02*
X57661027Y-88491466D01*
X57661027Y-88491466D02*
X57661027Y-88253371D01*
X57661027Y-88253371D02*
X57708646Y-88062895D01*
X57708646Y-88062895D02*
X57756265Y-87967657D01*
X57756265Y-87967657D02*
X57803884Y-87920038D01*
X57803884Y-87920038D02*
X57899122Y-87872419D01*
X139803884Y-93372419D02*
X139803884Y-92372419D01*
X139803884Y-92372419D02*
X140041979Y-92372419D01*
X140041979Y-92372419D02*
X140184836Y-92420038D01*
X140184836Y-92420038D02*
X140280074Y-92515276D01*
X140280074Y-92515276D02*
X140327693Y-92610514D01*
X140327693Y-92610514D02*
X140375312Y-92800990D01*
X140375312Y-92800990D02*
X140375312Y-92943847D01*
X140375312Y-92943847D02*
X140327693Y-93134323D01*
X140327693Y-93134323D02*
X140280074Y-93229561D01*
X140280074Y-93229561D02*
X140184836Y-93324800D01*
X140184836Y-93324800D02*
X140041979Y-93372419D01*
X140041979Y-93372419D02*
X139803884Y-93372419D01*
X141137217Y-92848609D02*
X141280074Y-92896228D01*
X141280074Y-92896228D02*
X141327693Y-92943847D01*
X141327693Y-92943847D02*
X141375312Y-93039085D01*
X141375312Y-93039085D02*
X141375312Y-93181942D01*
X141375312Y-93181942D02*
X141327693Y-93277180D01*
X141327693Y-93277180D02*
X141280074Y-93324800D01*
X141280074Y-93324800D02*
X141184836Y-93372419D01*
X141184836Y-93372419D02*
X140803884Y-93372419D01*
X140803884Y-93372419D02*
X140803884Y-92372419D01*
X140803884Y-92372419D02*
X141137217Y-92372419D01*
X141137217Y-92372419D02*
X141232455Y-92420038D01*
X141232455Y-92420038D02*
X141280074Y-92467657D01*
X141280074Y-92467657D02*
X141327693Y-92562895D01*
X141327693Y-92562895D02*
X141327693Y-92658133D01*
X141327693Y-92658133D02*
X141280074Y-92753371D01*
X141280074Y-92753371D02*
X141232455Y-92800990D01*
X141232455Y-92800990D02*
X141137217Y-92848609D01*
X141137217Y-92848609D02*
X140803884Y-92848609D01*
X142280074Y-92372419D02*
X141803884Y-92372419D01*
X141803884Y-92372419D02*
X141756265Y-92848609D01*
X141756265Y-92848609D02*
X141803884Y-92800990D01*
X141803884Y-92800990D02*
X141899122Y-92753371D01*
X141899122Y-92753371D02*
X142137217Y-92753371D01*
X142137217Y-92753371D02*
X142232455Y-92800990D01*
X142232455Y-92800990D02*
X142280074Y-92848609D01*
X142280074Y-92848609D02*
X142327693Y-92943847D01*
X142327693Y-92943847D02*
X142327693Y-93181942D01*
X142327693Y-93181942D02*
X142280074Y-93277180D01*
X142280074Y-93277180D02*
X142232455Y-93324800D01*
X142232455Y-93324800D02*
X142137217Y-93372419D01*
X142137217Y-93372419D02*
X141899122Y-93372419D01*
X141899122Y-93372419D02*
X141803884Y-93324800D01*
X141803884Y-93324800D02*
X141756265Y-93277180D01*
X112256265Y-80086704D02*
X112732455Y-80086704D01*
X112161027Y-80372419D02*
X112494360Y-79372419D01*
X112494360Y-79372419D02*
X112827693Y-80372419D01*
X113589598Y-79372419D02*
X113399122Y-79372419D01*
X113399122Y-79372419D02*
X113303884Y-79420038D01*
X113303884Y-79420038D02*
X113256265Y-79467657D01*
X113256265Y-79467657D02*
X113161027Y-79610514D01*
X113161027Y-79610514D02*
X113113408Y-79800990D01*
X113113408Y-79800990D02*
X113113408Y-80181942D01*
X113113408Y-80181942D02*
X113161027Y-80277180D01*
X113161027Y-80277180D02*
X113208646Y-80324800D01*
X113208646Y-80324800D02*
X113303884Y-80372419D01*
X113303884Y-80372419D02*
X113494360Y-80372419D01*
X113494360Y-80372419D02*
X113589598Y-80324800D01*
X113589598Y-80324800D02*
X113637217Y-80277180D01*
X113637217Y-80277180D02*
X113684836Y-80181942D01*
X113684836Y-80181942D02*
X113684836Y-79943847D01*
X113684836Y-79943847D02*
X113637217Y-79848609D01*
X113637217Y-79848609D02*
X113589598Y-79800990D01*
X113589598Y-79800990D02*
X113494360Y-79753371D01*
X113494360Y-79753371D02*
X113303884Y-79753371D01*
X113303884Y-79753371D02*
X113208646Y-79800990D01*
X113208646Y-79800990D02*
X113161027Y-79848609D01*
X113161027Y-79848609D02*
X113113408Y-79943847D01*
X139803884Y-110872419D02*
X139803884Y-109872419D01*
X139803884Y-109872419D02*
X140184836Y-109872419D01*
X140184836Y-109872419D02*
X140280074Y-109920038D01*
X140280074Y-109920038D02*
X140327693Y-109967657D01*
X140327693Y-109967657D02*
X140375312Y-110062895D01*
X140375312Y-110062895D02*
X140375312Y-110205752D01*
X140375312Y-110205752D02*
X140327693Y-110300990D01*
X140327693Y-110300990D02*
X140280074Y-110348609D01*
X140280074Y-110348609D02*
X140184836Y-110396228D01*
X140184836Y-110396228D02*
X139803884Y-110396228D01*
X141137217Y-110348609D02*
X141280074Y-110396228D01*
X141280074Y-110396228D02*
X141327693Y-110443847D01*
X141327693Y-110443847D02*
X141375312Y-110539085D01*
X141375312Y-110539085D02*
X141375312Y-110681942D01*
X141375312Y-110681942D02*
X141327693Y-110777180D01*
X141327693Y-110777180D02*
X141280074Y-110824800D01*
X141280074Y-110824800D02*
X141184836Y-110872419D01*
X141184836Y-110872419D02*
X140803884Y-110872419D01*
X140803884Y-110872419D02*
X140803884Y-109872419D01*
X140803884Y-109872419D02*
X141137217Y-109872419D01*
X141137217Y-109872419D02*
X141232455Y-109920038D01*
X141232455Y-109920038D02*
X141280074Y-109967657D01*
X141280074Y-109967657D02*
X141327693Y-110062895D01*
X141327693Y-110062895D02*
X141327693Y-110158133D01*
X141327693Y-110158133D02*
X141280074Y-110253371D01*
X141280074Y-110253371D02*
X141232455Y-110300990D01*
X141232455Y-110300990D02*
X141137217Y-110348609D01*
X141137217Y-110348609D02*
X140803884Y-110348609D01*
X142232455Y-110205752D02*
X142232455Y-110872419D01*
X141994360Y-109824800D02*
X141756265Y-110539085D01*
X141756265Y-110539085D02*
X142375312Y-110539085D01*
X139803884Y-95872419D02*
X139803884Y-94872419D01*
X139803884Y-94872419D02*
X140041979Y-94872419D01*
X140041979Y-94872419D02*
X140184836Y-94920038D01*
X140184836Y-94920038D02*
X140280074Y-95015276D01*
X140280074Y-95015276D02*
X140327693Y-95110514D01*
X140327693Y-95110514D02*
X140375312Y-95300990D01*
X140375312Y-95300990D02*
X140375312Y-95443847D01*
X140375312Y-95443847D02*
X140327693Y-95634323D01*
X140327693Y-95634323D02*
X140280074Y-95729561D01*
X140280074Y-95729561D02*
X140184836Y-95824800D01*
X140184836Y-95824800D02*
X140041979Y-95872419D01*
X140041979Y-95872419D02*
X139803884Y-95872419D01*
X141137217Y-95348609D02*
X141280074Y-95396228D01*
X141280074Y-95396228D02*
X141327693Y-95443847D01*
X141327693Y-95443847D02*
X141375312Y-95539085D01*
X141375312Y-95539085D02*
X141375312Y-95681942D01*
X141375312Y-95681942D02*
X141327693Y-95777180D01*
X141327693Y-95777180D02*
X141280074Y-95824800D01*
X141280074Y-95824800D02*
X141184836Y-95872419D01*
X141184836Y-95872419D02*
X140803884Y-95872419D01*
X140803884Y-95872419D02*
X140803884Y-94872419D01*
X140803884Y-94872419D02*
X141137217Y-94872419D01*
X141137217Y-94872419D02*
X141232455Y-94920038D01*
X141232455Y-94920038D02*
X141280074Y-94967657D01*
X141280074Y-94967657D02*
X141327693Y-95062895D01*
X141327693Y-95062895D02*
X141327693Y-95158133D01*
X141327693Y-95158133D02*
X141280074Y-95253371D01*
X141280074Y-95253371D02*
X141232455Y-95300990D01*
X141232455Y-95300990D02*
X141137217Y-95348609D01*
X141137217Y-95348609D02*
X140803884Y-95348609D01*
X142232455Y-94872419D02*
X142041979Y-94872419D01*
X142041979Y-94872419D02*
X141946741Y-94920038D01*
X141946741Y-94920038D02*
X141899122Y-94967657D01*
X141899122Y-94967657D02*
X141803884Y-95110514D01*
X141803884Y-95110514D02*
X141756265Y-95300990D01*
X141756265Y-95300990D02*
X141756265Y-95681942D01*
X141756265Y-95681942D02*
X141803884Y-95777180D01*
X141803884Y-95777180D02*
X141851503Y-95824800D01*
X141851503Y-95824800D02*
X141946741Y-95872419D01*
X141946741Y-95872419D02*
X142137217Y-95872419D01*
X142137217Y-95872419D02*
X142232455Y-95824800D01*
X142232455Y-95824800D02*
X142280074Y-95777180D01*
X142280074Y-95777180D02*
X142327693Y-95681942D01*
X142327693Y-95681942D02*
X142327693Y-95443847D01*
X142327693Y-95443847D02*
X142280074Y-95348609D01*
X142280074Y-95348609D02*
X142232455Y-95300990D01*
X142232455Y-95300990D02*
X142137217Y-95253371D01*
X142137217Y-95253371D02*
X141946741Y-95253371D01*
X141946741Y-95253371D02*
X141851503Y-95300990D01*
X141851503Y-95300990D02*
X141803884Y-95348609D01*
X141803884Y-95348609D02*
X141756265Y-95443847D01*
X139803884Y-90872419D02*
X139803884Y-89872419D01*
X139803884Y-89872419D02*
X140041979Y-89872419D01*
X140041979Y-89872419D02*
X140184836Y-89920038D01*
X140184836Y-89920038D02*
X140280074Y-90015276D01*
X140280074Y-90015276D02*
X140327693Y-90110514D01*
X140327693Y-90110514D02*
X140375312Y-90300990D01*
X140375312Y-90300990D02*
X140375312Y-90443847D01*
X140375312Y-90443847D02*
X140327693Y-90634323D01*
X140327693Y-90634323D02*
X140280074Y-90729561D01*
X140280074Y-90729561D02*
X140184836Y-90824800D01*
X140184836Y-90824800D02*
X140041979Y-90872419D01*
X140041979Y-90872419D02*
X139803884Y-90872419D01*
X141137217Y-90348609D02*
X141280074Y-90396228D01*
X141280074Y-90396228D02*
X141327693Y-90443847D01*
X141327693Y-90443847D02*
X141375312Y-90539085D01*
X141375312Y-90539085D02*
X141375312Y-90681942D01*
X141375312Y-90681942D02*
X141327693Y-90777180D01*
X141327693Y-90777180D02*
X141280074Y-90824800D01*
X141280074Y-90824800D02*
X141184836Y-90872419D01*
X141184836Y-90872419D02*
X140803884Y-90872419D01*
X140803884Y-90872419D02*
X140803884Y-89872419D01*
X140803884Y-89872419D02*
X141137217Y-89872419D01*
X141137217Y-89872419D02*
X141232455Y-89920038D01*
X141232455Y-89920038D02*
X141280074Y-89967657D01*
X141280074Y-89967657D02*
X141327693Y-90062895D01*
X141327693Y-90062895D02*
X141327693Y-90158133D01*
X141327693Y-90158133D02*
X141280074Y-90253371D01*
X141280074Y-90253371D02*
X141232455Y-90300990D01*
X141232455Y-90300990D02*
X141137217Y-90348609D01*
X141137217Y-90348609D02*
X140803884Y-90348609D01*
X142232455Y-90205752D02*
X142232455Y-90872419D01*
X141994360Y-89824800D02*
X141756265Y-90539085D01*
X141756265Y-90539085D02*
X142375312Y-90539085D01*
X139803884Y-67872419D02*
X139803884Y-66872419D01*
X139803884Y-66872419D02*
X140184836Y-66872419D01*
X140184836Y-66872419D02*
X140280074Y-66920038D01*
X140280074Y-66920038D02*
X140327693Y-66967657D01*
X140327693Y-66967657D02*
X140375312Y-67062895D01*
X140375312Y-67062895D02*
X140375312Y-67205752D01*
X140375312Y-67205752D02*
X140327693Y-67300990D01*
X140327693Y-67300990D02*
X140280074Y-67348609D01*
X140280074Y-67348609D02*
X140184836Y-67396228D01*
X140184836Y-67396228D02*
X139803884Y-67396228D01*
X140756265Y-67586704D02*
X141232455Y-67586704D01*
X140661027Y-67872419D02*
X140994360Y-66872419D01*
X140994360Y-66872419D02*
X141327693Y-67872419D01*
X141565789Y-66872419D02*
X142184836Y-66872419D01*
X142184836Y-66872419D02*
X141851503Y-67253371D01*
X141851503Y-67253371D02*
X141994360Y-67253371D01*
X141994360Y-67253371D02*
X142089598Y-67300990D01*
X142089598Y-67300990D02*
X142137217Y-67348609D01*
X142137217Y-67348609D02*
X142184836Y-67443847D01*
X142184836Y-67443847D02*
X142184836Y-67681942D01*
X142184836Y-67681942D02*
X142137217Y-67777180D01*
X142137217Y-67777180D02*
X142089598Y-67824800D01*
X142089598Y-67824800D02*
X141994360Y-67872419D01*
X141994360Y-67872419D02*
X141708646Y-67872419D01*
X141708646Y-67872419D02*
X141613408Y-67824800D01*
X141613408Y-67824800D02*
X141565789Y-67777180D01*
X112256265Y-93086704D02*
X112732455Y-93086704D01*
X112161027Y-93372419D02*
X112494360Y-92372419D01*
X112494360Y-92372419D02*
X112827693Y-93372419D01*
X113113408Y-92467657D02*
X113161027Y-92420038D01*
X113161027Y-92420038D02*
X113256265Y-92372419D01*
X113256265Y-92372419D02*
X113494360Y-92372419D01*
X113494360Y-92372419D02*
X113589598Y-92420038D01*
X113589598Y-92420038D02*
X113637217Y-92467657D01*
X113637217Y-92467657D02*
X113684836Y-92562895D01*
X113684836Y-92562895D02*
X113684836Y-92658133D01*
X113684836Y-92658133D02*
X113637217Y-92800990D01*
X113637217Y-92800990D02*
X113065789Y-93372419D01*
X113065789Y-93372419D02*
X113684836Y-93372419D01*
X139803884Y-75372419D02*
X139803884Y-74372419D01*
X139803884Y-74372419D02*
X140184836Y-74372419D01*
X140184836Y-74372419D02*
X140280074Y-74420038D01*
X140280074Y-74420038D02*
X140327693Y-74467657D01*
X140327693Y-74467657D02*
X140375312Y-74562895D01*
X140375312Y-74562895D02*
X140375312Y-74705752D01*
X140375312Y-74705752D02*
X140327693Y-74800990D01*
X140327693Y-74800990D02*
X140280074Y-74848609D01*
X140280074Y-74848609D02*
X140184836Y-74896228D01*
X140184836Y-74896228D02*
X139803884Y-74896228D01*
X140756265Y-75086704D02*
X141232455Y-75086704D01*
X140661027Y-75372419D02*
X140994360Y-74372419D01*
X140994360Y-74372419D02*
X141327693Y-75372419D01*
X142089598Y-74372419D02*
X141899122Y-74372419D01*
X141899122Y-74372419D02*
X141803884Y-74420038D01*
X141803884Y-74420038D02*
X141756265Y-74467657D01*
X141756265Y-74467657D02*
X141661027Y-74610514D01*
X141661027Y-74610514D02*
X141613408Y-74800990D01*
X141613408Y-74800990D02*
X141613408Y-75181942D01*
X141613408Y-75181942D02*
X141661027Y-75277180D01*
X141661027Y-75277180D02*
X141708646Y-75324800D01*
X141708646Y-75324800D02*
X141803884Y-75372419D01*
X141803884Y-75372419D02*
X141994360Y-75372419D01*
X141994360Y-75372419D02*
X142089598Y-75324800D01*
X142089598Y-75324800D02*
X142137217Y-75277180D01*
X142137217Y-75277180D02*
X142184836Y-75181942D01*
X142184836Y-75181942D02*
X142184836Y-74943847D01*
X142184836Y-74943847D02*
X142137217Y-74848609D01*
X142137217Y-74848609D02*
X142089598Y-74800990D01*
X142089598Y-74800990D02*
X141994360Y-74753371D01*
X141994360Y-74753371D02*
X141803884Y-74753371D01*
X141803884Y-74753371D02*
X141708646Y-74800990D01*
X141708646Y-74800990D02*
X141661027Y-74848609D01*
X141661027Y-74848609D02*
X141613408Y-74943847D01*
X112875312Y-83372419D02*
X112541979Y-82896228D01*
X112303884Y-83372419D02*
X112303884Y-82372419D01*
X112303884Y-82372419D02*
X112684836Y-82372419D01*
X112684836Y-82372419D02*
X112780074Y-82420038D01*
X112780074Y-82420038D02*
X112827693Y-82467657D01*
X112827693Y-82467657D02*
X112875312Y-82562895D01*
X112875312Y-82562895D02*
X112875312Y-82705752D01*
X112875312Y-82705752D02*
X112827693Y-82800990D01*
X112827693Y-82800990D02*
X112780074Y-82848609D01*
X112780074Y-82848609D02*
X112684836Y-82896228D01*
X112684836Y-82896228D02*
X112303884Y-82896228D01*
X114018169Y-82324800D02*
X113161027Y-83610514D01*
X114256265Y-82372419D02*
X114494360Y-83372419D01*
X114494360Y-83372419D02*
X114684836Y-82658133D01*
X114684836Y-82658133D02*
X114875312Y-83372419D01*
X114875312Y-83372419D02*
X115113408Y-82372419D01*
X55803884Y-109372419D02*
X55803884Y-108372419D01*
X55803884Y-108372419D02*
X56184836Y-108372419D01*
X56184836Y-108372419D02*
X56280074Y-108420038D01*
X56280074Y-108420038D02*
X56327693Y-108467657D01*
X56327693Y-108467657D02*
X56375312Y-108562895D01*
X56375312Y-108562895D02*
X56375312Y-108705752D01*
X56375312Y-108705752D02*
X56327693Y-108800990D01*
X56327693Y-108800990D02*
X56280074Y-108848609D01*
X56280074Y-108848609D02*
X56184836Y-108896228D01*
X56184836Y-108896228D02*
X55803884Y-108896228D01*
X57280074Y-109372419D02*
X56803884Y-109372419D01*
X56803884Y-109372419D02*
X56803884Y-108372419D01*
X57518170Y-108372419D02*
X58184836Y-108372419D01*
X58184836Y-108372419D02*
X57756265Y-109372419D01*
X55803884Y-83872419D02*
X55803884Y-82872419D01*
X55803884Y-82872419D02*
X56184836Y-82872419D01*
X56184836Y-82872419D02*
X56280074Y-82920038D01*
X56280074Y-82920038D02*
X56327693Y-82967657D01*
X56327693Y-82967657D02*
X56375312Y-83062895D01*
X56375312Y-83062895D02*
X56375312Y-83205752D01*
X56375312Y-83205752D02*
X56327693Y-83300990D01*
X56327693Y-83300990D02*
X56280074Y-83348609D01*
X56280074Y-83348609D02*
X56184836Y-83396228D01*
X56184836Y-83396228D02*
X55803884Y-83396228D01*
X56803884Y-83872419D02*
X56803884Y-82872419D01*
X56803884Y-82872419D02*
X57041979Y-82872419D01*
X57041979Y-82872419D02*
X57184836Y-82920038D01*
X57184836Y-82920038D02*
X57280074Y-83015276D01*
X57280074Y-83015276D02*
X57327693Y-83110514D01*
X57327693Y-83110514D02*
X57375312Y-83300990D01*
X57375312Y-83300990D02*
X57375312Y-83443847D01*
X57375312Y-83443847D02*
X57327693Y-83634323D01*
X57327693Y-83634323D02*
X57280074Y-83729561D01*
X57280074Y-83729561D02*
X57184836Y-83824800D01*
X57184836Y-83824800D02*
X57041979Y-83872419D01*
X57041979Y-83872419D02*
X56803884Y-83872419D01*
X57994360Y-82872419D02*
X58089598Y-82872419D01*
X58089598Y-82872419D02*
X58184836Y-82920038D01*
X58184836Y-82920038D02*
X58232455Y-82967657D01*
X58232455Y-82967657D02*
X58280074Y-83062895D01*
X58280074Y-83062895D02*
X58327693Y-83253371D01*
X58327693Y-83253371D02*
X58327693Y-83491466D01*
X58327693Y-83491466D02*
X58280074Y-83681942D01*
X58280074Y-83681942D02*
X58232455Y-83777180D01*
X58232455Y-83777180D02*
X58184836Y-83824800D01*
X58184836Y-83824800D02*
X58089598Y-83872419D01*
X58089598Y-83872419D02*
X57994360Y-83872419D01*
X57994360Y-83872419D02*
X57899122Y-83824800D01*
X57899122Y-83824800D02*
X57851503Y-83777180D01*
X57851503Y-83777180D02*
X57803884Y-83681942D01*
X57803884Y-83681942D02*
X57756265Y-83491466D01*
X57756265Y-83491466D02*
X57756265Y-83253371D01*
X57756265Y-83253371D02*
X57803884Y-83062895D01*
X57803884Y-83062895D02*
X57851503Y-82967657D01*
X57851503Y-82967657D02*
X57899122Y-82920038D01*
X57899122Y-82920038D02*
X57994360Y-82872419D01*
X55803884Y-106372419D02*
X55803884Y-105372419D01*
X55803884Y-105372419D02*
X56184836Y-105372419D01*
X56184836Y-105372419D02*
X56280074Y-105420038D01*
X56280074Y-105420038D02*
X56327693Y-105467657D01*
X56327693Y-105467657D02*
X56375312Y-105562895D01*
X56375312Y-105562895D02*
X56375312Y-105705752D01*
X56375312Y-105705752D02*
X56327693Y-105800990D01*
X56327693Y-105800990D02*
X56280074Y-105848609D01*
X56280074Y-105848609D02*
X56184836Y-105896228D01*
X56184836Y-105896228D02*
X55803884Y-105896228D01*
X56803884Y-106372419D02*
X56803884Y-105372419D01*
X56803884Y-105848609D02*
X57375312Y-105848609D01*
X57375312Y-106372419D02*
X57375312Y-105372419D01*
X58280074Y-105705752D02*
X58280074Y-106372419D01*
X58041979Y-105324800D02*
X57803884Y-106039085D01*
X57803884Y-106039085D02*
X58422931Y-106039085D01*
X112303884Y-65372419D02*
X112303884Y-64372419D01*
X112303884Y-64372419D02*
X112684836Y-64372419D01*
X112684836Y-64372419D02*
X112780074Y-64420038D01*
X112780074Y-64420038D02*
X112827693Y-64467657D01*
X112827693Y-64467657D02*
X112875312Y-64562895D01*
X112875312Y-64562895D02*
X112875312Y-64705752D01*
X112875312Y-64705752D02*
X112827693Y-64800990D01*
X112827693Y-64800990D02*
X112780074Y-64848609D01*
X112780074Y-64848609D02*
X112684836Y-64896228D01*
X112684836Y-64896228D02*
X112303884Y-64896228D01*
X113256265Y-65086704D02*
X113732455Y-65086704D01*
X113161027Y-65372419D02*
X113494360Y-64372419D01*
X113494360Y-64372419D02*
X113827693Y-65372419D01*
X114351503Y-64372419D02*
X114446741Y-64372419D01*
X114446741Y-64372419D02*
X114541979Y-64420038D01*
X114541979Y-64420038D02*
X114589598Y-64467657D01*
X114589598Y-64467657D02*
X114637217Y-64562895D01*
X114637217Y-64562895D02*
X114684836Y-64753371D01*
X114684836Y-64753371D02*
X114684836Y-64991466D01*
X114684836Y-64991466D02*
X114637217Y-65181942D01*
X114637217Y-65181942D02*
X114589598Y-65277180D01*
X114589598Y-65277180D02*
X114541979Y-65324800D01*
X114541979Y-65324800D02*
X114446741Y-65372419D01*
X114446741Y-65372419D02*
X114351503Y-65372419D01*
X114351503Y-65372419D02*
X114256265Y-65324800D01*
X114256265Y-65324800D02*
X114208646Y-65277180D01*
X114208646Y-65277180D02*
X114161027Y-65181942D01*
X114161027Y-65181942D02*
X114113408Y-64991466D01*
X114113408Y-64991466D02*
X114113408Y-64753371D01*
X114113408Y-64753371D02*
X114161027Y-64562895D01*
X114161027Y-64562895D02*
X114208646Y-64467657D01*
X114208646Y-64467657D02*
X114256265Y-64420038D01*
X114256265Y-64420038D02*
X114351503Y-64372419D01*
X65303884Y-114372419D02*
X65303884Y-113372419D01*
X65303884Y-113372419D02*
X65684836Y-113372419D01*
X65684836Y-113372419D02*
X65780074Y-113420038D01*
X65780074Y-113420038D02*
X65827693Y-113467657D01*
X65827693Y-113467657D02*
X65875312Y-113562895D01*
X65875312Y-113562895D02*
X65875312Y-113705752D01*
X65875312Y-113705752D02*
X65827693Y-113800990D01*
X65827693Y-113800990D02*
X65780074Y-113848609D01*
X65780074Y-113848609D02*
X65684836Y-113896228D01*
X65684836Y-113896228D02*
X65303884Y-113896228D01*
X66780074Y-114372419D02*
X66303884Y-114372419D01*
X66303884Y-114372419D02*
X66303884Y-113372419D01*
X67065789Y-113467657D02*
X67113408Y-113420038D01*
X67113408Y-113420038D02*
X67208646Y-113372419D01*
X67208646Y-113372419D02*
X67446741Y-113372419D01*
X67446741Y-113372419D02*
X67541979Y-113420038D01*
X67541979Y-113420038D02*
X67589598Y-113467657D01*
X67589598Y-113467657D02*
X67637217Y-113562895D01*
X67637217Y-113562895D02*
X67637217Y-113658133D01*
X67637217Y-113658133D02*
X67589598Y-113800990D01*
X67589598Y-113800990D02*
X67018170Y-114372419D01*
X67018170Y-114372419D02*
X67637217Y-114372419D01*
X139803884Y-72872419D02*
X139803884Y-71872419D01*
X139803884Y-71872419D02*
X140184836Y-71872419D01*
X140184836Y-71872419D02*
X140280074Y-71920038D01*
X140280074Y-71920038D02*
X140327693Y-71967657D01*
X140327693Y-71967657D02*
X140375312Y-72062895D01*
X140375312Y-72062895D02*
X140375312Y-72205752D01*
X140375312Y-72205752D02*
X140327693Y-72300990D01*
X140327693Y-72300990D02*
X140280074Y-72348609D01*
X140280074Y-72348609D02*
X140184836Y-72396228D01*
X140184836Y-72396228D02*
X139803884Y-72396228D01*
X140756265Y-72586704D02*
X141232455Y-72586704D01*
X140661027Y-72872419D02*
X140994360Y-71872419D01*
X140994360Y-71872419D02*
X141327693Y-72872419D01*
X142137217Y-71872419D02*
X141661027Y-71872419D01*
X141661027Y-71872419D02*
X141613408Y-72348609D01*
X141613408Y-72348609D02*
X141661027Y-72300990D01*
X141661027Y-72300990D02*
X141756265Y-72253371D01*
X141756265Y-72253371D02*
X141994360Y-72253371D01*
X141994360Y-72253371D02*
X142089598Y-72300990D01*
X142089598Y-72300990D02*
X142137217Y-72348609D01*
X142137217Y-72348609D02*
X142184836Y-72443847D01*
X142184836Y-72443847D02*
X142184836Y-72681942D01*
X142184836Y-72681942D02*
X142137217Y-72777180D01*
X142137217Y-72777180D02*
X142089598Y-72824800D01*
X142089598Y-72824800D02*
X141994360Y-72872419D01*
X141994360Y-72872419D02*
X141756265Y-72872419D01*
X141756265Y-72872419D02*
X141661027Y-72824800D01*
X141661027Y-72824800D02*
X141613408Y-72777180D01*
X139803884Y-100872419D02*
X139803884Y-99872419D01*
X139803884Y-99872419D02*
X140184836Y-99872419D01*
X140184836Y-99872419D02*
X140280074Y-99920038D01*
X140280074Y-99920038D02*
X140327693Y-99967657D01*
X140327693Y-99967657D02*
X140375312Y-100062895D01*
X140375312Y-100062895D02*
X140375312Y-100205752D01*
X140375312Y-100205752D02*
X140327693Y-100300990D01*
X140327693Y-100300990D02*
X140280074Y-100348609D01*
X140280074Y-100348609D02*
X140184836Y-100396228D01*
X140184836Y-100396228D02*
X139803884Y-100396228D01*
X141137217Y-100348609D02*
X141280074Y-100396228D01*
X141280074Y-100396228D02*
X141327693Y-100443847D01*
X141327693Y-100443847D02*
X141375312Y-100539085D01*
X141375312Y-100539085D02*
X141375312Y-100681942D01*
X141375312Y-100681942D02*
X141327693Y-100777180D01*
X141327693Y-100777180D02*
X141280074Y-100824800D01*
X141280074Y-100824800D02*
X141184836Y-100872419D01*
X141184836Y-100872419D02*
X140803884Y-100872419D01*
X140803884Y-100872419D02*
X140803884Y-99872419D01*
X140803884Y-99872419D02*
X141137217Y-99872419D01*
X141137217Y-99872419D02*
X141232455Y-99920038D01*
X141232455Y-99920038D02*
X141280074Y-99967657D01*
X141280074Y-99967657D02*
X141327693Y-100062895D01*
X141327693Y-100062895D02*
X141327693Y-100158133D01*
X141327693Y-100158133D02*
X141280074Y-100253371D01*
X141280074Y-100253371D02*
X141232455Y-100300990D01*
X141232455Y-100300990D02*
X141137217Y-100348609D01*
X141137217Y-100348609D02*
X140803884Y-100348609D01*
X141994360Y-99872419D02*
X142089598Y-99872419D01*
X142089598Y-99872419D02*
X142184836Y-99920038D01*
X142184836Y-99920038D02*
X142232455Y-99967657D01*
X142232455Y-99967657D02*
X142280074Y-100062895D01*
X142280074Y-100062895D02*
X142327693Y-100253371D01*
X142327693Y-100253371D02*
X142327693Y-100491466D01*
X142327693Y-100491466D02*
X142280074Y-100681942D01*
X142280074Y-100681942D02*
X142232455Y-100777180D01*
X142232455Y-100777180D02*
X142184836Y-100824800D01*
X142184836Y-100824800D02*
X142089598Y-100872419D01*
X142089598Y-100872419D02*
X141994360Y-100872419D01*
X141994360Y-100872419D02*
X141899122Y-100824800D01*
X141899122Y-100824800D02*
X141851503Y-100777180D01*
X141851503Y-100777180D02*
X141803884Y-100681942D01*
X141803884Y-100681942D02*
X141756265Y-100491466D01*
X141756265Y-100491466D02*
X141756265Y-100253371D01*
X141756265Y-100253371D02*
X141803884Y-100062895D01*
X141803884Y-100062895D02*
X141851503Y-99967657D01*
X141851503Y-99967657D02*
X141899122Y-99920038D01*
X141899122Y-99920038D02*
X141994360Y-99872419D01*
X139803884Y-105872419D02*
X139803884Y-104872419D01*
X139803884Y-104872419D02*
X140184836Y-104872419D01*
X140184836Y-104872419D02*
X140280074Y-104920038D01*
X140280074Y-104920038D02*
X140327693Y-104967657D01*
X140327693Y-104967657D02*
X140375312Y-105062895D01*
X140375312Y-105062895D02*
X140375312Y-105205752D01*
X140375312Y-105205752D02*
X140327693Y-105300990D01*
X140327693Y-105300990D02*
X140280074Y-105348609D01*
X140280074Y-105348609D02*
X140184836Y-105396228D01*
X140184836Y-105396228D02*
X139803884Y-105396228D01*
X141137217Y-105348609D02*
X141280074Y-105396228D01*
X141280074Y-105396228D02*
X141327693Y-105443847D01*
X141327693Y-105443847D02*
X141375312Y-105539085D01*
X141375312Y-105539085D02*
X141375312Y-105681942D01*
X141375312Y-105681942D02*
X141327693Y-105777180D01*
X141327693Y-105777180D02*
X141280074Y-105824800D01*
X141280074Y-105824800D02*
X141184836Y-105872419D01*
X141184836Y-105872419D02*
X140803884Y-105872419D01*
X140803884Y-105872419D02*
X140803884Y-104872419D01*
X140803884Y-104872419D02*
X141137217Y-104872419D01*
X141137217Y-104872419D02*
X141232455Y-104920038D01*
X141232455Y-104920038D02*
X141280074Y-104967657D01*
X141280074Y-104967657D02*
X141327693Y-105062895D01*
X141327693Y-105062895D02*
X141327693Y-105158133D01*
X141327693Y-105158133D02*
X141280074Y-105253371D01*
X141280074Y-105253371D02*
X141232455Y-105300990D01*
X141232455Y-105300990D02*
X141137217Y-105348609D01*
X141137217Y-105348609D02*
X140803884Y-105348609D01*
X141756265Y-104967657D02*
X141803884Y-104920038D01*
X141803884Y-104920038D02*
X141899122Y-104872419D01*
X141899122Y-104872419D02*
X142137217Y-104872419D01*
X142137217Y-104872419D02*
X142232455Y-104920038D01*
X142232455Y-104920038D02*
X142280074Y-104967657D01*
X142280074Y-104967657D02*
X142327693Y-105062895D01*
X142327693Y-105062895D02*
X142327693Y-105158133D01*
X142327693Y-105158133D02*
X142280074Y-105300990D01*
X142280074Y-105300990D02*
X141708646Y-105872419D01*
X141708646Y-105872419D02*
X142327693Y-105872419D01*
X109375312Y-108277180D02*
X109327693Y-108324800D01*
X109327693Y-108324800D02*
X109184836Y-108372419D01*
X109184836Y-108372419D02*
X109089598Y-108372419D01*
X109089598Y-108372419D02*
X108946741Y-108324800D01*
X108946741Y-108324800D02*
X108851503Y-108229561D01*
X108851503Y-108229561D02*
X108803884Y-108134323D01*
X108803884Y-108134323D02*
X108756265Y-107943847D01*
X108756265Y-107943847D02*
X108756265Y-107800990D01*
X108756265Y-107800990D02*
X108803884Y-107610514D01*
X108803884Y-107610514D02*
X108851503Y-107515276D01*
X108851503Y-107515276D02*
X108946741Y-107420038D01*
X108946741Y-107420038D02*
X109089598Y-107372419D01*
X109089598Y-107372419D02*
X109184836Y-107372419D01*
X109184836Y-107372419D02*
X109327693Y-107420038D01*
X109327693Y-107420038D02*
X109375312Y-107467657D01*
X109756265Y-108324800D02*
X109899122Y-108372419D01*
X109899122Y-108372419D02*
X110137217Y-108372419D01*
X110137217Y-108372419D02*
X110232455Y-108324800D01*
X110232455Y-108324800D02*
X110280074Y-108277180D01*
X110280074Y-108277180D02*
X110327693Y-108181942D01*
X110327693Y-108181942D02*
X110327693Y-108086704D01*
X110327693Y-108086704D02*
X110280074Y-107991466D01*
X110280074Y-107991466D02*
X110232455Y-107943847D01*
X110232455Y-107943847D02*
X110137217Y-107896228D01*
X110137217Y-107896228D02*
X109946741Y-107848609D01*
X109946741Y-107848609D02*
X109851503Y-107800990D01*
X109851503Y-107800990D02*
X109803884Y-107753371D01*
X109803884Y-107753371D02*
X109756265Y-107658133D01*
X109756265Y-107658133D02*
X109756265Y-107562895D01*
X109756265Y-107562895D02*
X109803884Y-107467657D01*
X109803884Y-107467657D02*
X109851503Y-107420038D01*
X109851503Y-107420038D02*
X109946741Y-107372419D01*
X109946741Y-107372419D02*
X110184836Y-107372419D01*
X110184836Y-107372419D02*
X110327693Y-107420038D01*
X110708646Y-107467657D02*
X110756265Y-107420038D01*
X110756265Y-107420038D02*
X110851503Y-107372419D01*
X110851503Y-107372419D02*
X111089598Y-107372419D01*
X111089598Y-107372419D02*
X111184836Y-107420038D01*
X111184836Y-107420038D02*
X111232455Y-107467657D01*
X111232455Y-107467657D02*
X111280074Y-107562895D01*
X111280074Y-107562895D02*
X111280074Y-107658133D01*
X111280074Y-107658133D02*
X111232455Y-107800990D01*
X111232455Y-107800990D02*
X110661027Y-108372419D01*
X110661027Y-108372419D02*
X111280074Y-108372419D01*
X111470551Y-108467657D02*
X112232455Y-108467657D01*
X112470551Y-108372419D02*
X112470551Y-107372419D01*
X112470551Y-107372419D02*
X112851503Y-107372419D01*
X112851503Y-107372419D02*
X112946741Y-107420038D01*
X112946741Y-107420038D02*
X112994360Y-107467657D01*
X112994360Y-107467657D02*
X113041979Y-107562895D01*
X113041979Y-107562895D02*
X113041979Y-107705752D01*
X113041979Y-107705752D02*
X112994360Y-107800990D01*
X112994360Y-107800990D02*
X112946741Y-107848609D01*
X112946741Y-107848609D02*
X112851503Y-107896228D01*
X112851503Y-107896228D02*
X112470551Y-107896228D01*
X113803884Y-107848609D02*
X113946741Y-107896228D01*
X113946741Y-107896228D02*
X113994360Y-107943847D01*
X113994360Y-107943847D02*
X114041979Y-108039085D01*
X114041979Y-108039085D02*
X114041979Y-108181942D01*
X114041979Y-108181942D02*
X113994360Y-108277180D01*
X113994360Y-108277180D02*
X113946741Y-108324800D01*
X113946741Y-108324800D02*
X113851503Y-108372419D01*
X113851503Y-108372419D02*
X113470551Y-108372419D01*
X113470551Y-108372419D02*
X113470551Y-107372419D01*
X113470551Y-107372419D02*
X113803884Y-107372419D01*
X113803884Y-107372419D02*
X113899122Y-107420038D01*
X113899122Y-107420038D02*
X113946741Y-107467657D01*
X113946741Y-107467657D02*
X113994360Y-107562895D01*
X113994360Y-107562895D02*
X113994360Y-107658133D01*
X113994360Y-107658133D02*
X113946741Y-107753371D01*
X113946741Y-107753371D02*
X113899122Y-107800990D01*
X113899122Y-107800990D02*
X113803884Y-107848609D01*
X113803884Y-107848609D02*
X113470551Y-107848609D01*
X114946741Y-107372419D02*
X114470551Y-107372419D01*
X114470551Y-107372419D02*
X114422932Y-107848609D01*
X114422932Y-107848609D02*
X114470551Y-107800990D01*
X114470551Y-107800990D02*
X114565789Y-107753371D01*
X114565789Y-107753371D02*
X114803884Y-107753371D01*
X114803884Y-107753371D02*
X114899122Y-107800990D01*
X114899122Y-107800990D02*
X114946741Y-107848609D01*
X114946741Y-107848609D02*
X114994360Y-107943847D01*
X114994360Y-107943847D02*
X114994360Y-108181942D01*
X114994360Y-108181942D02*
X114946741Y-108277180D01*
X114946741Y-108277180D02*
X114899122Y-108324800D01*
X114899122Y-108324800D02*
X114803884Y-108372419D01*
X114803884Y-108372419D02*
X114565789Y-108372419D01*
X114565789Y-108372419D02*
X114470551Y-108324800D01*
X114470551Y-108324800D02*
X114422932Y-108277180D01*
X112303884Y-67872419D02*
X112303884Y-66872419D01*
X112303884Y-66872419D02*
X112684836Y-66872419D01*
X112684836Y-66872419D02*
X112780074Y-66920038D01*
X112780074Y-66920038D02*
X112827693Y-66967657D01*
X112827693Y-66967657D02*
X112875312Y-67062895D01*
X112875312Y-67062895D02*
X112875312Y-67205752D01*
X112875312Y-67205752D02*
X112827693Y-67300990D01*
X112827693Y-67300990D02*
X112780074Y-67348609D01*
X112780074Y-67348609D02*
X112684836Y-67396228D01*
X112684836Y-67396228D02*
X112303884Y-67396228D01*
X113303884Y-67872419D02*
X113303884Y-66872419D01*
X113303884Y-67348609D02*
X113875312Y-67348609D01*
X113875312Y-67872419D02*
X113875312Y-66872419D01*
X114351503Y-67872419D02*
X114351503Y-66872419D01*
X114780074Y-66967657D02*
X114827693Y-66920038D01*
X114827693Y-66920038D02*
X114922931Y-66872419D01*
X114922931Y-66872419D02*
X115161026Y-66872419D01*
X115161026Y-66872419D02*
X115256264Y-66920038D01*
X115256264Y-66920038D02*
X115303883Y-66967657D01*
X115303883Y-66967657D02*
X115351502Y-67062895D01*
X115351502Y-67062895D02*
X115351502Y-67158133D01*
X115351502Y-67158133D02*
X115303883Y-67300990D01*
X115303883Y-67300990D02*
X114732455Y-67872419D01*
X114732455Y-67872419D02*
X115351502Y-67872419D01*
X112256265Y-88086704D02*
X112732455Y-88086704D01*
X112161027Y-88372419D02*
X112494360Y-87372419D01*
X112494360Y-87372419D02*
X112827693Y-88372419D01*
X113589598Y-87705752D02*
X113589598Y-88372419D01*
X113351503Y-87324800D02*
X113113408Y-88039085D01*
X113113408Y-88039085D02*
X113732455Y-88039085D01*
X65303884Y-93872419D02*
X65303884Y-92872419D01*
X65303884Y-92872419D02*
X65684836Y-92872419D01*
X65684836Y-92872419D02*
X65780074Y-92920038D01*
X65780074Y-92920038D02*
X65827693Y-92967657D01*
X65827693Y-92967657D02*
X65875312Y-93062895D01*
X65875312Y-93062895D02*
X65875312Y-93205752D01*
X65875312Y-93205752D02*
X65827693Y-93300990D01*
X65827693Y-93300990D02*
X65780074Y-93348609D01*
X65780074Y-93348609D02*
X65684836Y-93396228D01*
X65684836Y-93396228D02*
X65303884Y-93396228D01*
X66827693Y-92920038D02*
X66732455Y-92872419D01*
X66732455Y-92872419D02*
X66589598Y-92872419D01*
X66589598Y-92872419D02*
X66446741Y-92920038D01*
X66446741Y-92920038D02*
X66351503Y-93015276D01*
X66351503Y-93015276D02*
X66303884Y-93110514D01*
X66303884Y-93110514D02*
X66256265Y-93300990D01*
X66256265Y-93300990D02*
X66256265Y-93443847D01*
X66256265Y-93443847D02*
X66303884Y-93634323D01*
X66303884Y-93634323D02*
X66351503Y-93729561D01*
X66351503Y-93729561D02*
X66446741Y-93824800D01*
X66446741Y-93824800D02*
X66589598Y-93872419D01*
X66589598Y-93872419D02*
X66684836Y-93872419D01*
X66684836Y-93872419D02*
X66827693Y-93824800D01*
X66827693Y-93824800D02*
X66875312Y-93777180D01*
X66875312Y-93777180D02*
X66875312Y-93443847D01*
X66875312Y-93443847D02*
X66684836Y-93443847D01*
X67256265Y-92967657D02*
X67303884Y-92920038D01*
X67303884Y-92920038D02*
X67399122Y-92872419D01*
X67399122Y-92872419D02*
X67637217Y-92872419D01*
X67637217Y-92872419D02*
X67732455Y-92920038D01*
X67732455Y-92920038D02*
X67780074Y-92967657D01*
X67780074Y-92967657D02*
X67827693Y-93062895D01*
X67827693Y-93062895D02*
X67827693Y-93158133D01*
X67827693Y-93158133D02*
X67780074Y-93300990D01*
X67780074Y-93300990D02*
X67208646Y-93872419D01*
X67208646Y-93872419D02*
X67827693Y-93872419D01*
X55803884Y-98872419D02*
X55803884Y-97872419D01*
X55803884Y-97872419D02*
X56184836Y-97872419D01*
X56184836Y-97872419D02*
X56280074Y-97920038D01*
X56280074Y-97920038D02*
X56327693Y-97967657D01*
X56327693Y-97967657D02*
X56375312Y-98062895D01*
X56375312Y-98062895D02*
X56375312Y-98205752D01*
X56375312Y-98205752D02*
X56327693Y-98300990D01*
X56327693Y-98300990D02*
X56280074Y-98348609D01*
X56280074Y-98348609D02*
X56184836Y-98396228D01*
X56184836Y-98396228D02*
X55803884Y-98396228D01*
X57375312Y-98777180D02*
X57327693Y-98824800D01*
X57327693Y-98824800D02*
X57184836Y-98872419D01*
X57184836Y-98872419D02*
X57089598Y-98872419D01*
X57089598Y-98872419D02*
X56946741Y-98824800D01*
X56946741Y-98824800D02*
X56851503Y-98729561D01*
X56851503Y-98729561D02*
X56803884Y-98634323D01*
X56803884Y-98634323D02*
X56756265Y-98443847D01*
X56756265Y-98443847D02*
X56756265Y-98300990D01*
X56756265Y-98300990D02*
X56803884Y-98110514D01*
X56803884Y-98110514D02*
X56851503Y-98015276D01*
X56851503Y-98015276D02*
X56946741Y-97920038D01*
X56946741Y-97920038D02*
X57089598Y-97872419D01*
X57089598Y-97872419D02*
X57184836Y-97872419D01*
X57184836Y-97872419D02*
X57327693Y-97920038D01*
X57327693Y-97920038D02*
X57375312Y-97967657D01*
X57708646Y-97872419D02*
X58375312Y-97872419D01*
X58375312Y-97872419D02*
X57946741Y-98872419D01*
X55803884Y-111872419D02*
X55803884Y-110872419D01*
X55803884Y-110872419D02*
X56184836Y-110872419D01*
X56184836Y-110872419D02*
X56280074Y-110920038D01*
X56280074Y-110920038D02*
X56327693Y-110967657D01*
X56327693Y-110967657D02*
X56375312Y-111062895D01*
X56375312Y-111062895D02*
X56375312Y-111205752D01*
X56375312Y-111205752D02*
X56327693Y-111300990D01*
X56327693Y-111300990D02*
X56280074Y-111348609D01*
X56280074Y-111348609D02*
X56184836Y-111396228D01*
X56184836Y-111396228D02*
X55803884Y-111396228D01*
X57280074Y-111872419D02*
X56803884Y-111872419D01*
X56803884Y-111872419D02*
X56803884Y-110872419D01*
X58089598Y-110872419D02*
X57613408Y-110872419D01*
X57613408Y-110872419D02*
X57565789Y-111348609D01*
X57565789Y-111348609D02*
X57613408Y-111300990D01*
X57613408Y-111300990D02*
X57708646Y-111253371D01*
X57708646Y-111253371D02*
X57946741Y-111253371D01*
X57946741Y-111253371D02*
X58041979Y-111300990D01*
X58041979Y-111300990D02*
X58089598Y-111348609D01*
X58089598Y-111348609D02*
X58137217Y-111443847D01*
X58137217Y-111443847D02*
X58137217Y-111681942D01*
X58137217Y-111681942D02*
X58089598Y-111777180D01*
X58089598Y-111777180D02*
X58041979Y-111824800D01*
X58041979Y-111824800D02*
X57946741Y-111872419D01*
X57946741Y-111872419D02*
X57708646Y-111872419D01*
X57708646Y-111872419D02*
X57613408Y-111824800D01*
X57613408Y-111824800D02*
X57565789Y-111777180D01*
X139803884Y-82872419D02*
X139803884Y-81872419D01*
X139803884Y-81872419D02*
X140041979Y-81872419D01*
X140041979Y-81872419D02*
X140184836Y-81920038D01*
X140184836Y-81920038D02*
X140280074Y-82015276D01*
X140280074Y-82015276D02*
X140327693Y-82110514D01*
X140327693Y-82110514D02*
X140375312Y-82300990D01*
X140375312Y-82300990D02*
X140375312Y-82443847D01*
X140375312Y-82443847D02*
X140327693Y-82634323D01*
X140327693Y-82634323D02*
X140280074Y-82729561D01*
X140280074Y-82729561D02*
X140184836Y-82824800D01*
X140184836Y-82824800D02*
X140041979Y-82872419D01*
X140041979Y-82872419D02*
X139803884Y-82872419D01*
X141137217Y-82348609D02*
X141280074Y-82396228D01*
X141280074Y-82396228D02*
X141327693Y-82443847D01*
X141327693Y-82443847D02*
X141375312Y-82539085D01*
X141375312Y-82539085D02*
X141375312Y-82681942D01*
X141375312Y-82681942D02*
X141327693Y-82777180D01*
X141327693Y-82777180D02*
X141280074Y-82824800D01*
X141280074Y-82824800D02*
X141184836Y-82872419D01*
X141184836Y-82872419D02*
X140803884Y-82872419D01*
X140803884Y-82872419D02*
X140803884Y-81872419D01*
X140803884Y-81872419D02*
X141137217Y-81872419D01*
X141137217Y-81872419D02*
X141232455Y-81920038D01*
X141232455Y-81920038D02*
X141280074Y-81967657D01*
X141280074Y-81967657D02*
X141327693Y-82062895D01*
X141327693Y-82062895D02*
X141327693Y-82158133D01*
X141327693Y-82158133D02*
X141280074Y-82253371D01*
X141280074Y-82253371D02*
X141232455Y-82300990D01*
X141232455Y-82300990D02*
X141137217Y-82348609D01*
X141137217Y-82348609D02*
X140803884Y-82348609D01*
X142327693Y-82872419D02*
X141756265Y-82872419D01*
X142041979Y-82872419D02*
X142041979Y-81872419D01*
X142041979Y-81872419D02*
X141946741Y-82015276D01*
X141946741Y-82015276D02*
X141851503Y-82110514D01*
X141851503Y-82110514D02*
X141756265Y-82158133D01*
X65303884Y-91372419D02*
X65303884Y-90372419D01*
X65303884Y-90372419D02*
X65684836Y-90372419D01*
X65684836Y-90372419D02*
X65780074Y-90420038D01*
X65780074Y-90420038D02*
X65827693Y-90467657D01*
X65827693Y-90467657D02*
X65875312Y-90562895D01*
X65875312Y-90562895D02*
X65875312Y-90705752D01*
X65875312Y-90705752D02*
X65827693Y-90800990D01*
X65827693Y-90800990D02*
X65780074Y-90848609D01*
X65780074Y-90848609D02*
X65684836Y-90896228D01*
X65684836Y-90896228D02*
X65303884Y-90896228D01*
X66303884Y-90848609D02*
X66637217Y-90848609D01*
X66780074Y-91372419D02*
X66303884Y-91372419D01*
X66303884Y-91372419D02*
X66303884Y-90372419D01*
X66303884Y-90372419D02*
X66780074Y-90372419D01*
X67637217Y-90705752D02*
X67637217Y-91372419D01*
X67399122Y-90324800D02*
X67161027Y-91039085D01*
X67161027Y-91039085D02*
X67780074Y-91039085D01*
X139803884Y-85372419D02*
X139803884Y-84372419D01*
X139803884Y-84372419D02*
X140041979Y-84372419D01*
X140041979Y-84372419D02*
X140184836Y-84420038D01*
X140184836Y-84420038D02*
X140280074Y-84515276D01*
X140280074Y-84515276D02*
X140327693Y-84610514D01*
X140327693Y-84610514D02*
X140375312Y-84800990D01*
X140375312Y-84800990D02*
X140375312Y-84943847D01*
X140375312Y-84943847D02*
X140327693Y-85134323D01*
X140327693Y-85134323D02*
X140280074Y-85229561D01*
X140280074Y-85229561D02*
X140184836Y-85324800D01*
X140184836Y-85324800D02*
X140041979Y-85372419D01*
X140041979Y-85372419D02*
X139803884Y-85372419D01*
X141137217Y-84848609D02*
X141280074Y-84896228D01*
X141280074Y-84896228D02*
X141327693Y-84943847D01*
X141327693Y-84943847D02*
X141375312Y-85039085D01*
X141375312Y-85039085D02*
X141375312Y-85181942D01*
X141375312Y-85181942D02*
X141327693Y-85277180D01*
X141327693Y-85277180D02*
X141280074Y-85324800D01*
X141280074Y-85324800D02*
X141184836Y-85372419D01*
X141184836Y-85372419D02*
X140803884Y-85372419D01*
X140803884Y-85372419D02*
X140803884Y-84372419D01*
X140803884Y-84372419D02*
X141137217Y-84372419D01*
X141137217Y-84372419D02*
X141232455Y-84420038D01*
X141232455Y-84420038D02*
X141280074Y-84467657D01*
X141280074Y-84467657D02*
X141327693Y-84562895D01*
X141327693Y-84562895D02*
X141327693Y-84658133D01*
X141327693Y-84658133D02*
X141280074Y-84753371D01*
X141280074Y-84753371D02*
X141232455Y-84800990D01*
X141232455Y-84800990D02*
X141137217Y-84848609D01*
X141137217Y-84848609D02*
X140803884Y-84848609D01*
X141756265Y-84467657D02*
X141803884Y-84420038D01*
X141803884Y-84420038D02*
X141899122Y-84372419D01*
X141899122Y-84372419D02*
X142137217Y-84372419D01*
X142137217Y-84372419D02*
X142232455Y-84420038D01*
X142232455Y-84420038D02*
X142280074Y-84467657D01*
X142280074Y-84467657D02*
X142327693Y-84562895D01*
X142327693Y-84562895D02*
X142327693Y-84658133D01*
X142327693Y-84658133D02*
X142280074Y-84800990D01*
X142280074Y-84800990D02*
X141708646Y-85372419D01*
X141708646Y-85372419D02*
X142327693Y-85372419D01*
X55803884Y-103872419D02*
X55803884Y-102872419D01*
X55803884Y-102872419D02*
X56184836Y-102872419D01*
X56184836Y-102872419D02*
X56280074Y-102920038D01*
X56280074Y-102920038D02*
X56327693Y-102967657D01*
X56327693Y-102967657D02*
X56375312Y-103062895D01*
X56375312Y-103062895D02*
X56375312Y-103205752D01*
X56375312Y-103205752D02*
X56327693Y-103300990D01*
X56327693Y-103300990D02*
X56280074Y-103348609D01*
X56280074Y-103348609D02*
X56184836Y-103396228D01*
X56184836Y-103396228D02*
X55803884Y-103396228D01*
X56803884Y-103872419D02*
X56803884Y-102872419D01*
X56803884Y-103348609D02*
X57375312Y-103348609D01*
X57375312Y-103872419D02*
X57375312Y-102872419D01*
X58280074Y-102872419D02*
X58089598Y-102872419D01*
X58089598Y-102872419D02*
X57994360Y-102920038D01*
X57994360Y-102920038D02*
X57946741Y-102967657D01*
X57946741Y-102967657D02*
X57851503Y-103110514D01*
X57851503Y-103110514D02*
X57803884Y-103300990D01*
X57803884Y-103300990D02*
X57803884Y-103681942D01*
X57803884Y-103681942D02*
X57851503Y-103777180D01*
X57851503Y-103777180D02*
X57899122Y-103824800D01*
X57899122Y-103824800D02*
X57994360Y-103872419D01*
X57994360Y-103872419D02*
X58184836Y-103872419D01*
X58184836Y-103872419D02*
X58280074Y-103824800D01*
X58280074Y-103824800D02*
X58327693Y-103777180D01*
X58327693Y-103777180D02*
X58375312Y-103681942D01*
X58375312Y-103681942D02*
X58375312Y-103443847D01*
X58375312Y-103443847D02*
X58327693Y-103348609D01*
X58327693Y-103348609D02*
X58280074Y-103300990D01*
X58280074Y-103300990D02*
X58184836Y-103253371D01*
X58184836Y-103253371D02*
X57994360Y-103253371D01*
X57994360Y-103253371D02*
X57899122Y-103300990D01*
X57899122Y-103300990D02*
X57851503Y-103348609D01*
X57851503Y-103348609D02*
X57803884Y-103443847D01*
X139803884Y-65372419D02*
X139803884Y-64372419D01*
X139803884Y-64372419D02*
X140184836Y-64372419D01*
X140184836Y-64372419D02*
X140280074Y-64420038D01*
X140280074Y-64420038D02*
X140327693Y-64467657D01*
X140327693Y-64467657D02*
X140375312Y-64562895D01*
X140375312Y-64562895D02*
X140375312Y-64705752D01*
X140375312Y-64705752D02*
X140327693Y-64800990D01*
X140327693Y-64800990D02*
X140280074Y-64848609D01*
X140280074Y-64848609D02*
X140184836Y-64896228D01*
X140184836Y-64896228D02*
X139803884Y-64896228D01*
X140756265Y-65086704D02*
X141232455Y-65086704D01*
X140661027Y-65372419D02*
X140994360Y-64372419D01*
X140994360Y-64372419D02*
X141327693Y-65372419D01*
X141613408Y-64467657D02*
X141661027Y-64420038D01*
X141661027Y-64420038D02*
X141756265Y-64372419D01*
X141756265Y-64372419D02*
X141994360Y-64372419D01*
X141994360Y-64372419D02*
X142089598Y-64420038D01*
X142089598Y-64420038D02*
X142137217Y-64467657D01*
X142137217Y-64467657D02*
X142184836Y-64562895D01*
X142184836Y-64562895D02*
X142184836Y-64658133D01*
X142184836Y-64658133D02*
X142137217Y-64800990D01*
X142137217Y-64800990D02*
X141565789Y-65372419D01*
X141565789Y-65372419D02*
X142184836Y-65372419D01*
X65303884Y-106372419D02*
X65303884Y-105372419D01*
X65303884Y-105372419D02*
X65684836Y-105372419D01*
X65684836Y-105372419D02*
X65780074Y-105420038D01*
X65780074Y-105420038D02*
X65827693Y-105467657D01*
X65827693Y-105467657D02*
X65875312Y-105562895D01*
X65875312Y-105562895D02*
X65875312Y-105705752D01*
X65875312Y-105705752D02*
X65827693Y-105800990D01*
X65827693Y-105800990D02*
X65780074Y-105848609D01*
X65780074Y-105848609D02*
X65684836Y-105896228D01*
X65684836Y-105896228D02*
X65303884Y-105896228D01*
X66303884Y-106372419D02*
X66303884Y-105372419D01*
X66303884Y-105848609D02*
X66875312Y-105848609D01*
X66875312Y-106372419D02*
X66875312Y-105372419D01*
X67256265Y-105372419D02*
X67875312Y-105372419D01*
X67875312Y-105372419D02*
X67541979Y-105753371D01*
X67541979Y-105753371D02*
X67684836Y-105753371D01*
X67684836Y-105753371D02*
X67780074Y-105800990D01*
X67780074Y-105800990D02*
X67827693Y-105848609D01*
X67827693Y-105848609D02*
X67875312Y-105943847D01*
X67875312Y-105943847D02*
X67875312Y-106181942D01*
X67875312Y-106181942D02*
X67827693Y-106277180D01*
X67827693Y-106277180D02*
X67780074Y-106324800D01*
X67780074Y-106324800D02*
X67684836Y-106372419D01*
X67684836Y-106372419D02*
X67399122Y-106372419D01*
X67399122Y-106372419D02*
X67303884Y-106324800D01*
X67303884Y-106324800D02*
X67256265Y-106277180D01*
X139803884Y-62872419D02*
X139803884Y-61872419D01*
X139803884Y-61872419D02*
X140184836Y-61872419D01*
X140184836Y-61872419D02*
X140280074Y-61920038D01*
X140280074Y-61920038D02*
X140327693Y-61967657D01*
X140327693Y-61967657D02*
X140375312Y-62062895D01*
X140375312Y-62062895D02*
X140375312Y-62205752D01*
X140375312Y-62205752D02*
X140327693Y-62300990D01*
X140327693Y-62300990D02*
X140280074Y-62348609D01*
X140280074Y-62348609D02*
X140184836Y-62396228D01*
X140184836Y-62396228D02*
X139803884Y-62396228D01*
X140756265Y-62586704D02*
X141232455Y-62586704D01*
X140661027Y-62872419D02*
X140994360Y-61872419D01*
X140994360Y-61872419D02*
X141327693Y-62872419D01*
X142184836Y-62872419D02*
X141613408Y-62872419D01*
X141899122Y-62872419D02*
X141899122Y-61872419D01*
X141899122Y-61872419D02*
X141803884Y-62015276D01*
X141803884Y-62015276D02*
X141708646Y-62110514D01*
X141708646Y-62110514D02*
X141613408Y-62158133D01*
X65303884Y-103872419D02*
X65303884Y-102872419D01*
X65303884Y-102872419D02*
X65684836Y-102872419D01*
X65684836Y-102872419D02*
X65780074Y-102920038D01*
X65780074Y-102920038D02*
X65827693Y-102967657D01*
X65827693Y-102967657D02*
X65875312Y-103062895D01*
X65875312Y-103062895D02*
X65875312Y-103205752D01*
X65875312Y-103205752D02*
X65827693Y-103300990D01*
X65827693Y-103300990D02*
X65780074Y-103348609D01*
X65780074Y-103348609D02*
X65684836Y-103396228D01*
X65684836Y-103396228D02*
X65303884Y-103396228D01*
X66303884Y-103872419D02*
X66303884Y-102872419D01*
X66303884Y-103348609D02*
X66875312Y-103348609D01*
X66875312Y-103872419D02*
X66875312Y-102872419D01*
X67827693Y-102872419D02*
X67351503Y-102872419D01*
X67351503Y-102872419D02*
X67303884Y-103348609D01*
X67303884Y-103348609D02*
X67351503Y-103300990D01*
X67351503Y-103300990D02*
X67446741Y-103253371D01*
X67446741Y-103253371D02*
X67684836Y-103253371D01*
X67684836Y-103253371D02*
X67780074Y-103300990D01*
X67780074Y-103300990D02*
X67827693Y-103348609D01*
X67827693Y-103348609D02*
X67875312Y-103443847D01*
X67875312Y-103443847D02*
X67875312Y-103681942D01*
X67875312Y-103681942D02*
X67827693Y-103777180D01*
X67827693Y-103777180D02*
X67780074Y-103824800D01*
X67780074Y-103824800D02*
X67684836Y-103872419D01*
X67684836Y-103872419D02*
X67446741Y-103872419D01*
X67446741Y-103872419D02*
X67351503Y-103824800D01*
X67351503Y-103824800D02*
X67303884Y-103777180D01*
X65303884Y-101372419D02*
X65303884Y-100372419D01*
X65303884Y-100372419D02*
X65684836Y-100372419D01*
X65684836Y-100372419D02*
X65780074Y-100420038D01*
X65780074Y-100420038D02*
X65827693Y-100467657D01*
X65827693Y-100467657D02*
X65875312Y-100562895D01*
X65875312Y-100562895D02*
X65875312Y-100705752D01*
X65875312Y-100705752D02*
X65827693Y-100800990D01*
X65827693Y-100800990D02*
X65780074Y-100848609D01*
X65780074Y-100848609D02*
X65684836Y-100896228D01*
X65684836Y-100896228D02*
X65303884Y-100896228D01*
X66303884Y-101372419D02*
X66303884Y-100372419D01*
X66303884Y-100372419D02*
X66541979Y-100372419D01*
X66541979Y-100372419D02*
X66684836Y-100420038D01*
X66684836Y-100420038D02*
X66780074Y-100515276D01*
X66780074Y-100515276D02*
X66827693Y-100610514D01*
X66827693Y-100610514D02*
X66875312Y-100800990D01*
X66875312Y-100800990D02*
X66875312Y-100943847D01*
X66875312Y-100943847D02*
X66827693Y-101134323D01*
X66827693Y-101134323D02*
X66780074Y-101229561D01*
X66780074Y-101229561D02*
X66684836Y-101324800D01*
X66684836Y-101324800D02*
X66541979Y-101372419D01*
X66541979Y-101372419D02*
X66303884Y-101372419D01*
X67208646Y-100372419D02*
X67875312Y-100372419D01*
X67875312Y-100372419D02*
X67446741Y-101372419D01*
X65303884Y-111872419D02*
X65303884Y-110872419D01*
X65303884Y-110872419D02*
X65684836Y-110872419D01*
X65684836Y-110872419D02*
X65780074Y-110920038D01*
X65780074Y-110920038D02*
X65827693Y-110967657D01*
X65827693Y-110967657D02*
X65875312Y-111062895D01*
X65875312Y-111062895D02*
X65875312Y-111205752D01*
X65875312Y-111205752D02*
X65827693Y-111300990D01*
X65827693Y-111300990D02*
X65780074Y-111348609D01*
X65780074Y-111348609D02*
X65684836Y-111396228D01*
X65684836Y-111396228D02*
X65303884Y-111396228D01*
X66780074Y-111872419D02*
X66303884Y-111872419D01*
X66303884Y-111872419D02*
X66303884Y-110872419D01*
X67541979Y-111205752D02*
X67541979Y-111872419D01*
X67303884Y-110824800D02*
X67065789Y-111539085D01*
X67065789Y-111539085D02*
X67684836Y-111539085D01*
X65303884Y-88872419D02*
X65303884Y-87872419D01*
X65303884Y-87872419D02*
X65684836Y-87872419D01*
X65684836Y-87872419D02*
X65780074Y-87920038D01*
X65780074Y-87920038D02*
X65827693Y-87967657D01*
X65827693Y-87967657D02*
X65875312Y-88062895D01*
X65875312Y-88062895D02*
X65875312Y-88205752D01*
X65875312Y-88205752D02*
X65827693Y-88300990D01*
X65827693Y-88300990D02*
X65780074Y-88348609D01*
X65780074Y-88348609D02*
X65684836Y-88396228D01*
X65684836Y-88396228D02*
X65303884Y-88396228D01*
X66303884Y-88348609D02*
X66637217Y-88348609D01*
X66780074Y-88872419D02*
X66303884Y-88872419D01*
X66303884Y-88872419D02*
X66303884Y-87872419D01*
X66303884Y-87872419D02*
X66780074Y-87872419D01*
X67732455Y-88872419D02*
X67161027Y-88872419D01*
X67446741Y-88872419D02*
X67446741Y-87872419D01*
X67446741Y-87872419D02*
X67351503Y-88015276D01*
X67351503Y-88015276D02*
X67256265Y-88110514D01*
X67256265Y-88110514D02*
X67161027Y-88158133D01*
X55803884Y-93872419D02*
X55803884Y-92872419D01*
X55803884Y-92872419D02*
X56184836Y-92872419D01*
X56184836Y-92872419D02*
X56280074Y-92920038D01*
X56280074Y-92920038D02*
X56327693Y-92967657D01*
X56327693Y-92967657D02*
X56375312Y-93062895D01*
X56375312Y-93062895D02*
X56375312Y-93205752D01*
X56375312Y-93205752D02*
X56327693Y-93300990D01*
X56327693Y-93300990D02*
X56280074Y-93348609D01*
X56280074Y-93348609D02*
X56184836Y-93396228D01*
X56184836Y-93396228D02*
X55803884Y-93396228D01*
X56803884Y-93348609D02*
X57137217Y-93348609D01*
X57280074Y-93872419D02*
X56803884Y-93872419D01*
X56803884Y-93872419D02*
X56803884Y-92872419D01*
X56803884Y-92872419D02*
X57280074Y-92872419D01*
X58184836Y-92872419D02*
X57708646Y-92872419D01*
X57708646Y-92872419D02*
X57661027Y-93348609D01*
X57661027Y-93348609D02*
X57708646Y-93300990D01*
X57708646Y-93300990D02*
X57803884Y-93253371D01*
X57803884Y-93253371D02*
X58041979Y-93253371D01*
X58041979Y-93253371D02*
X58137217Y-93300990D01*
X58137217Y-93300990D02*
X58184836Y-93348609D01*
X58184836Y-93348609D02*
X58232455Y-93443847D01*
X58232455Y-93443847D02*
X58232455Y-93681942D01*
X58232455Y-93681942D02*
X58184836Y-93777180D01*
X58184836Y-93777180D02*
X58137217Y-93824800D01*
X58137217Y-93824800D02*
X58041979Y-93872419D01*
X58041979Y-93872419D02*
X57803884Y-93872419D01*
X57803884Y-93872419D02*
X57708646Y-93824800D01*
X57708646Y-93824800D02*
X57661027Y-93777180D01*
X112256265Y-98086704D02*
X112732455Y-98086704D01*
X112161027Y-98372419D02*
X112494360Y-97372419D01*
X112494360Y-97372419D02*
X112827693Y-98372419D01*
X113351503Y-97372419D02*
X113446741Y-97372419D01*
X113446741Y-97372419D02*
X113541979Y-97420038D01*
X113541979Y-97420038D02*
X113589598Y-97467657D01*
X113589598Y-97467657D02*
X113637217Y-97562895D01*
X113637217Y-97562895D02*
X113684836Y-97753371D01*
X113684836Y-97753371D02*
X113684836Y-97991466D01*
X113684836Y-97991466D02*
X113637217Y-98181942D01*
X113637217Y-98181942D02*
X113589598Y-98277180D01*
X113589598Y-98277180D02*
X113541979Y-98324800D01*
X113541979Y-98324800D02*
X113446741Y-98372419D01*
X113446741Y-98372419D02*
X113351503Y-98372419D01*
X113351503Y-98372419D02*
X113256265Y-98324800D01*
X113256265Y-98324800D02*
X113208646Y-98277180D01*
X113208646Y-98277180D02*
X113161027Y-98181942D01*
X113161027Y-98181942D02*
X113113408Y-97991466D01*
X113113408Y-97991466D02*
X113113408Y-97753371D01*
X113113408Y-97753371D02*
X113161027Y-97562895D01*
X113161027Y-97562895D02*
X113208646Y-97467657D01*
X113208646Y-97467657D02*
X113256265Y-97420038D01*
X113256265Y-97420038D02*
X113351503Y-97372419D01*
X109375312Y-105777180D02*
X109327693Y-105824800D01*
X109327693Y-105824800D02*
X109184836Y-105872419D01*
X109184836Y-105872419D02*
X109089598Y-105872419D01*
X109089598Y-105872419D02*
X108946741Y-105824800D01*
X108946741Y-105824800D02*
X108851503Y-105729561D01*
X108851503Y-105729561D02*
X108803884Y-105634323D01*
X108803884Y-105634323D02*
X108756265Y-105443847D01*
X108756265Y-105443847D02*
X108756265Y-105300990D01*
X108756265Y-105300990D02*
X108803884Y-105110514D01*
X108803884Y-105110514D02*
X108851503Y-105015276D01*
X108851503Y-105015276D02*
X108946741Y-104920038D01*
X108946741Y-104920038D02*
X109089598Y-104872419D01*
X109089598Y-104872419D02*
X109184836Y-104872419D01*
X109184836Y-104872419D02*
X109327693Y-104920038D01*
X109327693Y-104920038D02*
X109375312Y-104967657D01*
X109756265Y-105824800D02*
X109899122Y-105872419D01*
X109899122Y-105872419D02*
X110137217Y-105872419D01*
X110137217Y-105872419D02*
X110232455Y-105824800D01*
X110232455Y-105824800D02*
X110280074Y-105777180D01*
X110280074Y-105777180D02*
X110327693Y-105681942D01*
X110327693Y-105681942D02*
X110327693Y-105586704D01*
X110327693Y-105586704D02*
X110280074Y-105491466D01*
X110280074Y-105491466D02*
X110232455Y-105443847D01*
X110232455Y-105443847D02*
X110137217Y-105396228D01*
X110137217Y-105396228D02*
X109946741Y-105348609D01*
X109946741Y-105348609D02*
X109851503Y-105300990D01*
X109851503Y-105300990D02*
X109803884Y-105253371D01*
X109803884Y-105253371D02*
X109756265Y-105158133D01*
X109756265Y-105158133D02*
X109756265Y-105062895D01*
X109756265Y-105062895D02*
X109803884Y-104967657D01*
X109803884Y-104967657D02*
X109851503Y-104920038D01*
X109851503Y-104920038D02*
X109946741Y-104872419D01*
X109946741Y-104872419D02*
X110184836Y-104872419D01*
X110184836Y-104872419D02*
X110327693Y-104920038D01*
X111280074Y-105872419D02*
X110708646Y-105872419D01*
X110994360Y-105872419D02*
X110994360Y-104872419D01*
X110994360Y-104872419D02*
X110899122Y-105015276D01*
X110899122Y-105015276D02*
X110803884Y-105110514D01*
X110803884Y-105110514D02*
X110708646Y-105158133D01*
X111470551Y-105967657D02*
X112232455Y-105967657D01*
X112470551Y-105872419D02*
X112470551Y-104872419D01*
X112470551Y-104872419D02*
X112851503Y-104872419D01*
X112851503Y-104872419D02*
X112946741Y-104920038D01*
X112946741Y-104920038D02*
X112994360Y-104967657D01*
X112994360Y-104967657D02*
X113041979Y-105062895D01*
X113041979Y-105062895D02*
X113041979Y-105205752D01*
X113041979Y-105205752D02*
X112994360Y-105300990D01*
X112994360Y-105300990D02*
X112946741Y-105348609D01*
X112946741Y-105348609D02*
X112851503Y-105396228D01*
X112851503Y-105396228D02*
X112470551Y-105396228D01*
X113803884Y-105348609D02*
X113946741Y-105396228D01*
X113946741Y-105396228D02*
X113994360Y-105443847D01*
X113994360Y-105443847D02*
X114041979Y-105539085D01*
X114041979Y-105539085D02*
X114041979Y-105681942D01*
X114041979Y-105681942D02*
X113994360Y-105777180D01*
X113994360Y-105777180D02*
X113946741Y-105824800D01*
X113946741Y-105824800D02*
X113851503Y-105872419D01*
X113851503Y-105872419D02*
X113470551Y-105872419D01*
X113470551Y-105872419D02*
X113470551Y-104872419D01*
X113470551Y-104872419D02*
X113803884Y-104872419D01*
X113803884Y-104872419D02*
X113899122Y-104920038D01*
X113899122Y-104920038D02*
X113946741Y-104967657D01*
X113946741Y-104967657D02*
X113994360Y-105062895D01*
X113994360Y-105062895D02*
X113994360Y-105158133D01*
X113994360Y-105158133D02*
X113946741Y-105253371D01*
X113946741Y-105253371D02*
X113899122Y-105300990D01*
X113899122Y-105300990D02*
X113803884Y-105348609D01*
X113803884Y-105348609D02*
X113470551Y-105348609D01*
X114899122Y-104872419D02*
X114708646Y-104872419D01*
X114708646Y-104872419D02*
X114613408Y-104920038D01*
X114613408Y-104920038D02*
X114565789Y-104967657D01*
X114565789Y-104967657D02*
X114470551Y-105110514D01*
X114470551Y-105110514D02*
X114422932Y-105300990D01*
X114422932Y-105300990D02*
X114422932Y-105681942D01*
X114422932Y-105681942D02*
X114470551Y-105777180D01*
X114470551Y-105777180D02*
X114518170Y-105824800D01*
X114518170Y-105824800D02*
X114613408Y-105872419D01*
X114613408Y-105872419D02*
X114803884Y-105872419D01*
X114803884Y-105872419D02*
X114899122Y-105824800D01*
X114899122Y-105824800D02*
X114946741Y-105777180D01*
X114946741Y-105777180D02*
X114994360Y-105681942D01*
X114994360Y-105681942D02*
X114994360Y-105443847D01*
X114994360Y-105443847D02*
X114946741Y-105348609D01*
X114946741Y-105348609D02*
X114899122Y-105300990D01*
X114899122Y-105300990D02*
X114803884Y-105253371D01*
X114803884Y-105253371D02*
X114613408Y-105253371D01*
X114613408Y-105253371D02*
X114518170Y-105300990D01*
X114518170Y-105300990D02*
X114470551Y-105348609D01*
X114470551Y-105348609D02*
X114422932Y-105443847D01*
X139803884Y-70372419D02*
X139803884Y-69372419D01*
X139803884Y-69372419D02*
X140184836Y-69372419D01*
X140184836Y-69372419D02*
X140280074Y-69420038D01*
X140280074Y-69420038D02*
X140327693Y-69467657D01*
X140327693Y-69467657D02*
X140375312Y-69562895D01*
X140375312Y-69562895D02*
X140375312Y-69705752D01*
X140375312Y-69705752D02*
X140327693Y-69800990D01*
X140327693Y-69800990D02*
X140280074Y-69848609D01*
X140280074Y-69848609D02*
X140184836Y-69896228D01*
X140184836Y-69896228D02*
X139803884Y-69896228D01*
X140756265Y-70086704D02*
X141232455Y-70086704D01*
X140661027Y-70372419D02*
X140994360Y-69372419D01*
X140994360Y-69372419D02*
X141327693Y-70372419D01*
X142089598Y-69705752D02*
X142089598Y-70372419D01*
X141851503Y-69324800D02*
X141613408Y-70039085D01*
X141613408Y-70039085D02*
X142232455Y-70039085D01*
X112256265Y-75086704D02*
X112732455Y-75086704D01*
X112161027Y-75372419D02*
X112494360Y-74372419D01*
X112494360Y-74372419D02*
X112827693Y-75372419D01*
X113303884Y-74800990D02*
X113208646Y-74753371D01*
X113208646Y-74753371D02*
X113161027Y-74705752D01*
X113161027Y-74705752D02*
X113113408Y-74610514D01*
X113113408Y-74610514D02*
X113113408Y-74562895D01*
X113113408Y-74562895D02*
X113161027Y-74467657D01*
X113161027Y-74467657D02*
X113208646Y-74420038D01*
X113208646Y-74420038D02*
X113303884Y-74372419D01*
X113303884Y-74372419D02*
X113494360Y-74372419D01*
X113494360Y-74372419D02*
X113589598Y-74420038D01*
X113589598Y-74420038D02*
X113637217Y-74467657D01*
X113637217Y-74467657D02*
X113684836Y-74562895D01*
X113684836Y-74562895D02*
X113684836Y-74610514D01*
X113684836Y-74610514D02*
X113637217Y-74705752D01*
X113637217Y-74705752D02*
X113589598Y-74753371D01*
X113589598Y-74753371D02*
X113494360Y-74800990D01*
X113494360Y-74800990D02*
X113303884Y-74800990D01*
X113303884Y-74800990D02*
X113208646Y-74848609D01*
X113208646Y-74848609D02*
X113161027Y-74896228D01*
X113161027Y-74896228D02*
X113113408Y-74991466D01*
X113113408Y-74991466D02*
X113113408Y-75181942D01*
X113113408Y-75181942D02*
X113161027Y-75277180D01*
X113161027Y-75277180D02*
X113208646Y-75324800D01*
X113208646Y-75324800D02*
X113303884Y-75372419D01*
X113303884Y-75372419D02*
X113494360Y-75372419D01*
X113494360Y-75372419D02*
X113589598Y-75324800D01*
X113589598Y-75324800D02*
X113637217Y-75277180D01*
X113637217Y-75277180D02*
X113684836Y-75181942D01*
X113684836Y-75181942D02*
X113684836Y-74991466D01*
X113684836Y-74991466D02*
X113637217Y-74896228D01*
X113637217Y-74896228D02*
X113589598Y-74848609D01*
X113589598Y-74848609D02*
X113494360Y-74800990D01*
X112256265Y-95586704D02*
X112732455Y-95586704D01*
X112161027Y-95872419D02*
X112494360Y-94872419D01*
X112494360Y-94872419D02*
X112827693Y-95872419D01*
X113684836Y-95872419D02*
X113113408Y-95872419D01*
X113399122Y-95872419D02*
X113399122Y-94872419D01*
X113399122Y-94872419D02*
X113303884Y-95015276D01*
X113303884Y-95015276D02*
X113208646Y-95110514D01*
X113208646Y-95110514D02*
X113113408Y-95158133D01*
X139803884Y-77872419D02*
X139803884Y-76872419D01*
X139803884Y-76872419D02*
X140184836Y-76872419D01*
X140184836Y-76872419D02*
X140280074Y-76920038D01*
X140280074Y-76920038D02*
X140327693Y-76967657D01*
X140327693Y-76967657D02*
X140375312Y-77062895D01*
X140375312Y-77062895D02*
X140375312Y-77205752D01*
X140375312Y-77205752D02*
X140327693Y-77300990D01*
X140327693Y-77300990D02*
X140280074Y-77348609D01*
X140280074Y-77348609D02*
X140184836Y-77396228D01*
X140184836Y-77396228D02*
X139803884Y-77396228D01*
X140756265Y-77586704D02*
X141232455Y-77586704D01*
X140661027Y-77872419D02*
X140994360Y-76872419D01*
X140994360Y-76872419D02*
X141327693Y-77872419D01*
X141565789Y-76872419D02*
X142232455Y-76872419D01*
X142232455Y-76872419D02*
X141803884Y-77872419D01*
X109780074Y-109872419D02*
X109303884Y-109872419D01*
X109303884Y-109872419D02*
X109256265Y-110348609D01*
X109256265Y-110348609D02*
X109303884Y-110300990D01*
X109303884Y-110300990D02*
X109399122Y-110253371D01*
X109399122Y-110253371D02*
X109637217Y-110253371D01*
X109637217Y-110253371D02*
X109732455Y-110300990D01*
X109732455Y-110300990D02*
X109780074Y-110348609D01*
X109780074Y-110348609D02*
X109827693Y-110443847D01*
X109827693Y-110443847D02*
X109827693Y-110681942D01*
X109827693Y-110681942D02*
X109780074Y-110777180D01*
X109780074Y-110777180D02*
X109732455Y-110824800D01*
X109732455Y-110824800D02*
X109637217Y-110872419D01*
X109637217Y-110872419D02*
X109399122Y-110872419D01*
X109399122Y-110872419D02*
X109303884Y-110824800D01*
X109303884Y-110824800D02*
X109256265Y-110777180D01*
X110113408Y-109872419D02*
X110446741Y-110872419D01*
X110446741Y-110872419D02*
X110780074Y-109872419D01*
X112875312Y-70372419D02*
X112541979Y-69896228D01*
X112303884Y-70372419D02*
X112303884Y-69372419D01*
X112303884Y-69372419D02*
X112684836Y-69372419D01*
X112684836Y-69372419D02*
X112780074Y-69420038D01*
X112780074Y-69420038D02*
X112827693Y-69467657D01*
X112827693Y-69467657D02*
X112875312Y-69562895D01*
X112875312Y-69562895D02*
X112875312Y-69705752D01*
X112875312Y-69705752D02*
X112827693Y-69800990D01*
X112827693Y-69800990D02*
X112780074Y-69848609D01*
X112780074Y-69848609D02*
X112684836Y-69896228D01*
X112684836Y-69896228D02*
X112303884Y-69896228D01*
X113256265Y-70324800D02*
X113399122Y-70372419D01*
X113399122Y-70372419D02*
X113637217Y-70372419D01*
X113637217Y-70372419D02*
X113732455Y-70324800D01*
X113732455Y-70324800D02*
X113780074Y-70277180D01*
X113780074Y-70277180D02*
X113827693Y-70181942D01*
X113827693Y-70181942D02*
X113827693Y-70086704D01*
X113827693Y-70086704D02*
X113780074Y-69991466D01*
X113780074Y-69991466D02*
X113732455Y-69943847D01*
X113732455Y-69943847D02*
X113637217Y-69896228D01*
X113637217Y-69896228D02*
X113446741Y-69848609D01*
X113446741Y-69848609D02*
X113351503Y-69800990D01*
X113351503Y-69800990D02*
X113303884Y-69753371D01*
X113303884Y-69753371D02*
X113256265Y-69658133D01*
X113256265Y-69658133D02*
X113256265Y-69562895D01*
X113256265Y-69562895D02*
X113303884Y-69467657D01*
X113303884Y-69467657D02*
X113351503Y-69420038D01*
X113351503Y-69420038D02*
X113446741Y-69372419D01*
X113446741Y-69372419D02*
X113684836Y-69372419D01*
X113684836Y-69372419D02*
X113827693Y-69420038D01*
X114446741Y-69372419D02*
X114541979Y-69372419D01*
X114541979Y-69372419D02*
X114637217Y-69420038D01*
X114637217Y-69420038D02*
X114684836Y-69467657D01*
X114684836Y-69467657D02*
X114732455Y-69562895D01*
X114732455Y-69562895D02*
X114780074Y-69753371D01*
X114780074Y-69753371D02*
X114780074Y-69991466D01*
X114780074Y-69991466D02*
X114732455Y-70181942D01*
X114732455Y-70181942D02*
X114684836Y-70277180D01*
X114684836Y-70277180D02*
X114637217Y-70324800D01*
X114637217Y-70324800D02*
X114541979Y-70372419D01*
X114541979Y-70372419D02*
X114446741Y-70372419D01*
X114446741Y-70372419D02*
X114351503Y-70324800D01*
X114351503Y-70324800D02*
X114303884Y-70277180D01*
X114303884Y-70277180D02*
X114256265Y-70181942D01*
X114256265Y-70181942D02*
X114208646Y-69991466D01*
X114208646Y-69991466D02*
X114208646Y-69753371D01*
X114208646Y-69753371D02*
X114256265Y-69562895D01*
X114256265Y-69562895D02*
X114303884Y-69467657D01*
X114303884Y-69467657D02*
X114351503Y-69420038D01*
X114351503Y-69420038D02*
X114446741Y-69372419D01*
X106827693Y-61420038D02*
X106732455Y-61372419D01*
X106732455Y-61372419D02*
X106589598Y-61372419D01*
X106589598Y-61372419D02*
X106446741Y-61420038D01*
X106446741Y-61420038D02*
X106351503Y-61515276D01*
X106351503Y-61515276D02*
X106303884Y-61610514D01*
X106303884Y-61610514D02*
X106256265Y-61800990D01*
X106256265Y-61800990D02*
X106256265Y-61943847D01*
X106256265Y-61943847D02*
X106303884Y-62134323D01*
X106303884Y-62134323D02*
X106351503Y-62229561D01*
X106351503Y-62229561D02*
X106446741Y-62324800D01*
X106446741Y-62324800D02*
X106589598Y-62372419D01*
X106589598Y-62372419D02*
X106684836Y-62372419D01*
X106684836Y-62372419D02*
X106827693Y-62324800D01*
X106827693Y-62324800D02*
X106875312Y-62277180D01*
X106875312Y-62277180D02*
X106875312Y-61943847D01*
X106875312Y-61943847D02*
X106684836Y-61943847D01*
X107303884Y-62372419D02*
X107303884Y-61372419D01*
X107303884Y-61372419D02*
X107875312Y-62372419D01*
X107875312Y-62372419D02*
X107875312Y-61372419D01*
X108351503Y-62372419D02*
X108351503Y-61372419D01*
X108351503Y-61372419D02*
X108589598Y-61372419D01*
X108589598Y-61372419D02*
X108732455Y-61420038D01*
X108732455Y-61420038D02*
X108827693Y-61515276D01*
X108827693Y-61515276D02*
X108875312Y-61610514D01*
X108875312Y-61610514D02*
X108922931Y-61800990D01*
X108922931Y-61800990D02*
X108922931Y-61943847D01*
X108922931Y-61943847D02*
X108875312Y-62134323D01*
X108875312Y-62134323D02*
X108827693Y-62229561D01*
X108827693Y-62229561D02*
X108732455Y-62324800D01*
X108732455Y-62324800D02*
X108589598Y-62372419D01*
X108589598Y-62372419D02*
X108351503Y-62372419D01*
X109303884Y-103872419D02*
X109303884Y-102872419D01*
X110351502Y-103872419D02*
X110018169Y-103396228D01*
X109780074Y-103872419D02*
X109780074Y-102872419D01*
X109780074Y-102872419D02*
X110161026Y-102872419D01*
X110161026Y-102872419D02*
X110256264Y-102920038D01*
X110256264Y-102920038D02*
X110303883Y-102967657D01*
X110303883Y-102967657D02*
X110351502Y-103062895D01*
X110351502Y-103062895D02*
X110351502Y-103205752D01*
X110351502Y-103205752D02*
X110303883Y-103300990D01*
X110303883Y-103300990D02*
X110256264Y-103348609D01*
X110256264Y-103348609D02*
X110161026Y-103396228D01*
X110161026Y-103396228D02*
X109780074Y-103396228D01*
X111446740Y-103967657D02*
X111351502Y-103920038D01*
X111351502Y-103920038D02*
X111256264Y-103824800D01*
X111256264Y-103824800D02*
X111113407Y-103681942D01*
X111113407Y-103681942D02*
X111018169Y-103634323D01*
X111018169Y-103634323D02*
X110922931Y-103634323D01*
X110970550Y-103872419D02*
X110875312Y-103824800D01*
X110875312Y-103824800D02*
X110780074Y-103729561D01*
X110780074Y-103729561D02*
X110732455Y-103539085D01*
X110732455Y-103539085D02*
X110732455Y-103205752D01*
X110732455Y-103205752D02*
X110780074Y-103015276D01*
X110780074Y-103015276D02*
X110875312Y-102920038D01*
X110875312Y-102920038D02*
X110970550Y-102872419D01*
X110970550Y-102872419D02*
X111161026Y-102872419D01*
X111161026Y-102872419D02*
X111256264Y-102920038D01*
X111256264Y-102920038D02*
X111351502Y-103015276D01*
X111351502Y-103015276D02*
X111399121Y-103205752D01*
X111399121Y-103205752D02*
X111399121Y-103539085D01*
X111399121Y-103539085D02*
X111351502Y-103729561D01*
X111351502Y-103729561D02*
X111256264Y-103824800D01*
X111256264Y-103824800D02*
X111161026Y-103872419D01*
X111161026Y-103872419D02*
X110970550Y-103872419D01*
X111589598Y-103967657D02*
X112351502Y-103967657D01*
X112589598Y-103872419D02*
X112589598Y-102872419D01*
X112589598Y-102872419D02*
X112970550Y-102872419D01*
X112970550Y-102872419D02*
X113065788Y-102920038D01*
X113065788Y-102920038D02*
X113113407Y-102967657D01*
X113113407Y-102967657D02*
X113161026Y-103062895D01*
X113161026Y-103062895D02*
X113161026Y-103205752D01*
X113161026Y-103205752D02*
X113113407Y-103300990D01*
X113113407Y-103300990D02*
X113065788Y-103348609D01*
X113065788Y-103348609D02*
X112970550Y-103396228D01*
X112970550Y-103396228D02*
X112589598Y-103396228D01*
X113922931Y-103348609D02*
X114065788Y-103396228D01*
X114065788Y-103396228D02*
X114113407Y-103443847D01*
X114113407Y-103443847D02*
X114161026Y-103539085D01*
X114161026Y-103539085D02*
X114161026Y-103681942D01*
X114161026Y-103681942D02*
X114113407Y-103777180D01*
X114113407Y-103777180D02*
X114065788Y-103824800D01*
X114065788Y-103824800D02*
X113970550Y-103872419D01*
X113970550Y-103872419D02*
X113589598Y-103872419D01*
X113589598Y-103872419D02*
X113589598Y-102872419D01*
X113589598Y-102872419D02*
X113922931Y-102872419D01*
X113922931Y-102872419D02*
X114018169Y-102920038D01*
X114018169Y-102920038D02*
X114065788Y-102967657D01*
X114065788Y-102967657D02*
X114113407Y-103062895D01*
X114113407Y-103062895D02*
X114113407Y-103158133D01*
X114113407Y-103158133D02*
X114065788Y-103253371D01*
X114065788Y-103253371D02*
X114018169Y-103300990D01*
X114018169Y-103300990D02*
X113922931Y-103348609D01*
X113922931Y-103348609D02*
X113589598Y-103348609D01*
X114494360Y-102872419D02*
X115161026Y-102872419D01*
X115161026Y-102872419D02*
X114732455Y-103872419D01*
X139803884Y-98372419D02*
X139803884Y-97372419D01*
X139803884Y-97372419D02*
X140041979Y-97372419D01*
X140041979Y-97372419D02*
X140184836Y-97420038D01*
X140184836Y-97420038D02*
X140280074Y-97515276D01*
X140280074Y-97515276D02*
X140327693Y-97610514D01*
X140327693Y-97610514D02*
X140375312Y-97800990D01*
X140375312Y-97800990D02*
X140375312Y-97943847D01*
X140375312Y-97943847D02*
X140327693Y-98134323D01*
X140327693Y-98134323D02*
X140280074Y-98229561D01*
X140280074Y-98229561D02*
X140184836Y-98324800D01*
X140184836Y-98324800D02*
X140041979Y-98372419D01*
X140041979Y-98372419D02*
X139803884Y-98372419D01*
X141137217Y-97848609D02*
X141280074Y-97896228D01*
X141280074Y-97896228D02*
X141327693Y-97943847D01*
X141327693Y-97943847D02*
X141375312Y-98039085D01*
X141375312Y-98039085D02*
X141375312Y-98181942D01*
X141375312Y-98181942D02*
X141327693Y-98277180D01*
X141327693Y-98277180D02*
X141280074Y-98324800D01*
X141280074Y-98324800D02*
X141184836Y-98372419D01*
X141184836Y-98372419D02*
X140803884Y-98372419D01*
X140803884Y-98372419D02*
X140803884Y-97372419D01*
X140803884Y-97372419D02*
X141137217Y-97372419D01*
X141137217Y-97372419D02*
X141232455Y-97420038D01*
X141232455Y-97420038D02*
X141280074Y-97467657D01*
X141280074Y-97467657D02*
X141327693Y-97562895D01*
X141327693Y-97562895D02*
X141327693Y-97658133D01*
X141327693Y-97658133D02*
X141280074Y-97753371D01*
X141280074Y-97753371D02*
X141232455Y-97800990D01*
X141232455Y-97800990D02*
X141137217Y-97848609D01*
X141137217Y-97848609D02*
X140803884Y-97848609D01*
X141708646Y-97372419D02*
X142375312Y-97372419D01*
X142375312Y-97372419D02*
X141946741Y-98372419D01*
X139803884Y-108372419D02*
X139803884Y-107372419D01*
X139803884Y-107372419D02*
X140184836Y-107372419D01*
X140184836Y-107372419D02*
X140280074Y-107420038D01*
X140280074Y-107420038D02*
X140327693Y-107467657D01*
X140327693Y-107467657D02*
X140375312Y-107562895D01*
X140375312Y-107562895D02*
X140375312Y-107705752D01*
X140375312Y-107705752D02*
X140327693Y-107800990D01*
X140327693Y-107800990D02*
X140280074Y-107848609D01*
X140280074Y-107848609D02*
X140184836Y-107896228D01*
X140184836Y-107896228D02*
X139803884Y-107896228D01*
X141137217Y-107848609D02*
X141280074Y-107896228D01*
X141280074Y-107896228D02*
X141327693Y-107943847D01*
X141327693Y-107943847D02*
X141375312Y-108039085D01*
X141375312Y-108039085D02*
X141375312Y-108181942D01*
X141375312Y-108181942D02*
X141327693Y-108277180D01*
X141327693Y-108277180D02*
X141280074Y-108324800D01*
X141280074Y-108324800D02*
X141184836Y-108372419D01*
X141184836Y-108372419D02*
X140803884Y-108372419D01*
X140803884Y-108372419D02*
X140803884Y-107372419D01*
X140803884Y-107372419D02*
X141137217Y-107372419D01*
X141137217Y-107372419D02*
X141232455Y-107420038D01*
X141232455Y-107420038D02*
X141280074Y-107467657D01*
X141280074Y-107467657D02*
X141327693Y-107562895D01*
X141327693Y-107562895D02*
X141327693Y-107658133D01*
X141327693Y-107658133D02*
X141280074Y-107753371D01*
X141280074Y-107753371D02*
X141232455Y-107800990D01*
X141232455Y-107800990D02*
X141137217Y-107848609D01*
X141137217Y-107848609D02*
X140803884Y-107848609D01*
X141708646Y-107372419D02*
X142327693Y-107372419D01*
X142327693Y-107372419D02*
X141994360Y-107753371D01*
X141994360Y-107753371D02*
X142137217Y-107753371D01*
X142137217Y-107753371D02*
X142232455Y-107800990D01*
X142232455Y-107800990D02*
X142280074Y-107848609D01*
X142280074Y-107848609D02*
X142327693Y-107943847D01*
X142327693Y-107943847D02*
X142327693Y-108181942D01*
X142327693Y-108181942D02*
X142280074Y-108277180D01*
X142280074Y-108277180D02*
X142232455Y-108324800D01*
X142232455Y-108324800D02*
X142137217Y-108372419D01*
X142137217Y-108372419D02*
X141851503Y-108372419D01*
X141851503Y-108372419D02*
X141756265Y-108324800D01*
X141756265Y-108324800D02*
X141708646Y-108277180D01*
X112256265Y-90586704D02*
X112732455Y-90586704D01*
X112161027Y-90872419D02*
X112494360Y-89872419D01*
X112494360Y-89872419D02*
X112827693Y-90872419D01*
X113065789Y-89872419D02*
X113684836Y-89872419D01*
X113684836Y-89872419D02*
X113351503Y-90253371D01*
X113351503Y-90253371D02*
X113494360Y-90253371D01*
X113494360Y-90253371D02*
X113589598Y-90300990D01*
X113589598Y-90300990D02*
X113637217Y-90348609D01*
X113637217Y-90348609D02*
X113684836Y-90443847D01*
X113684836Y-90443847D02*
X113684836Y-90681942D01*
X113684836Y-90681942D02*
X113637217Y-90777180D01*
X113637217Y-90777180D02*
X113589598Y-90824800D01*
X113589598Y-90824800D02*
X113494360Y-90872419D01*
X113494360Y-90872419D02*
X113208646Y-90872419D01*
X113208646Y-90872419D02*
X113113408Y-90824800D01*
X113113408Y-90824800D02*
X113065789Y-90777180D01*
X112256265Y-72586704D02*
X112732455Y-72586704D01*
X112161027Y-72872419D02*
X112494360Y-71872419D01*
X112494360Y-71872419D02*
X112827693Y-72872419D01*
X113208646Y-72872419D02*
X113399122Y-72872419D01*
X113399122Y-72872419D02*
X113494360Y-72824800D01*
X113494360Y-72824800D02*
X113541979Y-72777180D01*
X113541979Y-72777180D02*
X113637217Y-72634323D01*
X113637217Y-72634323D02*
X113684836Y-72443847D01*
X113684836Y-72443847D02*
X113684836Y-72062895D01*
X113684836Y-72062895D02*
X113637217Y-71967657D01*
X113637217Y-71967657D02*
X113589598Y-71920038D01*
X113589598Y-71920038D02*
X113494360Y-71872419D01*
X113494360Y-71872419D02*
X113303884Y-71872419D01*
X113303884Y-71872419D02*
X113208646Y-71920038D01*
X113208646Y-71920038D02*
X113161027Y-71967657D01*
X113161027Y-71967657D02*
X113113408Y-72062895D01*
X113113408Y-72062895D02*
X113113408Y-72300990D01*
X113113408Y-72300990D02*
X113161027Y-72396228D01*
X113161027Y-72396228D02*
X113208646Y-72443847D01*
X113208646Y-72443847D02*
X113303884Y-72491466D01*
X113303884Y-72491466D02*
X113494360Y-72491466D01*
X113494360Y-72491466D02*
X113589598Y-72443847D01*
X113589598Y-72443847D02*
X113637217Y-72396228D01*
X113637217Y-72396228D02*
X113684836Y-72300990D01*
X55803884Y-86372419D02*
X55803884Y-85372419D01*
X55803884Y-85372419D02*
X56184836Y-85372419D01*
X56184836Y-85372419D02*
X56280074Y-85420038D01*
X56280074Y-85420038D02*
X56327693Y-85467657D01*
X56327693Y-85467657D02*
X56375312Y-85562895D01*
X56375312Y-85562895D02*
X56375312Y-85705752D01*
X56375312Y-85705752D02*
X56327693Y-85800990D01*
X56327693Y-85800990D02*
X56280074Y-85848609D01*
X56280074Y-85848609D02*
X56184836Y-85896228D01*
X56184836Y-85896228D02*
X55803884Y-85896228D01*
X56803884Y-86372419D02*
X56803884Y-85372419D01*
X56803884Y-85372419D02*
X57041979Y-85372419D01*
X57041979Y-85372419D02*
X57184836Y-85420038D01*
X57184836Y-85420038D02*
X57280074Y-85515276D01*
X57280074Y-85515276D02*
X57327693Y-85610514D01*
X57327693Y-85610514D02*
X57375312Y-85800990D01*
X57375312Y-85800990D02*
X57375312Y-85943847D01*
X57375312Y-85943847D02*
X57327693Y-86134323D01*
X57327693Y-86134323D02*
X57280074Y-86229561D01*
X57280074Y-86229561D02*
X57184836Y-86324800D01*
X57184836Y-86324800D02*
X57041979Y-86372419D01*
X57041979Y-86372419D02*
X56803884Y-86372419D01*
X57756265Y-85467657D02*
X57803884Y-85420038D01*
X57803884Y-85420038D02*
X57899122Y-85372419D01*
X57899122Y-85372419D02*
X58137217Y-85372419D01*
X58137217Y-85372419D02*
X58232455Y-85420038D01*
X58232455Y-85420038D02*
X58280074Y-85467657D01*
X58280074Y-85467657D02*
X58327693Y-85562895D01*
X58327693Y-85562895D02*
X58327693Y-85658133D01*
X58327693Y-85658133D02*
X58280074Y-85800990D01*
X58280074Y-85800990D02*
X57708646Y-86372419D01*
X57708646Y-86372419D02*
X58327693Y-86372419D01*
X55803884Y-101372419D02*
X55803884Y-100372419D01*
X55803884Y-100372419D02*
X56184836Y-100372419D01*
X56184836Y-100372419D02*
X56280074Y-100420038D01*
X56280074Y-100420038D02*
X56327693Y-100467657D01*
X56327693Y-100467657D02*
X56375312Y-100562895D01*
X56375312Y-100562895D02*
X56375312Y-100705752D01*
X56375312Y-100705752D02*
X56327693Y-100800990D01*
X56327693Y-100800990D02*
X56280074Y-100848609D01*
X56280074Y-100848609D02*
X56184836Y-100896228D01*
X56184836Y-100896228D02*
X55803884Y-100896228D01*
X57327693Y-100420038D02*
X57232455Y-100372419D01*
X57232455Y-100372419D02*
X57089598Y-100372419D01*
X57089598Y-100372419D02*
X56946741Y-100420038D01*
X56946741Y-100420038D02*
X56851503Y-100515276D01*
X56851503Y-100515276D02*
X56803884Y-100610514D01*
X56803884Y-100610514D02*
X56756265Y-100800990D01*
X56756265Y-100800990D02*
X56756265Y-100943847D01*
X56756265Y-100943847D02*
X56803884Y-101134323D01*
X56803884Y-101134323D02*
X56851503Y-101229561D01*
X56851503Y-101229561D02*
X56946741Y-101324800D01*
X56946741Y-101324800D02*
X57089598Y-101372419D01*
X57089598Y-101372419D02*
X57184836Y-101372419D01*
X57184836Y-101372419D02*
X57327693Y-101324800D01*
X57327693Y-101324800D02*
X57375312Y-101277180D01*
X57375312Y-101277180D02*
X57375312Y-100943847D01*
X57375312Y-100943847D02*
X57184836Y-100943847D01*
X58280074Y-100372419D02*
X57803884Y-100372419D01*
X57803884Y-100372419D02*
X57756265Y-100848609D01*
X57756265Y-100848609D02*
X57803884Y-100800990D01*
X57803884Y-100800990D02*
X57899122Y-100753371D01*
X57899122Y-100753371D02*
X58137217Y-100753371D01*
X58137217Y-100753371D02*
X58232455Y-100800990D01*
X58232455Y-100800990D02*
X58280074Y-100848609D01*
X58280074Y-100848609D02*
X58327693Y-100943847D01*
X58327693Y-100943847D02*
X58327693Y-101181942D01*
X58327693Y-101181942D02*
X58280074Y-101277180D01*
X58280074Y-101277180D02*
X58232455Y-101324800D01*
X58232455Y-101324800D02*
X58137217Y-101372419D01*
X58137217Y-101372419D02*
X57899122Y-101372419D01*
X57899122Y-101372419D02*
X57803884Y-101324800D01*
X57803884Y-101324800D02*
X57756265Y-101277180D01*
X112256265Y-77586704D02*
X112732455Y-77586704D01*
X112161027Y-77872419D02*
X112494360Y-76872419D01*
X112494360Y-76872419D02*
X112827693Y-77872419D01*
X113065789Y-76872419D02*
X113732455Y-76872419D01*
X113732455Y-76872419D02*
X113303884Y-77872419D01*
X139803884Y-88372419D02*
X139803884Y-87372419D01*
X139803884Y-87372419D02*
X140041979Y-87372419D01*
X140041979Y-87372419D02*
X140184836Y-87420038D01*
X140184836Y-87420038D02*
X140280074Y-87515276D01*
X140280074Y-87515276D02*
X140327693Y-87610514D01*
X140327693Y-87610514D02*
X140375312Y-87800990D01*
X140375312Y-87800990D02*
X140375312Y-87943847D01*
X140375312Y-87943847D02*
X140327693Y-88134323D01*
X140327693Y-88134323D02*
X140280074Y-88229561D01*
X140280074Y-88229561D02*
X140184836Y-88324800D01*
X140184836Y-88324800D02*
X140041979Y-88372419D01*
X140041979Y-88372419D02*
X139803884Y-88372419D01*
X141137217Y-87848609D02*
X141280074Y-87896228D01*
X141280074Y-87896228D02*
X141327693Y-87943847D01*
X141327693Y-87943847D02*
X141375312Y-88039085D01*
X141375312Y-88039085D02*
X141375312Y-88181942D01*
X141375312Y-88181942D02*
X141327693Y-88277180D01*
X141327693Y-88277180D02*
X141280074Y-88324800D01*
X141280074Y-88324800D02*
X141184836Y-88372419D01*
X141184836Y-88372419D02*
X140803884Y-88372419D01*
X140803884Y-88372419D02*
X140803884Y-87372419D01*
X140803884Y-87372419D02*
X141137217Y-87372419D01*
X141137217Y-87372419D02*
X141232455Y-87420038D01*
X141232455Y-87420038D02*
X141280074Y-87467657D01*
X141280074Y-87467657D02*
X141327693Y-87562895D01*
X141327693Y-87562895D02*
X141327693Y-87658133D01*
X141327693Y-87658133D02*
X141280074Y-87753371D01*
X141280074Y-87753371D02*
X141232455Y-87800990D01*
X141232455Y-87800990D02*
X141137217Y-87848609D01*
X141137217Y-87848609D02*
X140803884Y-87848609D01*
X141708646Y-87372419D02*
X142327693Y-87372419D01*
X142327693Y-87372419D02*
X141994360Y-87753371D01*
X141994360Y-87753371D02*
X142137217Y-87753371D01*
X142137217Y-87753371D02*
X142232455Y-87800990D01*
X142232455Y-87800990D02*
X142280074Y-87848609D01*
X142280074Y-87848609D02*
X142327693Y-87943847D01*
X142327693Y-87943847D02*
X142327693Y-88181942D01*
X142327693Y-88181942D02*
X142280074Y-88277180D01*
X142280074Y-88277180D02*
X142232455Y-88324800D01*
X142232455Y-88324800D02*
X142137217Y-88372419D01*
X142137217Y-88372419D02*
X141851503Y-88372419D01*
X141851503Y-88372419D02*
X141756265Y-88324800D01*
X141756265Y-88324800D02*
X141708646Y-88277180D01*
X55803884Y-114372419D02*
X55803884Y-113372419D01*
X55803884Y-113372419D02*
X56184836Y-113372419D01*
X56184836Y-113372419D02*
X56280074Y-113420038D01*
X56280074Y-113420038D02*
X56327693Y-113467657D01*
X56327693Y-113467657D02*
X56375312Y-113562895D01*
X56375312Y-113562895D02*
X56375312Y-113705752D01*
X56375312Y-113705752D02*
X56327693Y-113800990D01*
X56327693Y-113800990D02*
X56280074Y-113848609D01*
X56280074Y-113848609D02*
X56184836Y-113896228D01*
X56184836Y-113896228D02*
X55803884Y-113896228D01*
X57280074Y-114372419D02*
X56803884Y-114372419D01*
X56803884Y-114372419D02*
X56803884Y-113372419D01*
X57518170Y-113372419D02*
X58137217Y-113372419D01*
X58137217Y-113372419D02*
X57803884Y-113753371D01*
X57803884Y-113753371D02*
X57946741Y-113753371D01*
X57946741Y-113753371D02*
X58041979Y-113800990D01*
X58041979Y-113800990D02*
X58089598Y-113848609D01*
X58089598Y-113848609D02*
X58137217Y-113943847D01*
X58137217Y-113943847D02*
X58137217Y-114181942D01*
X58137217Y-114181942D02*
X58089598Y-114277180D01*
X58089598Y-114277180D02*
X58041979Y-114324800D01*
X58041979Y-114324800D02*
X57946741Y-114372419D01*
X57946741Y-114372419D02*
X57661027Y-114372419D01*
X57661027Y-114372419D02*
X57565789Y-114324800D01*
X57565789Y-114324800D02*
X57518170Y-114277180D01*
X65303884Y-83872419D02*
X65303884Y-82872419D01*
X65303884Y-82872419D02*
X65684836Y-82872419D01*
X65684836Y-82872419D02*
X65780074Y-82920038D01*
X65780074Y-82920038D02*
X65827693Y-82967657D01*
X65827693Y-82967657D02*
X65875312Y-83062895D01*
X65875312Y-83062895D02*
X65875312Y-83205752D01*
X65875312Y-83205752D02*
X65827693Y-83300990D01*
X65827693Y-83300990D02*
X65780074Y-83348609D01*
X65780074Y-83348609D02*
X65684836Y-83396228D01*
X65684836Y-83396228D02*
X65303884Y-83396228D01*
X66303884Y-83872419D02*
X66303884Y-82872419D01*
X66303884Y-82872419D02*
X66541979Y-82872419D01*
X66541979Y-82872419D02*
X66684836Y-82920038D01*
X66684836Y-82920038D02*
X66780074Y-83015276D01*
X66780074Y-83015276D02*
X66827693Y-83110514D01*
X66827693Y-83110514D02*
X66875312Y-83300990D01*
X66875312Y-83300990D02*
X66875312Y-83443847D01*
X66875312Y-83443847D02*
X66827693Y-83634323D01*
X66827693Y-83634323D02*
X66780074Y-83729561D01*
X66780074Y-83729561D02*
X66684836Y-83824800D01*
X66684836Y-83824800D02*
X66541979Y-83872419D01*
X66541979Y-83872419D02*
X66303884Y-83872419D01*
X67827693Y-83872419D02*
X67256265Y-83872419D01*
X67541979Y-83872419D02*
X67541979Y-82872419D01*
X67541979Y-82872419D02*
X67446741Y-83015276D01*
X67446741Y-83015276D02*
X67351503Y-83110514D01*
X67351503Y-83110514D02*
X67256265Y-83158133D01*
X65303884Y-98872419D02*
X65303884Y-97872419D01*
X65303884Y-97872419D02*
X65684836Y-97872419D01*
X65684836Y-97872419D02*
X65780074Y-97920038D01*
X65780074Y-97920038D02*
X65827693Y-97967657D01*
X65827693Y-97967657D02*
X65875312Y-98062895D01*
X65875312Y-98062895D02*
X65875312Y-98205752D01*
X65875312Y-98205752D02*
X65827693Y-98300990D01*
X65827693Y-98300990D02*
X65780074Y-98348609D01*
X65780074Y-98348609D02*
X65684836Y-98396228D01*
X65684836Y-98396228D02*
X65303884Y-98396228D01*
X66637217Y-98348609D02*
X66780074Y-98396228D01*
X66780074Y-98396228D02*
X66827693Y-98443847D01*
X66827693Y-98443847D02*
X66875312Y-98539085D01*
X66875312Y-98539085D02*
X66875312Y-98681942D01*
X66875312Y-98681942D02*
X66827693Y-98777180D01*
X66827693Y-98777180D02*
X66780074Y-98824800D01*
X66780074Y-98824800D02*
X66684836Y-98872419D01*
X66684836Y-98872419D02*
X66303884Y-98872419D01*
X66303884Y-98872419D02*
X66303884Y-97872419D01*
X66303884Y-97872419D02*
X66637217Y-97872419D01*
X66637217Y-97872419D02*
X66732455Y-97920038D01*
X66732455Y-97920038D02*
X66780074Y-97967657D01*
X66780074Y-97967657D02*
X66827693Y-98062895D01*
X66827693Y-98062895D02*
X66827693Y-98158133D01*
X66827693Y-98158133D02*
X66780074Y-98253371D01*
X66780074Y-98253371D02*
X66732455Y-98300990D01*
X66732455Y-98300990D02*
X66637217Y-98348609D01*
X66637217Y-98348609D02*
X66303884Y-98348609D01*
X67780074Y-97872419D02*
X67303884Y-97872419D01*
X67303884Y-97872419D02*
X67256265Y-98348609D01*
X67256265Y-98348609D02*
X67303884Y-98300990D01*
X67303884Y-98300990D02*
X67399122Y-98253371D01*
X67399122Y-98253371D02*
X67637217Y-98253371D01*
X67637217Y-98253371D02*
X67732455Y-98300990D01*
X67732455Y-98300990D02*
X67780074Y-98348609D01*
X67780074Y-98348609D02*
X67827693Y-98443847D01*
X67827693Y-98443847D02*
X67827693Y-98681942D01*
X67827693Y-98681942D02*
X67780074Y-98777180D01*
X67780074Y-98777180D02*
X67732455Y-98824800D01*
X67732455Y-98824800D02*
X67637217Y-98872419D01*
X67637217Y-98872419D02*
X67399122Y-98872419D01*
X67399122Y-98872419D02*
X67303884Y-98824800D01*
X67303884Y-98824800D02*
X67256265Y-98777180D01*
X55803884Y-96372419D02*
X55803884Y-95372419D01*
X55803884Y-95372419D02*
X56184836Y-95372419D01*
X56184836Y-95372419D02*
X56280074Y-95420038D01*
X56280074Y-95420038D02*
X56327693Y-95467657D01*
X56327693Y-95467657D02*
X56375312Y-95562895D01*
X56375312Y-95562895D02*
X56375312Y-95705752D01*
X56375312Y-95705752D02*
X56327693Y-95800990D01*
X56327693Y-95800990D02*
X56280074Y-95848609D01*
X56280074Y-95848609D02*
X56184836Y-95896228D01*
X56184836Y-95896228D02*
X55803884Y-95896228D01*
X57089598Y-95372419D02*
X57089598Y-96086704D01*
X57089598Y-96086704D02*
X57041979Y-96229561D01*
X57041979Y-96229561D02*
X56946741Y-96324800D01*
X56946741Y-96324800D02*
X56803884Y-96372419D01*
X56803884Y-96372419D02*
X56708646Y-96372419D01*
X58089598Y-96372419D02*
X57518170Y-96372419D01*
X57803884Y-96372419D02*
X57803884Y-95372419D01*
X57803884Y-95372419D02*
X57708646Y-95515276D01*
X57708646Y-95515276D02*
X57613408Y-95610514D01*
X57613408Y-95610514D02*
X57518170Y-95658133D01*
X65303884Y-96372419D02*
X65303884Y-95372419D01*
X65303884Y-95372419D02*
X65684836Y-95372419D01*
X65684836Y-95372419D02*
X65780074Y-95420038D01*
X65780074Y-95420038D02*
X65827693Y-95467657D01*
X65827693Y-95467657D02*
X65875312Y-95562895D01*
X65875312Y-95562895D02*
X65875312Y-95705752D01*
X65875312Y-95705752D02*
X65827693Y-95800990D01*
X65827693Y-95800990D02*
X65780074Y-95848609D01*
X65780074Y-95848609D02*
X65684836Y-95896228D01*
X65684836Y-95896228D02*
X65303884Y-95896228D01*
X66875312Y-96277180D02*
X66827693Y-96324800D01*
X66827693Y-96324800D02*
X66684836Y-96372419D01*
X66684836Y-96372419D02*
X66589598Y-96372419D01*
X66589598Y-96372419D02*
X66446741Y-96324800D01*
X66446741Y-96324800D02*
X66351503Y-96229561D01*
X66351503Y-96229561D02*
X66303884Y-96134323D01*
X66303884Y-96134323D02*
X66256265Y-95943847D01*
X66256265Y-95943847D02*
X66256265Y-95800990D01*
X66256265Y-95800990D02*
X66303884Y-95610514D01*
X66303884Y-95610514D02*
X66351503Y-95515276D01*
X66351503Y-95515276D02*
X66446741Y-95420038D01*
X66446741Y-95420038D02*
X66589598Y-95372419D01*
X66589598Y-95372419D02*
X66684836Y-95372419D01*
X66684836Y-95372419D02*
X66827693Y-95420038D01*
X66827693Y-95420038D02*
X66875312Y-95467657D01*
X67732455Y-95372419D02*
X67541979Y-95372419D01*
X67541979Y-95372419D02*
X67446741Y-95420038D01*
X67446741Y-95420038D02*
X67399122Y-95467657D01*
X67399122Y-95467657D02*
X67303884Y-95610514D01*
X67303884Y-95610514D02*
X67256265Y-95800990D01*
X67256265Y-95800990D02*
X67256265Y-96181942D01*
X67256265Y-96181942D02*
X67303884Y-96277180D01*
X67303884Y-96277180D02*
X67351503Y-96324800D01*
X67351503Y-96324800D02*
X67446741Y-96372419D01*
X67446741Y-96372419D02*
X67637217Y-96372419D01*
X67637217Y-96372419D02*
X67732455Y-96324800D01*
X67732455Y-96324800D02*
X67780074Y-96277180D01*
X67780074Y-96277180D02*
X67827693Y-96181942D01*
X67827693Y-96181942D02*
X67827693Y-95943847D01*
X67827693Y-95943847D02*
X67780074Y-95848609D01*
X67780074Y-95848609D02*
X67732455Y-95800990D01*
X67732455Y-95800990D02*
X67637217Y-95753371D01*
X67637217Y-95753371D02*
X67446741Y-95753371D01*
X67446741Y-95753371D02*
X67351503Y-95800990D01*
X67351503Y-95800990D02*
X67303884Y-95848609D01*
X67303884Y-95848609D02*
X67256265Y-95943847D01*
X111375312Y-100872419D02*
X111041979Y-100396228D01*
X110803884Y-100872419D02*
X110803884Y-99872419D01*
X110803884Y-99872419D02*
X111184836Y-99872419D01*
X111184836Y-99872419D02*
X111280074Y-99920038D01*
X111280074Y-99920038D02*
X111327693Y-99967657D01*
X111327693Y-99967657D02*
X111375312Y-100062895D01*
X111375312Y-100062895D02*
X111375312Y-100205752D01*
X111375312Y-100205752D02*
X111327693Y-100300990D01*
X111327693Y-100300990D02*
X111280074Y-100348609D01*
X111280074Y-100348609D02*
X111184836Y-100396228D01*
X111184836Y-100396228D02*
X110803884Y-100396228D01*
X111803884Y-100348609D02*
X112137217Y-100348609D01*
X112280074Y-100872419D02*
X111803884Y-100872419D01*
X111803884Y-100872419D02*
X111803884Y-99872419D01*
X111803884Y-99872419D02*
X112280074Y-99872419D01*
X112661027Y-100824800D02*
X112803884Y-100872419D01*
X112803884Y-100872419D02*
X113041979Y-100872419D01*
X113041979Y-100872419D02*
X113137217Y-100824800D01*
X113137217Y-100824800D02*
X113184836Y-100777180D01*
X113184836Y-100777180D02*
X113232455Y-100681942D01*
X113232455Y-100681942D02*
X113232455Y-100586704D01*
X113232455Y-100586704D02*
X113184836Y-100491466D01*
X113184836Y-100491466D02*
X113137217Y-100443847D01*
X113137217Y-100443847D02*
X113041979Y-100396228D01*
X113041979Y-100396228D02*
X112851503Y-100348609D01*
X112851503Y-100348609D02*
X112756265Y-100300990D01*
X112756265Y-100300990D02*
X112708646Y-100253371D01*
X112708646Y-100253371D02*
X112661027Y-100158133D01*
X112661027Y-100158133D02*
X112661027Y-100062895D01*
X112661027Y-100062895D02*
X112708646Y-99967657D01*
X112708646Y-99967657D02*
X112756265Y-99920038D01*
X112756265Y-99920038D02*
X112851503Y-99872419D01*
X112851503Y-99872419D02*
X113089598Y-99872419D01*
X113089598Y-99872419D02*
X113232455Y-99920038D01*
X113661027Y-100348609D02*
X113994360Y-100348609D01*
X114137217Y-100872419D02*
X113661027Y-100872419D01*
X113661027Y-100872419D02*
X113661027Y-99872419D01*
X113661027Y-99872419D02*
X114137217Y-99872419D01*
X114422932Y-99872419D02*
X114994360Y-99872419D01*
X114708646Y-100872419D02*
X114708646Y-99872419D01*
X110665789Y-99594800D02*
X114989599Y-99594800D01*
X65303884Y-109372419D02*
X65303884Y-108372419D01*
X65303884Y-108372419D02*
X65684836Y-108372419D01*
X65684836Y-108372419D02*
X65780074Y-108420038D01*
X65780074Y-108420038D02*
X65827693Y-108467657D01*
X65827693Y-108467657D02*
X65875312Y-108562895D01*
X65875312Y-108562895D02*
X65875312Y-108705752D01*
X65875312Y-108705752D02*
X65827693Y-108800990D01*
X65827693Y-108800990D02*
X65780074Y-108848609D01*
X65780074Y-108848609D02*
X65684836Y-108896228D01*
X65684836Y-108896228D02*
X65303884Y-108896228D01*
X66780074Y-109372419D02*
X66303884Y-109372419D01*
X66303884Y-109372419D02*
X66303884Y-108372419D01*
X67541979Y-108372419D02*
X67351503Y-108372419D01*
X67351503Y-108372419D02*
X67256265Y-108420038D01*
X67256265Y-108420038D02*
X67208646Y-108467657D01*
X67208646Y-108467657D02*
X67113408Y-108610514D01*
X67113408Y-108610514D02*
X67065789Y-108800990D01*
X67065789Y-108800990D02*
X67065789Y-109181942D01*
X67065789Y-109181942D02*
X67113408Y-109277180D01*
X67113408Y-109277180D02*
X67161027Y-109324800D01*
X67161027Y-109324800D02*
X67256265Y-109372419D01*
X67256265Y-109372419D02*
X67446741Y-109372419D01*
X67446741Y-109372419D02*
X67541979Y-109324800D01*
X67541979Y-109324800D02*
X67589598Y-109277180D01*
X67589598Y-109277180D02*
X67637217Y-109181942D01*
X67637217Y-109181942D02*
X67637217Y-108943847D01*
X67637217Y-108943847D02*
X67589598Y-108848609D01*
X67589598Y-108848609D02*
X67541979Y-108800990D01*
X67541979Y-108800990D02*
X67446741Y-108753371D01*
X67446741Y-108753371D02*
X67256265Y-108753371D01*
X67256265Y-108753371D02*
X67161027Y-108800990D01*
X67161027Y-108800990D02*
X67113408Y-108848609D01*
X67113408Y-108848609D02*
X67065789Y-108943847D01*
X65303884Y-86372419D02*
X65303884Y-85372419D01*
X65303884Y-85372419D02*
X65684836Y-85372419D01*
X65684836Y-85372419D02*
X65780074Y-85420038D01*
X65780074Y-85420038D02*
X65827693Y-85467657D01*
X65827693Y-85467657D02*
X65875312Y-85562895D01*
X65875312Y-85562895D02*
X65875312Y-85705752D01*
X65875312Y-85705752D02*
X65827693Y-85800990D01*
X65827693Y-85800990D02*
X65780074Y-85848609D01*
X65780074Y-85848609D02*
X65684836Y-85896228D01*
X65684836Y-85896228D02*
X65303884Y-85896228D01*
X66303884Y-86372419D02*
X66303884Y-85372419D01*
X66303884Y-85372419D02*
X66541979Y-85372419D01*
X66541979Y-85372419D02*
X66684836Y-85420038D01*
X66684836Y-85420038D02*
X66780074Y-85515276D01*
X66780074Y-85515276D02*
X66827693Y-85610514D01*
X66827693Y-85610514D02*
X66875312Y-85800990D01*
X66875312Y-85800990D02*
X66875312Y-85943847D01*
X66875312Y-85943847D02*
X66827693Y-86134323D01*
X66827693Y-86134323D02*
X66780074Y-86229561D01*
X66780074Y-86229561D02*
X66684836Y-86324800D01*
X66684836Y-86324800D02*
X66541979Y-86372419D01*
X66541979Y-86372419D02*
X66303884Y-86372419D01*
X67208646Y-85372419D02*
X67827693Y-85372419D01*
X67827693Y-85372419D02*
X67494360Y-85753371D01*
X67494360Y-85753371D02*
X67637217Y-85753371D01*
X67637217Y-85753371D02*
X67732455Y-85800990D01*
X67732455Y-85800990D02*
X67780074Y-85848609D01*
X67780074Y-85848609D02*
X67827693Y-85943847D01*
X67827693Y-85943847D02*
X67827693Y-86181942D01*
X67827693Y-86181942D02*
X67780074Y-86277180D01*
X67780074Y-86277180D02*
X67732455Y-86324800D01*
X67732455Y-86324800D02*
X67637217Y-86372419D01*
X67637217Y-86372419D02*
X67351503Y-86372419D01*
X67351503Y-86372419D02*
X67256265Y-86324800D01*
X67256265Y-86324800D02*
X67208646Y-86277180D01*
X112256265Y-85586704D02*
X112732455Y-85586704D01*
X112161027Y-85872419D02*
X112494360Y-84872419D01*
X112494360Y-84872419D02*
X112827693Y-85872419D01*
X113637217Y-84872419D02*
X113161027Y-84872419D01*
X113161027Y-84872419D02*
X113113408Y-85348609D01*
X113113408Y-85348609D02*
X113161027Y-85300990D01*
X113161027Y-85300990D02*
X113256265Y-85253371D01*
X113256265Y-85253371D02*
X113494360Y-85253371D01*
X113494360Y-85253371D02*
X113589598Y-85300990D01*
X113589598Y-85300990D02*
X113637217Y-85348609D01*
X113637217Y-85348609D02*
X113684836Y-85443847D01*
X113684836Y-85443847D02*
X113684836Y-85681942D01*
X113684836Y-85681942D02*
X113637217Y-85777180D01*
X113637217Y-85777180D02*
X113589598Y-85824800D01*
X113589598Y-85824800D02*
X113494360Y-85872419D01*
X113494360Y-85872419D02*
X113256265Y-85872419D01*
X113256265Y-85872419D02*
X113161027Y-85824800D01*
X113161027Y-85824800D02*
X113113408Y-85777180D01*
X139803884Y-103372419D02*
X139803884Y-102372419D01*
X139803884Y-102372419D02*
X140184836Y-102372419D01*
X140184836Y-102372419D02*
X140280074Y-102420038D01*
X140280074Y-102420038D02*
X140327693Y-102467657D01*
X140327693Y-102467657D02*
X140375312Y-102562895D01*
X140375312Y-102562895D02*
X140375312Y-102705752D01*
X140375312Y-102705752D02*
X140327693Y-102800990D01*
X140327693Y-102800990D02*
X140280074Y-102848609D01*
X140280074Y-102848609D02*
X140184836Y-102896228D01*
X140184836Y-102896228D02*
X139803884Y-102896228D01*
X141137217Y-102848609D02*
X141280074Y-102896228D01*
X141280074Y-102896228D02*
X141327693Y-102943847D01*
X141327693Y-102943847D02*
X141375312Y-103039085D01*
X141375312Y-103039085D02*
X141375312Y-103181942D01*
X141375312Y-103181942D02*
X141327693Y-103277180D01*
X141327693Y-103277180D02*
X141280074Y-103324800D01*
X141280074Y-103324800D02*
X141184836Y-103372419D01*
X141184836Y-103372419D02*
X140803884Y-103372419D01*
X140803884Y-103372419D02*
X140803884Y-102372419D01*
X140803884Y-102372419D02*
X141137217Y-102372419D01*
X141137217Y-102372419D02*
X141232455Y-102420038D01*
X141232455Y-102420038D02*
X141280074Y-102467657D01*
X141280074Y-102467657D02*
X141327693Y-102562895D01*
X141327693Y-102562895D02*
X141327693Y-102658133D01*
X141327693Y-102658133D02*
X141280074Y-102753371D01*
X141280074Y-102753371D02*
X141232455Y-102800990D01*
X141232455Y-102800990D02*
X141137217Y-102848609D01*
X141137217Y-102848609D02*
X140803884Y-102848609D01*
X142327693Y-103372419D02*
X141756265Y-103372419D01*
X142041979Y-103372419D02*
X142041979Y-102372419D01*
X142041979Y-102372419D02*
X141946741Y-102515276D01*
X141946741Y-102515276D02*
X141851503Y-102610514D01*
X141851503Y-102610514D02*
X141756265Y-102658133D01*
D11*
X61646666Y-68124819D02*
X61646666Y-68839104D01*
X61646666Y-68839104D02*
X61599047Y-68981961D01*
X61599047Y-68981961D02*
X61503809Y-69077200D01*
X61503809Y-69077200D02*
X61360952Y-69124819D01*
X61360952Y-69124819D02*
X61265714Y-69124819D01*
X62551428Y-68458152D02*
X62551428Y-69124819D01*
X62313333Y-68077200D02*
X62075238Y-68791485D01*
X62075238Y-68791485D02*
X62694285Y-68791485D01*
X85166666Y-115454819D02*
X85166666Y-116169104D01*
X85166666Y-116169104D02*
X85119047Y-116311961D01*
X85119047Y-116311961D02*
X85023809Y-116407200D01*
X85023809Y-116407200D02*
X84880952Y-116454819D01*
X84880952Y-116454819D02*
X84785714Y-116454819D01*
X86119047Y-115454819D02*
X85642857Y-115454819D01*
X85642857Y-115454819D02*
X85595238Y-115931009D01*
X85595238Y-115931009D02*
X85642857Y-115883390D01*
X85642857Y-115883390D02*
X85738095Y-115835771D01*
X85738095Y-115835771D02*
X85976190Y-115835771D01*
X85976190Y-115835771D02*
X86071428Y-115883390D01*
X86071428Y-115883390D02*
X86119047Y-115931009D01*
X86119047Y-115931009D02*
X86166666Y-116026247D01*
X86166666Y-116026247D02*
X86166666Y-116264342D01*
X86166666Y-116264342D02*
X86119047Y-116359580D01*
X86119047Y-116359580D02*
X86071428Y-116407200D01*
X86071428Y-116407200D02*
X85976190Y-116454819D01*
X85976190Y-116454819D02*
X85738095Y-116454819D01*
X85738095Y-116454819D02*
X85642857Y-116407200D01*
X85642857Y-116407200D02*
X85595238Y-116359580D01*
X61436666Y-80304819D02*
X61436666Y-81019104D01*
X61436666Y-81019104D02*
X61389047Y-81161961D01*
X61389047Y-81161961D02*
X61293809Y-81257200D01*
X61293809Y-81257200D02*
X61150952Y-81304819D01*
X61150952Y-81304819D02*
X61055714Y-81304819D01*
X62341428Y-80304819D02*
X62150952Y-80304819D01*
X62150952Y-80304819D02*
X62055714Y-80352438D01*
X62055714Y-80352438D02*
X62008095Y-80400057D01*
X62008095Y-80400057D02*
X61912857Y-80542914D01*
X61912857Y-80542914D02*
X61865238Y-80733390D01*
X61865238Y-80733390D02*
X61865238Y-81114342D01*
X61865238Y-81114342D02*
X61912857Y-81209580D01*
X61912857Y-81209580D02*
X61960476Y-81257200D01*
X61960476Y-81257200D02*
X62055714Y-81304819D01*
X62055714Y-81304819D02*
X62246190Y-81304819D01*
X62246190Y-81304819D02*
X62341428Y-81257200D01*
X62341428Y-81257200D02*
X62389047Y-81209580D01*
X62389047Y-81209580D02*
X62436666Y-81114342D01*
X62436666Y-81114342D02*
X62436666Y-80876247D01*
X62436666Y-80876247D02*
X62389047Y-80781009D01*
X62389047Y-80781009D02*
X62341428Y-80733390D01*
X62341428Y-80733390D02*
X62246190Y-80685771D01*
X62246190Y-80685771D02*
X62055714Y-80685771D01*
X62055714Y-80685771D02*
X61960476Y-80733390D01*
X61960476Y-80733390D02*
X61912857Y-80781009D01*
X61912857Y-80781009D02*
X61865238Y-80876247D01*
X72436666Y-60024819D02*
X72436666Y-60739104D01*
X72436666Y-60739104D02*
X72389047Y-60881961D01*
X72389047Y-60881961D02*
X72293809Y-60977200D01*
X72293809Y-60977200D02*
X72150952Y-61024819D01*
X72150952Y-61024819D02*
X72055714Y-61024819D01*
X72865238Y-60120057D02*
X72912857Y-60072438D01*
X72912857Y-60072438D02*
X73008095Y-60024819D01*
X73008095Y-60024819D02*
X73246190Y-60024819D01*
X73246190Y-60024819D02*
X73341428Y-60072438D01*
X73341428Y-60072438D02*
X73389047Y-60120057D01*
X73389047Y-60120057D02*
X73436666Y-60215295D01*
X73436666Y-60215295D02*
X73436666Y-60310533D01*
X73436666Y-60310533D02*
X73389047Y-60453390D01*
X73389047Y-60453390D02*
X72817619Y-61024819D01*
X72817619Y-61024819D02*
X73436666Y-61024819D01*
X111666666Y-111954819D02*
X111666666Y-112669104D01*
X111666666Y-112669104D02*
X111619047Y-112811961D01*
X111619047Y-112811961D02*
X111523809Y-112907200D01*
X111523809Y-112907200D02*
X111380952Y-112954819D01*
X111380952Y-112954819D02*
X111285714Y-112954819D01*
X112142857Y-112954819D02*
X112142857Y-111954819D01*
X112142857Y-111954819D02*
X112523809Y-111954819D01*
X112523809Y-111954819D02*
X112619047Y-112002438D01*
X112619047Y-112002438D02*
X112666666Y-112050057D01*
X112666666Y-112050057D02*
X112714285Y-112145295D01*
X112714285Y-112145295D02*
X112714285Y-112288152D01*
X112714285Y-112288152D02*
X112666666Y-112383390D01*
X112666666Y-112383390D02*
X112619047Y-112431009D01*
X112619047Y-112431009D02*
X112523809Y-112478628D01*
X112523809Y-112478628D02*
X112142857Y-112478628D01*
X113666666Y-112954819D02*
X113095238Y-112954819D01*
X113380952Y-112954819D02*
X113380952Y-111954819D01*
X113380952Y-111954819D02*
X113285714Y-112097676D01*
X113285714Y-112097676D02*
X113190476Y-112192914D01*
X113190476Y-112192914D02*
X113095238Y-112240533D01*
X126786666Y-50074819D02*
X126786666Y-50789104D01*
X126786666Y-50789104D02*
X126739047Y-50931961D01*
X126739047Y-50931961D02*
X126643809Y-51027200D01*
X126643809Y-51027200D02*
X126500952Y-51074819D01*
X126500952Y-51074819D02*
X126405714Y-51074819D01*
X127786666Y-51074819D02*
X127215238Y-51074819D01*
X127500952Y-51074819D02*
X127500952Y-50074819D01*
X127500952Y-50074819D02*
X127405714Y-50217676D01*
X127405714Y-50217676D02*
X127310476Y-50312914D01*
X127310476Y-50312914D02*
X127215238Y-50360533D01*
X110556666Y-59714819D02*
X110556666Y-60429104D01*
X110556666Y-60429104D02*
X110509047Y-60571961D01*
X110509047Y-60571961D02*
X110413809Y-60667200D01*
X110413809Y-60667200D02*
X110270952Y-60714819D01*
X110270952Y-60714819D02*
X110175714Y-60714819D01*
X111032857Y-60714819D02*
X111032857Y-59714819D01*
X111032857Y-59714819D02*
X111413809Y-59714819D01*
X111413809Y-59714819D02*
X111509047Y-59762438D01*
X111509047Y-59762438D02*
X111556666Y-59810057D01*
X111556666Y-59810057D02*
X111604285Y-59905295D01*
X111604285Y-59905295D02*
X111604285Y-60048152D01*
X111604285Y-60048152D02*
X111556666Y-60143390D01*
X111556666Y-60143390D02*
X111509047Y-60191009D01*
X111509047Y-60191009D02*
X111413809Y-60238628D01*
X111413809Y-60238628D02*
X111032857Y-60238628D01*
X111985238Y-59810057D02*
X112032857Y-59762438D01*
X112032857Y-59762438D02*
X112128095Y-59714819D01*
X112128095Y-59714819D02*
X112366190Y-59714819D01*
X112366190Y-59714819D02*
X112461428Y-59762438D01*
X112461428Y-59762438D02*
X112509047Y-59810057D01*
X112509047Y-59810057D02*
X112556666Y-59905295D01*
X112556666Y-59905295D02*
X112556666Y-60000533D01*
X112556666Y-60000533D02*
X112509047Y-60143390D01*
X112509047Y-60143390D02*
X111937619Y-60714819D01*
X111937619Y-60714819D02*
X112556666Y-60714819D01*
X104976666Y-72724819D02*
X104976666Y-73439104D01*
X104976666Y-73439104D02*
X104929047Y-73581961D01*
X104929047Y-73581961D02*
X104833809Y-73677200D01*
X104833809Y-73677200D02*
X104690952Y-73724819D01*
X104690952Y-73724819D02*
X104595714Y-73724819D01*
X105357619Y-72724819D02*
X105976666Y-72724819D01*
X105976666Y-72724819D02*
X105643333Y-73105771D01*
X105643333Y-73105771D02*
X105786190Y-73105771D01*
X105786190Y-73105771D02*
X105881428Y-73153390D01*
X105881428Y-73153390D02*
X105929047Y-73201009D01*
X105929047Y-73201009D02*
X105976666Y-73296247D01*
X105976666Y-73296247D02*
X105976666Y-73534342D01*
X105976666Y-73534342D02*
X105929047Y-73629580D01*
X105929047Y-73629580D02*
X105881428Y-73677200D01*
X105881428Y-73677200D02*
X105786190Y-73724819D01*
X105786190Y-73724819D02*
X105500476Y-73724819D01*
X105500476Y-73724819D02*
X105405238Y-73677200D01*
X105405238Y-73677200D02*
X105357619Y-73629580D01*
D12*
%TO.C,J4*%
X59380000Y-69670000D02*
X60710000Y-69670000D01*
X59380000Y-71000000D02*
X59380000Y-69670000D01*
X59380000Y-72270000D02*
X59380000Y-77410000D01*
X59380000Y-72270000D02*
X61980000Y-72270000D01*
X59380000Y-77410000D02*
X64580000Y-77410000D01*
X61980000Y-69670000D02*
X64580000Y-69670000D01*
X61980000Y-72270000D02*
X61980000Y-69670000D01*
X64580000Y-69670000D02*
X64580000Y-77410000D01*
%TO.C,J5*%
X89450000Y-109830000D02*
X89450000Y-111160000D01*
X88120000Y-109830000D02*
X89450000Y-109830000D01*
X86850000Y-109830000D02*
X81710000Y-109830000D01*
X86850000Y-109830000D02*
X86850000Y-112430000D01*
X81710000Y-109830000D02*
X81710000Y-115030000D01*
X89450000Y-112430000D02*
X89450000Y-115030000D01*
X86850000Y-112430000D02*
X89450000Y-112430000D01*
X89450000Y-115030000D02*
X81710000Y-115030000D01*
%TO.C,J6*%
X64370000Y-81850000D02*
X64370000Y-114990000D01*
X61770000Y-84450000D02*
X61770000Y-81850000D01*
X61770000Y-81850000D02*
X64370000Y-81850000D01*
X59170000Y-114990000D02*
X64370000Y-114990000D01*
X59170000Y-84450000D02*
X61770000Y-84450000D01*
X59170000Y-84450000D02*
X59170000Y-114990000D01*
X59170000Y-83180000D02*
X59170000Y-81850000D01*
X59170000Y-81850000D02*
X60500000Y-81850000D01*
%TO.C,J2*%
X70170000Y-61570000D02*
X71500000Y-61570000D01*
X70170000Y-62900000D02*
X70170000Y-61570000D01*
X70170000Y-64170000D02*
X70170000Y-115030000D01*
X70170000Y-64170000D02*
X72770000Y-64170000D01*
X70170000Y-115030000D02*
X75370000Y-115030000D01*
X72770000Y-61570000D02*
X75370000Y-61570000D01*
X72770000Y-64170000D02*
X72770000Y-61570000D01*
X75370000Y-61570000D02*
X75370000Y-115030000D01*
%TO.C,JP1*%
X111100000Y-110550000D02*
X111100000Y-109950000D01*
X111800000Y-109250000D02*
X113200000Y-109250000D01*
X113200000Y-111250000D02*
X111800000Y-111250000D01*
X113900000Y-109950000D02*
X113900000Y-110550000D01*
X111100000Y-109950000D02*
G75*
G02*
X111800000Y-109250000I699999J1D01*
G01*
X111800000Y-111250000D02*
G75*
G02*
X111100000Y-110550000I-1J699999D01*
G01*
X113200000Y-109250000D02*
G75*
G02*
X113900000Y-109950000I0J-700000D01*
G01*
X113900000Y-110550000D02*
G75*
G02*
X113200000Y-111250000I-700000J0D01*
G01*
%TO.C,J1*%
X114550000Y-63570000D02*
X114550000Y-61030000D01*
X115550000Y-51800000D02*
X115550000Y-53500000D01*
X115550000Y-58400000D02*
X115550000Y-117800000D01*
X115550000Y-117800000D02*
X138650000Y-117800000D01*
X117850000Y-51900000D02*
X117850000Y-53900000D01*
X117855000Y-61030000D02*
X124955000Y-61030000D01*
X117855000Y-63570000D02*
X117855000Y-61030000D01*
X117855000Y-63570000D02*
X124955000Y-63570000D01*
X117855000Y-66110000D02*
X117855000Y-63570000D01*
X117855000Y-66110000D02*
X124955000Y-66110000D01*
X117855000Y-68650000D02*
X117855000Y-66110000D01*
X117855000Y-68650000D02*
X124955000Y-68650000D01*
X117855000Y-71190000D02*
X117855000Y-68650000D01*
X117855000Y-71190000D02*
X124955000Y-71190000D01*
X117855000Y-73730000D02*
X117855000Y-71190000D01*
X117855000Y-73730000D02*
X124955000Y-73730000D01*
X117855000Y-76270000D02*
X117855000Y-73730000D01*
X117855000Y-76270000D02*
X124955000Y-76270000D01*
X117855000Y-78810000D02*
X117855000Y-76270000D01*
X117855000Y-78810000D02*
X124955000Y-78810000D01*
X117855000Y-81350000D02*
X117855000Y-78810000D01*
X117855000Y-81350000D02*
X124955000Y-81350000D01*
X117855000Y-83890000D02*
X117855000Y-81350000D01*
X117855000Y-83890000D02*
X124955000Y-83890000D01*
X117855000Y-86430000D02*
X117855000Y-83890000D01*
X117855000Y-86430000D02*
X124955000Y-86430000D01*
X117855000Y-88970000D02*
X117855000Y-86430000D01*
X117855000Y-88970000D02*
X124955000Y-88970000D01*
X117855000Y-91510000D02*
X117855000Y-88970000D01*
X117855000Y-91510000D02*
X124955000Y-91510000D01*
X117855000Y-94050000D02*
X117855000Y-91510000D01*
X117855000Y-94050000D02*
X124955000Y-94050000D01*
X117855000Y-96590000D02*
X117855000Y-94050000D01*
X117855000Y-96590000D02*
X124955000Y-96590000D01*
X117855000Y-99130000D02*
X117855000Y-96590000D01*
X117855000Y-99130000D02*
X124955000Y-99130000D01*
X117855000Y-101670000D02*
X117855000Y-99130000D01*
X117855000Y-101670000D02*
X124955000Y-101670000D01*
X117855000Y-104210000D02*
X117855000Y-101670000D01*
X117855000Y-104210000D02*
X124955000Y-104210000D01*
X117855000Y-106750000D02*
X117855000Y-104210000D01*
X117855000Y-106750000D02*
X124955000Y-106750000D01*
X117855000Y-109290000D02*
X117855000Y-106750000D01*
X117855000Y-109290000D02*
X124955000Y-109290000D01*
X117855000Y-111830000D02*
X117855000Y-109290000D01*
X117855000Y-111830000D02*
X124955000Y-111830000D01*
X124955000Y-61030000D02*
X124955000Y-63570000D01*
X124955000Y-63570000D02*
X124955000Y-66110000D01*
X124955000Y-66110000D02*
X124955000Y-68650000D01*
X124955000Y-68650000D02*
X124955000Y-71190000D01*
X124955000Y-71190000D02*
X124955000Y-73730000D01*
X124955000Y-73730000D02*
X124955000Y-76270000D01*
X124955000Y-76270000D02*
X124955000Y-78810000D01*
X124955000Y-78810000D02*
X124955000Y-81350000D01*
X124955000Y-81350000D02*
X124955000Y-83890000D01*
X124955000Y-83890000D02*
X124955000Y-86430000D01*
X124955000Y-86430000D02*
X124955000Y-88970000D01*
X124955000Y-88970000D02*
X124955000Y-91510000D01*
X124955000Y-91510000D02*
X124955000Y-94050000D01*
X124955000Y-94050000D02*
X124955000Y-96590000D01*
X124955000Y-96590000D02*
X124955000Y-99130000D01*
X124955000Y-99130000D02*
X124955000Y-101670000D01*
X124955000Y-101670000D02*
X124955000Y-104210000D01*
X124955000Y-104210000D02*
X124955000Y-106750000D01*
X124955000Y-106750000D02*
X124955000Y-109290000D01*
X124955000Y-109290000D02*
X124955000Y-111830000D01*
X129285000Y-61030000D02*
X136385000Y-61030000D01*
X129285000Y-63570000D02*
X129285000Y-61030000D01*
X129285000Y-63570000D02*
X136385000Y-63570000D01*
X129285000Y-66110000D02*
X129285000Y-63570000D01*
X129285000Y-66110000D02*
X136385000Y-66110000D01*
X129285000Y-68650000D02*
X129285000Y-66110000D01*
X129285000Y-68650000D02*
X136385000Y-68650000D01*
X129285000Y-71190000D02*
X129285000Y-68650000D01*
X129285000Y-71190000D02*
X136385000Y-71190000D01*
X129285000Y-73730000D02*
X129285000Y-71190000D01*
X129285000Y-73730000D02*
X136385000Y-73730000D01*
X129285000Y-76270000D02*
X129285000Y-73730000D01*
X129285000Y-76270000D02*
X136385000Y-76270000D01*
X129285000Y-78810000D02*
X129285000Y-76270000D01*
X129285000Y-78810000D02*
X136385000Y-78810000D01*
X129285000Y-81350000D02*
X129285000Y-78810000D01*
X129285000Y-81350000D02*
X136385000Y-81350000D01*
X129285000Y-83890000D02*
X129285000Y-81350000D01*
X129285000Y-83890000D02*
X136385000Y-83890000D01*
X129285000Y-86430000D02*
X129285000Y-83890000D01*
X129285000Y-86430000D02*
X136385000Y-86430000D01*
X129285000Y-88970000D02*
X129285000Y-86430000D01*
X129285000Y-88970000D02*
X136385000Y-88970000D01*
X129285000Y-91510000D02*
X129285000Y-88970000D01*
X129285000Y-91510000D02*
X136385000Y-91510000D01*
X129285000Y-94050000D02*
X129285000Y-91510000D01*
X129285000Y-94050000D02*
X136385000Y-94050000D01*
X129285000Y-96590000D02*
X129285000Y-94050000D01*
X129285000Y-96590000D02*
X136385000Y-96590000D01*
X129285000Y-99130000D02*
X129285000Y-96590000D01*
X129285000Y-99130000D02*
X136385000Y-99130000D01*
X129285000Y-101670000D02*
X129285000Y-99130000D01*
X129285000Y-101670000D02*
X136385000Y-101670000D01*
X129285000Y-104210000D02*
X129285000Y-101670000D01*
X129285000Y-104210000D02*
X136385000Y-104210000D01*
X129285000Y-106750000D02*
X129285000Y-104210000D01*
X129285000Y-106750000D02*
X136385000Y-106750000D01*
X129285000Y-109290000D02*
X129285000Y-106750000D01*
X129285000Y-109290000D02*
X136385000Y-109290000D01*
X129285000Y-111830000D02*
X129285000Y-109290000D01*
X129285000Y-111830000D02*
X136385000Y-111830000D01*
X136385000Y-61030000D02*
X136385000Y-63570000D01*
X136385000Y-63570000D02*
X136385000Y-66110000D01*
X136385000Y-66110000D02*
X136385000Y-68650000D01*
X136385000Y-68650000D02*
X136385000Y-71190000D01*
X136385000Y-71190000D02*
X136385000Y-73730000D01*
X136385000Y-73730000D02*
X136385000Y-76270000D01*
X136385000Y-76270000D02*
X136385000Y-78810000D01*
X136385000Y-78810000D02*
X136385000Y-81350000D01*
X136385000Y-81350000D02*
X136385000Y-83890000D01*
X136385000Y-83890000D02*
X136385000Y-86430000D01*
X136385000Y-86430000D02*
X136385000Y-88970000D01*
X136385000Y-88970000D02*
X136385000Y-91510000D01*
X136385000Y-91510000D02*
X136385000Y-94050000D01*
X136385000Y-94050000D02*
X136385000Y-96590000D01*
X136385000Y-96590000D02*
X136385000Y-99130000D01*
X136385000Y-99130000D02*
X136385000Y-101670000D01*
X136385000Y-101670000D02*
X136385000Y-104210000D01*
X136385000Y-104210000D02*
X136385000Y-106750000D01*
X136385000Y-106750000D02*
X136385000Y-109290000D01*
X136385000Y-109290000D02*
X136385000Y-111830000D01*
X138650000Y-51800000D02*
X115550000Y-51800000D01*
X138650000Y-117800000D02*
X138650000Y-51800000D01*
X117200000Y-55950000D02*
G75*
G02*
X115400000Y-55950000I-900000J0D01*
G01*
X115400000Y-55950000D02*
G75*
G02*
X117200000Y-55950000I900000J0D01*
G01*
X118850000Y-55950000D02*
G75*
G02*
X113750000Y-55950000I-2550000J0D01*
G01*
X113750000Y-55950000D02*
G75*
G02*
X118850000Y-55950000I2550000J0D01*
G01*
%TO.C,JP2*%
X109990000Y-62360000D02*
X109990000Y-61760000D01*
X110690000Y-61060000D02*
X112090000Y-61060000D01*
X112090000Y-63060000D02*
X110690000Y-63060000D01*
X112790000Y-61760000D02*
X112790000Y-62360000D01*
X109990000Y-61760000D02*
G75*
G02*
X110690000Y-61060000I699999J1D01*
G01*
X110690000Y-63060000D02*
G75*
G02*
X109990000Y-62360000I-1J699999D01*
G01*
X112090000Y-61060000D02*
G75*
G02*
X112790000Y-61760000I0J-700000D01*
G01*
X112790000Y-62360000D02*
G75*
G02*
X112090000Y-63060000I-700000J0D01*
G01*
%TO.C,J3*%
X102710000Y-74270000D02*
X104040000Y-74270000D01*
X102710000Y-75600000D02*
X102710000Y-74270000D01*
X102710000Y-76870000D02*
X102710000Y-115030000D01*
X102710000Y-76870000D02*
X105310000Y-76870000D01*
X102710000Y-115030000D02*
X107910000Y-115030000D01*
X105310000Y-74270000D02*
X107910000Y-74270000D01*
X105310000Y-76870000D02*
X105310000Y-74270000D01*
X107910000Y-74270000D02*
X107910000Y-115030000D01*
%TD*%
M02*
