%TF.GenerationSoftware,KiCad,Pcbnew,8.0.4*%
%TF.CreationDate,2024-09-01T11:51:46-07:00*%
%TF.ProjectId,chip_tester,63686970-5f74-4657-9374-65722e6b6963,rev?*%
%TF.SameCoordinates,Original*%
%TF.FileFunction,Copper,L1,Top*%
%TF.FilePolarity,Positive*%
%FSLAX46Y46*%
G04 Gerber Fmt 4.6, Leading zero omitted, Abs format (unit mm)*
G04 Created by KiCad (PCBNEW 8.0.4) date 2024-09-01 11:51:46*
%MOMM*%
%LPD*%
G01*
G04 APERTURE LIST*
G04 Aperture macros list*
%AMFreePoly0*
4,1,19,0.500000,-0.750000,0.000000,-0.750000,0.000000,-0.744911,-0.071157,-0.744911,-0.207708,-0.704816,-0.327430,-0.627875,-0.420627,-0.520320,-0.479746,-0.390866,-0.500000,-0.250000,-0.500000,0.250000,-0.479746,0.390866,-0.420627,0.520320,-0.327430,0.627875,-0.207708,0.704816,-0.071157,0.744911,0.000000,0.744911,0.000000,0.750000,0.500000,0.750000,0.500000,-0.750000,0.500000,-0.750000,
$1*%
%AMFreePoly1*
4,1,19,0.000000,0.744911,0.071157,0.744911,0.207708,0.704816,0.327430,0.627875,0.420627,0.520320,0.479746,0.390866,0.500000,0.250000,0.500000,-0.250000,0.479746,-0.390866,0.420627,-0.520320,0.327430,-0.627875,0.207708,-0.704816,0.071157,-0.744911,0.000000,-0.744911,0.000000,-0.750000,-0.500000,-0.750000,-0.500000,0.750000,0.000000,0.750000,0.000000,0.744911,0.000000,0.744911,
$1*%
G04 Aperture macros list end*
%TA.AperFunction,EtchedComponent*%
%ADD10C,0.000000*%
%TD*%
%TA.AperFunction,ComponentPad*%
%ADD11R,1.700000X1.700000*%
%TD*%
%TA.AperFunction,ComponentPad*%
%ADD12O,1.700000X1.700000*%
%TD*%
%TA.AperFunction,SMDPad,CuDef*%
%ADD13FreePoly0,0.000000*%
%TD*%
%TA.AperFunction,SMDPad,CuDef*%
%ADD14FreePoly1,0.000000*%
%TD*%
%TA.AperFunction,ComponentPad*%
%ADD15R,2.000000X1.440000*%
%TD*%
%TA.AperFunction,ComponentPad*%
%ADD16O,2.000000X1.440000*%
%TD*%
%TA.AperFunction,ViaPad*%
%ADD17C,0.600000*%
%TD*%
%TA.AperFunction,Conductor*%
%ADD18C,0.200000*%
%TD*%
G04 APERTURE END LIST*
D10*
%TA.AperFunction,EtchedComponent*%
%TO.C,JP1*%
G36*
X112750000Y-110550000D02*
G01*
X112250000Y-110550000D01*
X112250000Y-109950000D01*
X112750000Y-109950000D01*
X112750000Y-110550000D01*
G37*
%TD.AperFunction*%
%TA.AperFunction,EtchedComponent*%
%TO.C,JP2*%
G36*
X111640000Y-62360000D02*
G01*
X111140000Y-62360000D01*
X111140000Y-61760000D01*
X111640000Y-61760000D01*
X111640000Y-62360000D01*
G37*
%TD.AperFunction*%
%TD*%
D11*
%TO.P,J6,1,Pin_1*%
%TO.N,/PJ0*%
X60500000Y-83180000D03*
D12*
%TO.P,J6,2,Pin_2*%
%TO.N,/PD1*%
X63040000Y-83180000D03*
%TO.P,J6,3,Pin_3*%
%TO.N,/PD2*%
X60500000Y-85720000D03*
%TO.P,J6,4,Pin_4*%
%TO.N,/PD3*%
X63040000Y-85720000D03*
%TO.P,J6,5,Pin_5*%
%TO.N,/PE0*%
X60500000Y-88260000D03*
%TO.P,J6,6,Pin_6*%
%TO.N,/PE1*%
X63040000Y-88260000D03*
%TO.P,J6,7,Pin_7*%
%TO.N,/PE3*%
X60500000Y-90800000D03*
%TO.P,J6,8,Pin_8*%
%TO.N,/PE4*%
X63040000Y-90800000D03*
%TO.P,J6,9,Pin_9*%
%TO.N,/PE5*%
X60500000Y-93340000D03*
%TO.P,J6,10,Pin_10*%
%TO.N,/PG2*%
X63040000Y-93340000D03*
%TO.P,J6,11,Pin_11*%
%TO.N,/PJ1*%
X60500000Y-95880000D03*
%TO.P,J6,12,Pin_12*%
%TO.N,/PC6*%
X63040000Y-95880000D03*
%TO.P,J6,13,Pin_13*%
%TO.N,/PC7*%
X60500000Y-98420000D03*
%TO.P,J6,14,Pin_14*%
%TO.N,/PB5_{MCU}*%
X63040000Y-98420000D03*
%TO.P,J6,15,Pin_15*%
%TO.N,/PG5*%
X60500000Y-100960000D03*
%TO.P,J6,16,Pin_16*%
%TO.N,/PD7*%
X63040000Y-100960000D03*
%TO.P,J6,17,Pin_17*%
%TO.N,/PH6*%
X60500000Y-103500000D03*
%TO.P,J6,18,Pin_18*%
%TO.N,/PH5*%
X63040000Y-103500000D03*
%TO.P,J6,19,Pin_19*%
%TO.N,/PH4*%
X60500000Y-106040000D03*
%TO.P,J6,20,Pin_20*%
%TO.N,/PH3*%
X63040000Y-106040000D03*
%TO.P,J6,21,Pin_21*%
%TO.N,/PL7*%
X60500000Y-108580000D03*
%TO.P,J6,22,Pin_22*%
%TO.N,/PL6*%
X63040000Y-108580000D03*
%TO.P,J6,23,Pin_23*%
%TO.N,/PL5*%
X60500000Y-111120000D03*
%TO.P,J6,24,Pin_24*%
%TO.N,/PL4*%
X63040000Y-111120000D03*
%TO.P,J6,25,Pin_25*%
%TO.N,/PL3*%
X60500000Y-113660000D03*
%TO.P,J6,26,Pin_26*%
%TO.N,/PL2*%
X63040000Y-113660000D03*
%TD*%
D11*
%TO.P,J2,1,Pin_1*%
%TO.N,VBUS*%
X71500000Y-62900000D03*
D12*
%TO.P,J2,2,Pin_2*%
X74040000Y-62900000D03*
%TO.P,J2,3,Pin_3*%
%TO.N,GND*%
X71500000Y-65440000D03*
%TO.P,J2,4,Pin_4*%
X74040000Y-65440000D03*
%TO.P,J2,5,Pin_5*%
%TO.N,+5V*%
X71500000Y-67980000D03*
%TO.P,J2,6,Pin_6*%
X74040000Y-67980000D03*
%TO.P,J2,7,Pin_7*%
%TO.N,+3V3*%
X71500000Y-70520000D03*
%TO.P,J2,8,Pin_8*%
X74040000Y-70520000D03*
%TO.P,J2,9,Pin_9*%
%TO.N,/AREF*%
X71500000Y-73060000D03*
%TO.P,J2,10,Pin_10*%
X74040000Y-73060000D03*
%TO.P,J2,11,Pin_11*%
%TO.N,/PE1*%
X71500000Y-75600000D03*
%TO.P,J2,12,Pin_12*%
%TO.N,/PE0*%
X74040000Y-75600000D03*
%TO.P,J2,13,Pin_13*%
%TO.N,/PE5*%
X71500000Y-78140000D03*
%TO.P,J2,14,Pin_14*%
%TO.N,/PE4*%
X74040000Y-78140000D03*
%TO.P,J2,15,Pin_15*%
%TO.N,/PE3*%
X71500000Y-80680000D03*
%TO.P,J2,16,Pin_16*%
%TO.N,/PG5*%
X74040000Y-80680000D03*
%TO.P,J2,17,Pin_17*%
%TO.N,/PH4*%
X71500000Y-83220000D03*
%TO.P,J2,18,Pin_18*%
%TO.N,/PH3*%
X74040000Y-83220000D03*
%TO.P,J2,19,Pin_19*%
%TO.N,/PH6*%
X71500000Y-85760000D03*
%TO.P,J2,20,Pin_20*%
%TO.N,/PH5*%
X74040000Y-85760000D03*
%TO.P,J2,21,Pin_21*%
%TO.N,/PB5_{MCU}*%
X71500000Y-88300000D03*
%TO.P,J2,22,Pin_22*%
%TO.N,/PB4_{MCU}*%
X74040000Y-88300000D03*
%TO.P,J2,23,Pin_23*%
%TO.N,/PB7_{MCU}*%
X71500000Y-90840000D03*
%TO.P,J2,24,Pin_24*%
%TO.N,/PB6_{MCU}*%
X74040000Y-90840000D03*
%TO.P,J2,25,Pin_25*%
%TO.N,/PJ0*%
X71500000Y-93380000D03*
%TO.P,J2,26,Pin_26*%
%TO.N,/PJ1*%
X74040000Y-93380000D03*
%TO.P,J2,27,Pin_27*%
%TO.N,/CS1_PB6*%
X71500000Y-95920000D03*
%TO.P,J2,28,Pin_28*%
%TO.N,/PH1*%
X74040000Y-95920000D03*
%TO.P,J2,29,Pin_29*%
%TO.N,/PD2*%
X71500000Y-98460000D03*
%TO.P,J2,30,Pin_30*%
%TO.N,/PD3*%
X74040000Y-98460000D03*
%TO.P,J2,31,Pin_31*%
%TO.N,/IRQ_PB7*%
X71500000Y-101000000D03*
%TO.P,J2,32,Pin_32*%
%TO.N,/PD1*%
X74040000Y-101000000D03*
%TO.P,J2,33,Pin_33*%
%TO.N,/DB1*%
X71500000Y-103540000D03*
%TO.P,J2,34,Pin_34*%
%TO.N,/DB0*%
X74040000Y-103540000D03*
%TO.P,J2,35,Pin_35*%
%TO.N,/DB3*%
X71500000Y-106080000D03*
%TO.P,J2,36,Pin_36*%
%TO.N,/DB2*%
X74040000Y-106080000D03*
%TO.P,J2,37,Pin_37*%
%TO.N,/DB5*%
X71500000Y-108620000D03*
%TO.P,J2,38,Pin_38*%
%TO.N,/DB4*%
X74040000Y-108620000D03*
%TO.P,J2,39,Pin_39*%
%TO.N,/DB7*%
X71500000Y-111160000D03*
%TO.P,J2,40,Pin_40*%
%TO.N,/DB6*%
X74040000Y-111160000D03*
%TO.P,J2,41,Pin_41*%
%TO.N,/PC6*%
X71500000Y-113700000D03*
%TO.P,J2,42,Pin_42*%
%TO.N,/PC7*%
X74040000Y-113700000D03*
%TD*%
D11*
%TO.P,J4,1,Pin_1*%
%TO.N,/MISO*%
X60710000Y-71000000D03*
D12*
%TO.P,J4,2,Pin_2*%
%TO.N,+5V*%
X63250000Y-71000000D03*
%TO.P,J4,3,Pin_3*%
%TO.N,/SCK*%
X60710000Y-73540000D03*
%TO.P,J4,4,Pin_4*%
%TO.N,/MOSI*%
X63250000Y-73540000D03*
%TO.P,J4,5,Pin_5*%
%TO.N,/RESET_{MCU}*%
X60710000Y-76080000D03*
%TO.P,J4,6,Pin_6*%
%TO.N,GND*%
X63250000Y-76080000D03*
%TD*%
D13*
%TO.P,JP1,1,A*%
%TO.N,+5V*%
X111850000Y-110250000D03*
D14*
%TO.P,JP1,2,B*%
%TO.N,Net-(J1-Pin_20)*%
X113150000Y-110250000D03*
%TD*%
D15*
%TO.P,J1,1,Pin_1*%
%TO.N,Net-(J1-Pin_1)*%
X119500000Y-62300000D03*
D16*
%TO.P,J1,2,Pin_2*%
%TO.N,/PA0*%
X119500000Y-64840000D03*
%TO.P,J1,3,Pin_3*%
%TO.N,/PB6_{MCU}*%
X119500000Y-67380000D03*
%TO.P,J1,4,Pin_4*%
%TO.N,/PB7_{MCU}*%
X119500000Y-69920000D03*
%TO.P,J1,5,Pin_5*%
%TO.N,/A9*%
X119500000Y-72460000D03*
%TO.P,J1,6,Pin_6*%
%TO.N,/A8*%
X119500000Y-75000000D03*
%TO.P,J1,7,Pin_7*%
%TO.N,/A7*%
X119500000Y-77540000D03*
%TO.P,J1,8,Pin_8*%
%TO.N,/A6*%
X119500000Y-80080000D03*
%TO.P,J1,9,Pin_9*%
%TO.N,/PH1*%
X119500000Y-82620000D03*
%TO.P,J1,10,Pin_10*%
%TO.N,/A5*%
X119500000Y-85160000D03*
%TO.P,J1,11,Pin_11*%
%TO.N,/A4*%
X119500000Y-87700000D03*
%TO.P,J1,12,Pin_12*%
%TO.N,/A3*%
X119500000Y-90240000D03*
%TO.P,J1,13,Pin_13*%
%TO.N,/A2*%
X119500000Y-92780000D03*
%TO.P,J1,14,Pin_14*%
%TO.N,/A1*%
X119500000Y-95320000D03*
%TO.P,J1,15,Pin_15*%
%TO.N,/A0*%
X119500000Y-97860000D03*
%TO.P,J1,16,Pin_16*%
%TO.N,/PB4_{MCU}*%
X119500000Y-100400000D03*
%TO.P,J1,17,Pin_17*%
%TO.N,/IRQ_PB7*%
X119500000Y-102940000D03*
%TO.P,J1,18,Pin_18*%
%TO.N,/CS1_PB6*%
X119500000Y-105480000D03*
%TO.P,J1,19,Pin_19*%
%TO.N,/CS2_PB5*%
X119500000Y-108020000D03*
%TO.P,J1,20,Pin_20*%
%TO.N,Net-(J1-Pin_20)*%
X119500000Y-110560000D03*
%TO.P,J1,21,Pin_21*%
%TO.N,/PB4*%
X134740000Y-110560000D03*
%TO.P,J1,22,Pin_22*%
%TO.N,/PB3*%
X134740000Y-108020000D03*
%TO.P,J1,23,Pin_23*%
%TO.N,/PB2*%
X134740000Y-105480000D03*
%TO.P,J1,24,Pin_24*%
%TO.N,/PB1*%
X134740000Y-102940000D03*
%TO.P,J1,25,Pin_25*%
%TO.N,/PB0*%
X134740000Y-100400000D03*
%TO.P,J1,26,Pin_26*%
%TO.N,/DB7*%
X134740000Y-97860000D03*
%TO.P,J1,27,Pin_27*%
%TO.N,/DB6*%
X134740000Y-95320000D03*
%TO.P,J1,28,Pin_28*%
%TO.N,/DB5*%
X134740000Y-92780000D03*
%TO.P,J1,29,Pin_29*%
%TO.N,/DB4*%
X134740000Y-90240000D03*
%TO.P,J1,30,Pin_30*%
%TO.N,/DB3*%
X134740000Y-87700000D03*
%TO.P,J1,31,Pin_31*%
%TO.N,/DB2*%
X134740000Y-85160000D03*
%TO.P,J1,32,Pin_32*%
%TO.N,/DB1*%
X134740000Y-82620000D03*
%TO.P,J1,33,Pin_33*%
%TO.N,/DB0*%
X134740000Y-80080000D03*
%TO.P,J1,34,Pin_34*%
%TO.N,/PA7*%
X134740000Y-77540000D03*
%TO.P,J1,35,Pin_35*%
%TO.N,/PA6*%
X134740000Y-75000000D03*
%TO.P,J1,36,Pin_36*%
%TO.N,/PA5*%
X134740000Y-72460000D03*
%TO.P,J1,37,Pin_37*%
%TO.N,/PA4*%
X134740000Y-69920000D03*
%TO.P,J1,38,Pin_38*%
%TO.N,/PA3*%
X134740000Y-67380000D03*
%TO.P,J1,39,Pin_39*%
%TO.N,/PA2*%
X134740000Y-64840000D03*
%TO.P,J1,40,Pin_40*%
%TO.N,/PA1*%
X134740000Y-62300000D03*
%TD*%
D13*
%TO.P,JP2,1,A*%
%TO.N,GND*%
X110740000Y-62060000D03*
D14*
%TO.P,JP2,2,B*%
%TO.N,Net-(J1-Pin_1)*%
X112040000Y-62060000D03*
%TD*%
D11*
%TO.P,J5,1,Pin_1*%
%TO.N,/MISO*%
X88120000Y-111160000D03*
D12*
%TO.P,J5,2,Pin_2*%
%TO.N,+5V*%
X88120000Y-113700000D03*
%TO.P,J5,3,Pin_3*%
%TO.N,/SCK*%
X85580000Y-111160000D03*
%TO.P,J5,4,Pin_4*%
%TO.N,/MOSI*%
X85580000Y-113700000D03*
%TO.P,J5,5,Pin_5*%
%TO.N,/RESET_{MCU}*%
X83040000Y-111160000D03*
%TO.P,J5,6,Pin_6*%
%TO.N,GND*%
X83040000Y-113700000D03*
%TD*%
D11*
%TO.P,J3,1,Pin_1*%
%TO.N,/A1*%
X104040000Y-75600000D03*
D12*
%TO.P,J3,2,Pin_2*%
%TO.N,/A0*%
X106580000Y-75600000D03*
%TO.P,J3,3,Pin_3*%
%TO.N,/A3*%
X104040000Y-78140000D03*
%TO.P,J3,4,Pin_4*%
%TO.N,/A2*%
X106580000Y-78140000D03*
%TO.P,J3,5,Pin_5*%
%TO.N,/A5*%
X104040000Y-80680000D03*
%TO.P,J3,6,Pin_6*%
%TO.N,/A4*%
X106580000Y-80680000D03*
%TO.P,J3,7,Pin_7*%
%TO.N,/A7*%
X104040000Y-83220000D03*
%TO.P,J3,8,Pin_8*%
%TO.N,/A6*%
X106580000Y-83220000D03*
%TO.P,J3,9,Pin_9*%
%TO.N,/PA1*%
X104040000Y-85760000D03*
%TO.P,J3,10,Pin_10*%
%TO.N,/PA0*%
X106580000Y-85760000D03*
%TO.P,J3,11,Pin_11*%
%TO.N,/PA3*%
X104040000Y-88300000D03*
%TO.P,J3,12,Pin_12*%
%TO.N,/PA2*%
X106580000Y-88300000D03*
%TO.P,J3,13,Pin_13*%
%TO.N,/PA5*%
X104040000Y-90840000D03*
%TO.P,J3,14,Pin_14*%
%TO.N,/PA4*%
X106580000Y-90840000D03*
%TO.P,J3,15,Pin_15*%
%TO.N,/PA7*%
X104040000Y-93380000D03*
%TO.P,J3,16,Pin_16*%
%TO.N,/PA6*%
X106580000Y-93380000D03*
%TO.P,J3,17,Pin_17*%
%TO.N,/PB4*%
X104040000Y-95920000D03*
%TO.P,J3,18,Pin_18*%
%TO.N,/CS2_PB5*%
X106580000Y-95920000D03*
%TO.P,J3,19,Pin_19*%
%TO.N,/PB2*%
X104040000Y-98460000D03*
%TO.P,J3,20,Pin_20*%
%TO.N,/PB3*%
X106580000Y-98460000D03*
%TO.P,J3,21,Pin_21*%
%TO.N,/PB0*%
X104040000Y-101000000D03*
%TO.P,J3,22,Pin_22*%
%TO.N,/PB1*%
X106580000Y-101000000D03*
%TO.P,J3,23,Pin_23*%
%TO.N,/PG2*%
X104040000Y-103540000D03*
%TO.P,J3,24,Pin_24*%
%TO.N,/PD7*%
X106580000Y-103540000D03*
%TO.P,J3,25,Pin_25*%
%TO.N,/A8*%
X104040000Y-106080000D03*
%TO.P,J3,26,Pin_26*%
%TO.N,/A9*%
X106580000Y-106080000D03*
%TO.P,J3,27,Pin_27*%
%TO.N,/PL6*%
X104040000Y-108620000D03*
%TO.P,J3,28,Pin_28*%
%TO.N,/PL7*%
X106580000Y-108620000D03*
%TO.P,J3,29,Pin_29*%
%TO.N,/PL4*%
X104040000Y-111160000D03*
%TO.P,J3,30,Pin_30*%
%TO.N,/PL5*%
X106580000Y-111160000D03*
%TO.P,J3,31,Pin_31*%
%TO.N,/PL2*%
X104040000Y-113700000D03*
%TO.P,J3,32,Pin_32*%
%TO.N,/PL3*%
X106580000Y-113700000D03*
%TD*%
D17*
%TO.N,/DB0*%
X78441472Y-101790000D03*
X109500000Y-92500000D03*
X96750000Y-96250000D03*
X121500000Y-88250000D03*
X130250000Y-80000000D03*
X96750000Y-98500000D03*
%TO.N,/PB4*%
X137500000Y-107500000D03*
X137500000Y-100000000D03*
%TO.N,/DB5*%
X100750000Y-107750000D03*
%TO.N,/CS1_PB6*%
X102250000Y-102250000D03*
%TO.N,/DB1*%
X129250000Y-108000000D03*
X93000000Y-105500000D03*
%TO.N,/PA2*%
X117000000Y-86500000D03*
X131500000Y-77000000D03*
%TO.N,/PA5*%
X113250000Y-91250000D03*
X123000000Y-84500000D03*
X121000000Y-85500000D03*
%TO.N,/PA1*%
X121000000Y-91500000D03*
X129000000Y-83000000D03*
X116500000Y-93500000D03*
%TO.N,/PB6_{MCU}*%
X86750000Y-89750000D03*
%TO.N,/PB3*%
X121000000Y-101000000D03*
X136500000Y-101000000D03*
X115250000Y-99250000D03*
%TO.N,/DB2*%
X121500000Y-97500000D03*
X101600000Y-104330000D03*
%TO.N,/PA7*%
X117000000Y-96000000D03*
%TO.N,/PA3*%
X117000000Y-84500000D03*
X127000000Y-78500000D03*
%TO.N,/A4*%
X117000000Y-89750000D03*
%TO.N,/PB1*%
X121250000Y-102750000D03*
%TO.N,/DB6*%
X132000000Y-117500000D03*
%TO.N,/PA4*%
X116000000Y-85750000D03*
%TO.N,/PB7_{MCU}*%
X89000000Y-92000000D03*
X75000000Y-92000000D03*
%TO.N,/DB3*%
X101000000Y-106750000D03*
%TO.N,/PH1*%
X95250000Y-92750000D03*
X105000000Y-84500000D03*
X83750000Y-95920000D03*
%TO.N,/PB2*%
X105500000Y-104930000D03*
%TO.N,/IRQ_PB7*%
X110000000Y-114500000D03*
X123000000Y-114500000D03*
X88750000Y-101000000D03*
X102750000Y-112500000D03*
X123000000Y-103360000D03*
X123000000Y-106000000D03*
%TO.N,/DB4*%
X95120000Y-108620000D03*
%TO.N,/CS2_PB5*%
X109000000Y-97860000D03*
X112750000Y-102500000D03*
%TO.N,/PE3*%
X67250000Y-84500000D03*
X69000000Y-83000000D03*
%TO.N,/PD3*%
X70249602Y-91348927D03*
%TO.N,+5V*%
X56250000Y-79000000D03*
X88120000Y-118120000D03*
X65250000Y-118000000D03*
X65250000Y-112250000D03*
%TO.N,/PB5_{MCU}*%
X65950000Y-95258380D03*
X68650000Y-94500000D03*
%TO.N,GND*%
X56846754Y-81339032D03*
X83040000Y-116600000D03*
%TO.N,/PE0*%
X57250000Y-88250000D03*
%TO.N,/PJ1*%
X66250000Y-92542943D03*
%TO.N,/PH6*%
X66250000Y-91247301D03*
X68750000Y-88250000D03*
%TO.N,/PD2*%
X69500000Y-92250000D03*
%TO.N,/PG5*%
X68390000Y-102110000D03*
%TO.N,/PH3*%
X67000000Y-87500000D03*
X69250000Y-84750000D03*
X71000000Y-84500000D03*
%TO.N,/PH5*%
X68750000Y-87250000D03*
X66700735Y-89450735D03*
%TO.N,/PJ0*%
X65250000Y-83500000D03*
X66000000Y-85750000D03*
%TO.N,/PH4*%
X66250000Y-96000000D03*
X72750000Y-89000000D03*
X68650000Y-96500000D03*
%TO.N,/PL4*%
X96750000Y-115250000D03*
X96750000Y-117650000D03*
X58750000Y-78500000D03*
X57000000Y-80500000D03*
%TO.N,/PG2*%
X75000000Y-94750000D03*
X65350000Y-93340000D03*
X76750000Y-94750000D03*
X83450735Y-103299265D03*
%TO.N,/PL6*%
X67000000Y-112000000D03*
%TO.N,/PD7*%
X69150000Y-112550000D03*
X66250000Y-101250000D03*
X66200735Y-103450735D03*
%TO.N,/PL7*%
X84250000Y-117250000D03*
X59133167Y-117100000D03*
X85500000Y-116750000D03*
%TO.N,/PL3*%
X60500000Y-117250000D03*
X95500000Y-117500000D03*
X100000000Y-116000000D03*
%TO.N,/RESET_{MCU}*%
X69250000Y-98000000D03*
X70500000Y-99750000D03*
X63250000Y-81250000D03*
%TD*%
D18*
%TO.N,/DB0*%
X95500000Y-101750000D02*
X96750000Y-100500000D01*
X78481472Y-101750000D02*
X95500000Y-101750000D01*
X78441472Y-101790000D02*
X78481472Y-101750000D01*
X130250000Y-80000000D02*
X122000000Y-88250000D01*
X109230000Y-92230000D02*
X109500000Y-92500000D01*
X96750000Y-96250000D02*
X100770000Y-92230000D01*
X96750000Y-100500000D02*
X96750000Y-98500000D01*
X122000000Y-88250000D02*
X121500000Y-88250000D01*
X100770000Y-92230000D02*
X109230000Y-92230000D01*
%TO.N,/PB4*%
X106103654Y-94770000D02*
X107056346Y-94770000D01*
X105030000Y-95843654D02*
X106103654Y-94770000D01*
X137500000Y-107500000D02*
X137500000Y-107800000D01*
X104040000Y-95920000D02*
X105030000Y-96910000D01*
X110036346Y-97750000D02*
X114750000Y-97750000D01*
X137500000Y-107800000D02*
X134740000Y-110560000D01*
X105030000Y-96910000D02*
X105030000Y-95843654D01*
X114750000Y-97750000D02*
X115897502Y-98897502D01*
X115897502Y-98897502D02*
X136397502Y-98897502D01*
X136397502Y-98897502D02*
X137500000Y-100000000D01*
X107056346Y-94770000D02*
X110036346Y-97750000D01*
%TO.N,/DB5*%
X76256346Y-107470000D02*
X72650000Y-107470000D01*
X72650000Y-107470000D02*
X71500000Y-108620000D01*
X100750000Y-107750000D02*
X76536346Y-107750000D01*
X76536346Y-107750000D02*
X76256346Y-107470000D01*
%TO.N,/PB0*%
X133720000Y-99380000D02*
X134740000Y-100400000D01*
X104540000Y-101500000D02*
X104540000Y-101413654D01*
X104040000Y-101000000D02*
X105190000Y-99850000D01*
X107956346Y-100750000D02*
X117427502Y-100750000D01*
X104040000Y-101000000D02*
X104540000Y-101500000D01*
X105190000Y-99850000D02*
X107056346Y-99850000D01*
X118797502Y-99380000D02*
X133720000Y-99380000D01*
X107056346Y-99850000D02*
X107956346Y-100750000D01*
X117427502Y-100750000D02*
X118797502Y-99380000D01*
%TO.N,Net-(J1-Pin_1)*%
X119260000Y-62060000D02*
X119500000Y-62300000D01*
X112040000Y-62060000D02*
X119260000Y-62060000D01*
%TO.N,/CS1_PB6*%
X102250000Y-102250000D02*
X97310000Y-97310000D01*
X97310000Y-97310000D02*
X72890000Y-97310000D01*
X72890000Y-97310000D02*
X71500000Y-95920000D01*
%TO.N,/DB1*%
X73563654Y-102390000D02*
X89890000Y-102390000D01*
X133440000Y-94897502D02*
X134337502Y-94000000D01*
X133440000Y-96340000D02*
X133440000Y-94897502D01*
X134337502Y-94000000D02*
X135242498Y-94000000D01*
X135242498Y-94000000D02*
X136750000Y-92492498D01*
X135194314Y-96340000D02*
X133440000Y-96340000D01*
X133290000Y-103960000D02*
X135442498Y-103960000D01*
X71500000Y-103540000D02*
X71790000Y-103250000D01*
X135442498Y-103960000D02*
X138100000Y-101302498D01*
X72890000Y-103250000D02*
X72890000Y-103063654D01*
X136750000Y-92492498D02*
X136750000Y-84630000D01*
X89890000Y-102390000D02*
X93000000Y-105500000D01*
X72890000Y-103063654D02*
X73563654Y-102390000D01*
X129250000Y-108000000D02*
X133290000Y-103960000D01*
X138100000Y-101302498D02*
X138100000Y-99245686D01*
X71790000Y-103250000D02*
X72890000Y-103250000D01*
X136750000Y-84630000D02*
X134740000Y-82620000D01*
X138100000Y-99245686D02*
X135194314Y-96340000D01*
%TO.N,/PA2*%
X122000000Y-86500000D02*
X131500000Y-77000000D01*
X117000000Y-86500000D02*
X122000000Y-86500000D01*
%TO.N,/PA5*%
X111690000Y-89690000D02*
X113250000Y-91250000D01*
X104040000Y-90840000D02*
X105190000Y-89690000D01*
X122000000Y-84500000D02*
X123000000Y-84500000D01*
X105190000Y-89690000D02*
X111690000Y-89690000D01*
X121000000Y-85500000D02*
X122000000Y-84500000D01*
%TO.N,/PA1*%
X110150000Y-87150000D02*
X105430000Y-87150000D01*
X121000000Y-91028184D02*
X129000000Y-83028184D01*
X105430000Y-87150000D02*
X104040000Y-85760000D01*
X116500000Y-93500000D02*
X110150000Y-87150000D01*
X129028184Y-83000000D02*
X129000000Y-83028184D01*
X129000000Y-83000000D02*
X129028184Y-83000000D01*
X121000000Y-91500000D02*
X121000000Y-91028184D01*
X129000000Y-83028184D02*
X129000000Y-83000000D01*
%TO.N,/PB6_{MCU}*%
X74040000Y-90840000D02*
X85660000Y-90840000D01*
X85660000Y-90840000D02*
X86750000Y-89750000D01*
%TO.N,/PB3*%
X106580000Y-98460000D02*
X114460000Y-98460000D01*
X121420000Y-101420000D02*
X136080000Y-101420000D01*
X121000000Y-101000000D02*
X121420000Y-101420000D01*
X114460000Y-98460000D02*
X115250000Y-99250000D01*
X136080000Y-101420000D02*
X136500000Y-101000000D01*
%TO.N,/A3*%
X107056346Y-76990000D02*
X105190000Y-76990000D01*
X105190000Y-76990000D02*
X104040000Y-78140000D01*
X119500000Y-90240000D02*
X111740000Y-82480000D01*
X111740000Y-81673654D02*
X107056346Y-76990000D01*
X111740000Y-82480000D02*
X111740000Y-81673654D01*
%TO.N,Net-(J1-Pin_20)*%
X112890000Y-110560000D02*
X119500000Y-110560000D01*
%TO.N,/DB2*%
X95078529Y-109770000D02*
X71020000Y-109770000D01*
X133840000Y-85160000D02*
X122000000Y-97000000D01*
X71976346Y-107230000D02*
X73126346Y-106080000D01*
X101600000Y-107748529D02*
X100998529Y-108350000D01*
X122000000Y-97000000D02*
X121500000Y-97500000D01*
X70350000Y-109100000D02*
X70350000Y-108130000D01*
X96101471Y-108250000D02*
X95850000Y-108501471D01*
X100401471Y-108250000D02*
X96101471Y-108250000D01*
X101600000Y-104330000D02*
X101600000Y-107748529D01*
X95850000Y-108998529D02*
X95078529Y-109770000D01*
X100501471Y-108350000D02*
X100401471Y-108250000D01*
X134740000Y-85160000D02*
X133840000Y-85160000D01*
X70350000Y-108130000D02*
X71250000Y-107230000D01*
X95850000Y-108501471D02*
X95850000Y-108998529D01*
X100998529Y-108350000D02*
X100501471Y-108350000D01*
X71250000Y-107230000D02*
X71976346Y-107230000D01*
X73126346Y-106080000D02*
X74040000Y-106080000D01*
X71020000Y-109770000D02*
X70350000Y-109100000D01*
%TO.N,/PA7*%
X131400000Y-80880000D02*
X131400000Y-85142498D01*
X117500000Y-96500000D02*
X117000000Y-96000000D01*
X131400000Y-85142498D02*
X120042498Y-96500000D01*
X134740000Y-77540000D02*
X131400000Y-80880000D01*
X120042498Y-96500000D02*
X117500000Y-96500000D01*
%TO.N,/PA3*%
X117000000Y-84500000D02*
X117360000Y-84140000D01*
X117360000Y-84140000D02*
X121360000Y-84140000D01*
X121360000Y-84140000D02*
X127000000Y-78500000D01*
%TO.N,/A4*%
X107930000Y-80680000D02*
X117000000Y-89750000D01*
X106580000Y-80680000D02*
X107930000Y-80680000D01*
%TO.N,/PB1*%
X121250000Y-102750000D02*
X134550000Y-102750000D01*
X134550000Y-102750000D02*
X134740000Y-102940000D01*
%TO.N,/DB6*%
X140650000Y-95650000D02*
X140320000Y-95320000D01*
X132000000Y-117500000D02*
X140650000Y-108850000D01*
X140320000Y-95320000D02*
X134740000Y-95320000D01*
X140650000Y-108850000D02*
X140650000Y-95650000D01*
%TO.N,/A2*%
X106103654Y-81830000D02*
X107164314Y-81830000D01*
X106580000Y-78140000D02*
X105430000Y-79290000D01*
X105430000Y-81156346D02*
X106103654Y-81830000D01*
X118114314Y-92780000D02*
X119500000Y-92780000D01*
X107164314Y-81830000D02*
X118114314Y-92780000D01*
X105430000Y-79290000D02*
X105430000Y-81156346D01*
%TO.N,/PA4*%
X120940000Y-78560000D02*
X119297502Y-78560000D01*
X128160000Y-76500000D02*
X134740000Y-69920000D01*
X116000000Y-81857502D02*
X116000000Y-85750000D01*
X123000000Y-76500000D02*
X128160000Y-76500000D01*
X119297502Y-78560000D02*
X116000000Y-81857502D01*
X123000000Y-76500000D02*
X120940000Y-78560000D01*
%TO.N,/PB7_{MCU}*%
X89000000Y-92000000D02*
X75000000Y-92000000D01*
%TO.N,/PA6*%
X131000000Y-78740000D02*
X134740000Y-75000000D01*
X128500000Y-85500000D02*
X131000000Y-83000000D01*
X107430000Y-94230000D02*
X119772498Y-94230000D01*
X131000000Y-83000000D02*
X131000000Y-78740000D01*
X106580000Y-93380000D02*
X107430000Y-94230000D01*
X128500000Y-85502498D02*
X128500000Y-85500000D01*
X119772498Y-94230000D02*
X128500000Y-85502498D01*
%TO.N,/DB3*%
X72080000Y-105500000D02*
X71500000Y-106080000D01*
X74996346Y-106750000D02*
X75190000Y-106556346D01*
X75190000Y-106556346D02*
X75190000Y-105603654D01*
X135130000Y-87310000D02*
X134740000Y-87700000D01*
X101000000Y-106750000D02*
X74996346Y-106750000D01*
X72993654Y-105500000D02*
X72080000Y-105500000D01*
X74516346Y-104930000D02*
X73563654Y-104930000D01*
X73563654Y-104930000D02*
X72993654Y-105500000D01*
X75190000Y-105603654D02*
X74516346Y-104930000D01*
%TO.N,/PH1*%
X83750000Y-95920000D02*
X74040000Y-95920000D01*
X83920000Y-95750000D02*
X83750000Y-95920000D01*
X95423654Y-92750000D02*
X95250000Y-92750000D01*
X105000000Y-84500000D02*
X103673654Y-84500000D01*
X95250000Y-92750000D02*
X95250000Y-92923654D01*
X103673654Y-84500000D02*
X95423654Y-92750000D01*
%TO.N,/PB4_{MCU}*%
X117550000Y-101250000D02*
X108800000Y-101250000D01*
X103198529Y-102150000D02*
X97898529Y-96850000D01*
X87250000Y-88625000D02*
X87250000Y-88500000D01*
X118400000Y-100400000D02*
X117550000Y-101250000D01*
X107900000Y-102150000D02*
X103198529Y-102150000D01*
X94625000Y-96000000D02*
X87250000Y-88625000D01*
X108800000Y-101250000D02*
X107900000Y-102150000D01*
X87250000Y-88500000D02*
X74240000Y-88500000D01*
X97898529Y-96850000D02*
X95475000Y-96850000D01*
X95475000Y-96850000D02*
X94625000Y-96000000D01*
X74240000Y-88500000D02*
X74040000Y-88300000D01*
X119500000Y-100400000D02*
X118400000Y-100400000D01*
%TO.N,/PB2*%
X118797502Y-104460000D02*
X116087502Y-101750000D01*
X134740000Y-105480000D02*
X127250000Y-112970000D01*
X109996346Y-101750000D02*
X106816346Y-104930000D01*
X134160000Y-104900000D02*
X134740000Y-105480000D01*
X116087502Y-101750000D02*
X109996346Y-101750000D01*
X127250000Y-112970000D02*
X127250000Y-103250000D01*
X127250000Y-103250000D02*
X126040000Y-104460000D01*
X106816346Y-104930000D02*
X105500000Y-104930000D01*
X126040000Y-104460000D02*
X118797502Y-104460000D01*
%TO.N,/IRQ_PB7*%
X121050000Y-103817988D02*
X121617988Y-103250000D01*
X122890000Y-103250000D02*
X123000000Y-103360000D01*
X121050000Y-104060000D02*
X120620000Y-104060000D01*
X102750000Y-112500000D02*
X108000000Y-112500000D01*
X87600000Y-99850000D02*
X72650000Y-99850000D01*
X108000000Y-112500000D02*
X110000000Y-114500000D01*
X120620000Y-104060000D02*
X119500000Y-102940000D01*
X121617988Y-103250000D02*
X122890000Y-103250000D01*
X72650000Y-99850000D02*
X71500000Y-101000000D01*
X123000000Y-114500000D02*
X123000000Y-106000000D01*
X121050000Y-104060000D02*
X121050000Y-103817988D01*
X88750000Y-101000000D02*
X87600000Y-99850000D01*
%TO.N,/DB4*%
X95120000Y-108620000D02*
X74040000Y-108620000D01*
%TO.N,/CS2_PB5*%
X108410000Y-97750000D02*
X109000000Y-97750000D01*
X112736123Y-108020000D02*
X112750000Y-102500000D01*
X109000000Y-97750000D02*
X109000000Y-98000000D01*
X106580000Y-95920000D02*
X108410000Y-97750000D01*
X112736123Y-108020000D02*
X119500000Y-108020000D01*
X112750000Y-102500000D02*
X112736123Y-102486123D01*
%TO.N,/PA0*%
X105190000Y-82743654D02*
X105190000Y-83591471D01*
X102080000Y-81830000D02*
X104276346Y-81830000D01*
X119410000Y-64840000D02*
X109800000Y-74450000D01*
X109800000Y-74450000D02*
X102890000Y-74450000D01*
X101500000Y-75840000D02*
X101500000Y-81250000D01*
X102890000Y-74450000D02*
X101500000Y-75840000D01*
X101500000Y-81250000D02*
X102080000Y-81830000D01*
X119500000Y-64840000D02*
X119410000Y-64840000D01*
X104276346Y-81830000D02*
X105190000Y-82743654D01*
X105190000Y-83591471D02*
X106580000Y-84981471D01*
X106580000Y-84981471D02*
X106580000Y-85760000D01*
%TO.N,/PE3*%
X71500000Y-80680000D02*
X69180000Y-83000000D01*
X61650000Y-89650000D02*
X63350000Y-89650000D01*
X63350000Y-89650000D02*
X67250000Y-85750000D01*
X69000000Y-83000000D02*
X69180000Y-83000000D01*
X67250000Y-85750000D02*
X67250000Y-84500000D01*
X60500000Y-90800000D02*
X61650000Y-89650000D01*
%TO.N,/PD3*%
X70050000Y-92548529D02*
X70050000Y-96096346D01*
X70249602Y-91348927D02*
X70249602Y-91673352D01*
X70249602Y-91673352D02*
X70184729Y-91738225D01*
X71263654Y-97310000D02*
X72324314Y-97310000D01*
X70100000Y-91498529D02*
X70100000Y-92498529D01*
X73474314Y-98460000D02*
X74040000Y-98460000D01*
X70100000Y-92498529D02*
X70050000Y-92548529D01*
X70050000Y-96096346D02*
X71263654Y-97310000D01*
X70249602Y-91348927D02*
X70100000Y-91498529D01*
X72324314Y-97310000D02*
X73474314Y-98460000D01*
%TO.N,+5V*%
X65250000Y-106000000D02*
X67650000Y-103600000D01*
X67850000Y-84748529D02*
X67850000Y-71630000D01*
X65250000Y-118000000D02*
X64930000Y-118320000D01*
X67650000Y-89915685D02*
X67700735Y-89864950D01*
X56200000Y-115015686D02*
X58434314Y-117250000D01*
X56250000Y-79000000D02*
X56200000Y-115015686D01*
X67650000Y-103600000D02*
X67650000Y-89915685D01*
X56200000Y-78963654D02*
X56250000Y-79000000D01*
X67850000Y-71630000D02*
X71500000Y-67980000D01*
X64930000Y-118320000D02*
X59504640Y-118320000D01*
X110590000Y-118250000D02*
X88250000Y-118250000D01*
X65250000Y-112250000D02*
X65250000Y-106000000D01*
X111590000Y-117250000D02*
X110590000Y-118250000D01*
X67700735Y-89864950D02*
X67700735Y-84897794D01*
X88120000Y-118120000D02*
X65370000Y-118120000D01*
X59504640Y-118320000D02*
X58434477Y-117249837D01*
X67700735Y-84897794D02*
X67850000Y-84748529D01*
X111590000Y-117250000D02*
X111590000Y-110560000D01*
X65370000Y-118120000D02*
X65250000Y-118000000D01*
%TO.N,/PB5_{MCU}*%
X70500000Y-89300000D02*
X71500000Y-88300000D01*
X65950000Y-95258380D02*
X65643091Y-95258380D01*
X69962743Y-89300000D02*
X70500000Y-89300000D01*
X63040000Y-97861471D02*
X63040000Y-98420000D01*
X65643091Y-95258380D02*
X63040000Y-97861471D01*
X68450000Y-94300000D02*
X68450000Y-90812743D01*
X68650000Y-94500000D02*
X68450000Y-94300000D01*
X68450000Y-90812743D02*
X69962743Y-89300000D01*
X71750000Y-88963654D02*
X71750000Y-88550000D01*
X71750000Y-88550000D02*
X71500000Y-88300000D01*
%TO.N,GND*%
X67050000Y-72280000D02*
X63250000Y-76080000D01*
X56600230Y-114850230D02*
X58250000Y-116500000D01*
X63250000Y-76080000D02*
X62920000Y-75750000D01*
X56846754Y-81339032D02*
X56910968Y-81339032D01*
X56846754Y-81339032D02*
X56646475Y-81539311D01*
X71500000Y-65440000D02*
X67050000Y-69890000D01*
X107360000Y-65440000D02*
X110740000Y-62060000D01*
X82940000Y-116500000D02*
X83040000Y-116600000D01*
X74040000Y-65440000D02*
X107360000Y-65440000D01*
X58250000Y-116500000D02*
X82940000Y-116500000D01*
X67050000Y-69890000D02*
X67050000Y-72280000D01*
X56646475Y-81539311D02*
X56600230Y-114850230D01*
%TO.N,/PE0*%
X58260000Y-88260000D02*
X60500000Y-88260000D01*
X57250000Y-88250000D02*
X58250000Y-88250000D01*
X58250000Y-88250000D02*
X58260000Y-88260000D01*
%TO.N,/PJ1*%
X73366346Y-93380000D02*
X74040000Y-93380000D01*
X65038529Y-94500000D02*
X61880000Y-94500000D01*
X61880000Y-94500000D02*
X60500000Y-95880000D01*
X66250000Y-92542943D02*
X66250000Y-93288529D01*
X66250000Y-93288529D02*
X65038529Y-94500000D01*
X73474314Y-93380000D02*
X74040000Y-93380000D01*
%TO.N,/PH6*%
X69010000Y-88250000D02*
X68750000Y-88250000D01*
X60966346Y-94500000D02*
X60253654Y-94500000D01*
X61650000Y-93103654D02*
X61650000Y-93816346D01*
X71500000Y-85760000D02*
X69010000Y-88250000D01*
X60253654Y-94500000D02*
X59250000Y-95503654D01*
X61650000Y-93816346D02*
X60966346Y-94500000D01*
X59250000Y-95503654D02*
X59250000Y-102250000D01*
X66250000Y-91247301D02*
X66076485Y-91247301D01*
X62563654Y-92190000D02*
X61650000Y-93103654D01*
X65133786Y-92190000D02*
X62563654Y-92190000D01*
X59250000Y-102250000D02*
X60500000Y-103500000D01*
X66076485Y-91247301D02*
X65133786Y-92190000D01*
%TO.N,/PD2*%
X69650000Y-92400000D02*
X69650000Y-96312845D01*
X71500000Y-98162845D02*
X71500000Y-98460000D01*
X69650000Y-96312845D02*
X71500000Y-98162845D01*
X71500000Y-98000000D02*
X71500000Y-98460000D01*
X69500000Y-92250000D02*
X69650000Y-92400000D01*
%TO.N,/PG5*%
X71090000Y-86910000D02*
X71976346Y-86910000D01*
X72890000Y-81830000D02*
X74040000Y-80680000D01*
X68100735Y-90030636D02*
X68100735Y-89899265D01*
X68050000Y-101770000D02*
X68050000Y-90081371D01*
X68390000Y-102110000D02*
X68050000Y-101770000D01*
X68100735Y-89899265D02*
X71090000Y-86910000D01*
X71976346Y-86910000D02*
X72890000Y-85996346D01*
X72890000Y-85996346D02*
X72890000Y-81830000D01*
X68050000Y-90081371D02*
X68100735Y-90030636D01*
%TO.N,/PH3*%
X67000000Y-87500000D02*
X67250000Y-87500000D01*
X67300735Y-89699264D02*
X67250000Y-89749999D01*
X69250000Y-84750000D02*
X70750000Y-84750000D01*
X64230000Y-104850000D02*
X63040000Y-106040000D01*
X67250000Y-103250000D02*
X65650000Y-104850000D01*
X70750000Y-84750000D02*
X71000000Y-84500000D01*
X65650000Y-104850000D02*
X64230000Y-104850000D01*
X67000000Y-87500000D02*
X67300735Y-87800735D01*
X67300735Y-87800735D02*
X67300735Y-89699264D01*
X67250000Y-89749999D02*
X67250000Y-103250000D01*
%TO.N,/PH5*%
X75500000Y-80513654D02*
X75500000Y-84300000D01*
X75500000Y-84300000D02*
X74040000Y-85760000D01*
X74486346Y-79500000D02*
X75500000Y-80513654D01*
X72890000Y-80203654D02*
X73593654Y-79500000D01*
X72050660Y-81995686D02*
X72890000Y-81156346D01*
X68500000Y-87250000D02*
X68250000Y-87000000D01*
X68250000Y-84843654D02*
X71097968Y-81995686D01*
X73593654Y-79500000D02*
X74486346Y-79500000D01*
X68250000Y-87000000D02*
X68250000Y-84843654D01*
X66700735Y-89450735D02*
X66850000Y-89600000D01*
X66850000Y-99690000D02*
X63040000Y-103500000D01*
X66850000Y-89600000D02*
X66850000Y-99690000D01*
X68750000Y-87250000D02*
X68500000Y-87250000D01*
X72890000Y-81156346D02*
X72890000Y-80203654D01*
X71097968Y-81995686D02*
X72050660Y-81995686D01*
%TO.N,/PE1*%
X72650000Y-68456346D02*
X72650000Y-67503654D01*
X71976346Y-66830000D02*
X71023654Y-66830000D01*
X71023654Y-66830000D02*
X67450000Y-70403654D01*
X71976346Y-69130000D02*
X72650000Y-68456346D01*
X72650000Y-67503654D02*
X71976346Y-66830000D01*
X67450000Y-73050000D02*
X64500000Y-76000000D01*
X67450000Y-70403654D02*
X67450000Y-73050000D01*
X69850000Y-70303654D02*
X71023654Y-69130000D01*
X64500000Y-86800000D02*
X63040000Y-88260000D01*
X64500000Y-76000000D02*
X64500000Y-86800000D01*
X71500000Y-75600000D02*
X69850000Y-73950000D01*
X69850000Y-73950000D02*
X69850000Y-70303654D01*
X71023654Y-69130000D02*
X71976346Y-69130000D01*
%TO.N,/PJ0*%
X65250000Y-83500000D02*
X65250000Y-85000000D01*
X65250000Y-85000000D02*
X66000000Y-85750000D01*
%TO.N,/PH4*%
X69250000Y-94748529D02*
X68898529Y-95100000D01*
X68750000Y-95750000D02*
X68450000Y-96050000D01*
X68450000Y-96050000D02*
X68450000Y-96300000D01*
X72060000Y-89690000D02*
X70675686Y-89690000D01*
X69250000Y-94251471D02*
X69250000Y-94748529D01*
X63400000Y-102350000D02*
X62563654Y-102350000D01*
X62563654Y-102350000D02*
X61890000Y-103023654D01*
X68450000Y-96300000D02*
X68650000Y-96500000D01*
X68898529Y-95100000D02*
X68750000Y-95100000D01*
X61890000Y-104650000D02*
X60500000Y-106040000D01*
X61890000Y-103023654D02*
X61890000Y-104650000D01*
X66250000Y-96000000D02*
X66250000Y-99500000D01*
X70300000Y-89700000D02*
X68850000Y-91150000D01*
X68898529Y-93900000D02*
X69250000Y-94251471D01*
X72750000Y-89000000D02*
X72060000Y-89690000D01*
X70665686Y-89700000D02*
X70300000Y-89700000D01*
X68850000Y-91150000D02*
X68850000Y-93900000D01*
X66250000Y-99500000D02*
X63400000Y-102350000D01*
X68750000Y-95100000D02*
X68750000Y-95750000D01*
X70675686Y-89690000D02*
X70665686Y-89700000D01*
X68850000Y-93900000D02*
X68898529Y-93900000D01*
%TO.N,/PL4*%
X57834315Y-81650000D02*
X57446754Y-81262439D01*
X58750000Y-78605686D02*
X58750000Y-78605686D01*
X60976346Y-87110000D02*
X60023654Y-87110000D01*
X59338954Y-118720000D02*
X55800230Y-115181276D01*
X55650000Y-79248529D02*
X55650000Y-78751471D01*
X58415686Y-116100000D02*
X58415686Y-91017968D01*
X61650000Y-87783654D02*
X60976346Y-87110000D01*
X61186346Y-77230000D02*
X60233654Y-77230000D01*
X111511123Y-109195000D02*
X114235091Y-109195000D01*
X59471471Y-74930000D02*
X61186346Y-74930000D01*
X60976346Y-89410000D02*
X61650000Y-88736346D01*
X111039909Y-109666214D02*
X111511123Y-109195000D01*
X61186346Y-74930000D02*
X61860000Y-75603654D01*
X58855686Y-78500000D02*
X58750000Y-78500000D01*
X113062498Y-118720000D02*
X59338954Y-118720000D01*
X111190000Y-117084314D02*
X111190000Y-110983877D01*
X61890000Y-114136346D02*
X59926346Y-116100000D01*
X57834315Y-84920661D02*
X57834315Y-81650000D01*
X57446754Y-80696754D02*
X57000000Y-80500000D01*
X55800230Y-114849770D02*
X55849377Y-79447906D01*
X57000000Y-80500000D02*
X57250000Y-80500000D01*
X58415686Y-91017968D02*
X60023654Y-89410000D01*
X120800000Y-110982498D02*
X113062498Y-118720000D01*
X57446754Y-81262439D02*
X57446754Y-80696754D01*
X61860000Y-75603654D02*
X61860000Y-76556346D01*
X61650000Y-88736346D02*
X61650000Y-87783654D01*
X63040000Y-111120000D02*
X61890000Y-112270000D01*
X96750000Y-117650000D02*
X110624314Y-117650000D01*
X111039909Y-110833786D02*
X111039909Y-109666214D01*
X114580091Y-109540000D02*
X120202498Y-109540000D01*
X59926346Y-116100000D02*
X58415686Y-116100000D01*
X61860000Y-76556346D02*
X61186346Y-77230000D01*
X58750000Y-78500000D02*
X58750000Y-78605686D01*
X60233654Y-77230000D02*
X60179670Y-77176016D01*
X120800000Y-110137502D02*
X120800000Y-110982498D01*
X60023654Y-87110000D02*
X57834315Y-84920661D01*
X110624314Y-117650000D02*
X111190000Y-117084314D01*
X55650000Y-78751471D02*
X59471471Y-74930000D01*
X104040000Y-111160000D02*
X100840000Y-111160000D01*
X61890000Y-112270000D02*
X61890000Y-114136346D01*
X120202498Y-109540000D02*
X120800000Y-110137502D01*
X60179670Y-77176016D02*
X58855686Y-78500000D01*
X114235091Y-109195000D02*
X114580091Y-109540000D01*
X55800230Y-115181276D02*
X55800230Y-114849770D01*
X60023654Y-89410000D02*
X60976346Y-89410000D01*
X100840000Y-111160000D02*
X96750000Y-115250000D01*
X55849377Y-79447906D02*
X55650000Y-79248529D01*
X111190000Y-110983877D02*
X111039909Y-110833786D01*
%TO.N,/PL5*%
X105430000Y-110010000D02*
X103563654Y-110010000D01*
X103073654Y-110500000D02*
X100000000Y-110500000D01*
X64190000Y-114244314D02*
X64190000Y-110643654D01*
X63516346Y-109970000D02*
X61650000Y-109970000D01*
X106580000Y-111160000D02*
X105430000Y-110010000D01*
X65545686Y-115600000D02*
X64190000Y-114244314D01*
X64190000Y-110643654D02*
X63516346Y-109970000D01*
X94900000Y-115600000D02*
X65545686Y-115600000D01*
X100000000Y-110500000D02*
X94900000Y-115600000D01*
X103563654Y-110010000D02*
X103073654Y-110500000D01*
X61650000Y-109970000D02*
X60500000Y-111120000D01*
%TO.N,/PG2*%
X65350000Y-93340000D02*
X63040000Y-93340000D01*
X100000000Y-106250000D02*
X100250000Y-106000000D01*
X101541471Y-103540000D02*
X104040000Y-103540000D01*
X83450735Y-103299265D02*
X83549265Y-103299265D01*
X100250000Y-104831471D02*
X101541471Y-103540000D01*
X100250000Y-106000000D02*
X100250000Y-104831471D01*
X83549265Y-103299265D02*
X86500000Y-106250000D01*
X76750000Y-94750000D02*
X76730000Y-94770000D01*
X75000000Y-94750000D02*
X76750000Y-94750000D01*
X86500000Y-106250000D02*
X100000000Y-106250000D01*
%TO.N,/PL6*%
X67000000Y-112000000D02*
X69850000Y-114850000D01*
X69850000Y-114850000D02*
X95084314Y-114850000D01*
X95084314Y-114850000D02*
X99834314Y-110100000D01*
X102560000Y-110100000D02*
X104040000Y-108620000D01*
X99834314Y-110100000D02*
X102560000Y-110100000D01*
%TO.N,/PD7*%
X102000000Y-107230000D02*
X102000000Y-107914215D01*
X102000000Y-107914215D02*
X101164215Y-108750000D01*
X104516346Y-104690000D02*
X104516346Y-104930000D01*
X101164215Y-108750000D02*
X97250000Y-108750000D01*
X105190000Y-106556346D02*
X104516346Y-107230000D01*
X93450000Y-112550000D02*
X69200000Y-112550000D01*
X104516346Y-104930000D02*
X105190000Y-105603654D01*
X66200735Y-103450735D02*
X66250000Y-103401470D01*
X66250000Y-103401470D02*
X66250000Y-101250000D01*
X97250000Y-108750000D02*
X93450000Y-112550000D01*
X105190000Y-105603654D02*
X105190000Y-106556346D01*
X105666346Y-103540000D02*
X104516346Y-104690000D01*
X106580000Y-103540000D02*
X105666346Y-103540000D01*
X104516346Y-107230000D02*
X102000000Y-107230000D01*
%TO.N,/PL7*%
X59133167Y-117100000D02*
X59350000Y-117100000D01*
X65001471Y-117400000D02*
X65498529Y-117400000D01*
X64481471Y-117920000D02*
X65001471Y-117400000D01*
X59953167Y-117920000D02*
X64481471Y-117920000D01*
X83530000Y-117720000D02*
X84000000Y-117250000D01*
X84000000Y-117250000D02*
X84250000Y-117250000D01*
X110600000Y-112640000D02*
X106580000Y-108620000D01*
X108664215Y-116684314D02*
X110600000Y-114748529D01*
X85500000Y-116750000D02*
X108664215Y-116684314D01*
X65498529Y-117400000D02*
X65818529Y-117720000D01*
X84250000Y-117500000D02*
X84250000Y-117500000D01*
X84000000Y-117250000D02*
X84000000Y-117250000D01*
X59133167Y-117100000D02*
X59953167Y-117920000D01*
X65818529Y-117720000D02*
X83530000Y-117720000D01*
X85434314Y-116684314D02*
X85500000Y-116750000D01*
X110600000Y-114748529D02*
X110600000Y-112640000D01*
%TO.N,/PL3*%
X95500000Y-117500000D02*
X95500000Y-117350000D01*
X85748529Y-117350000D02*
X85924265Y-117174265D01*
X84799999Y-116400000D02*
X84799999Y-116898528D01*
X104280000Y-116000000D02*
X106580000Y-113700000D01*
X81748529Y-116998529D02*
X81950000Y-117200000D01*
X100000000Y-116000000D02*
X104280000Y-116000000D01*
X60500000Y-117250000D02*
X60751471Y-116998529D01*
X81950000Y-117200000D02*
X83288529Y-117200000D01*
X60751471Y-116998529D02*
X81748529Y-116998529D01*
X83640000Y-116848529D02*
X83640000Y-116400000D01*
X85924265Y-117174265D02*
X95174265Y-117174265D01*
X83288529Y-117200000D02*
X83640000Y-116848529D01*
X95174265Y-117174265D02*
X95500000Y-117500000D01*
X83640000Y-116400000D02*
X84799999Y-116400000D01*
X84799999Y-116898528D02*
X85251471Y-117350000D01*
X85251471Y-117350000D02*
X85748529Y-117350000D01*
%TO.N,/PL2*%
X101000000Y-113000000D02*
X101700000Y-113700000D01*
X65380000Y-116000000D02*
X98000000Y-116000000D01*
X101700000Y-113700000D02*
X104040000Y-113700000D01*
X98000000Y-116000000D02*
X101000000Y-113000000D01*
X63040000Y-113660000D02*
X65380000Y-116000000D01*
%TO.N,/RESET_{MCU}*%
X59207912Y-80727912D02*
X57564414Y-79084414D01*
X57564414Y-77722492D02*
X59067508Y-77722492D01*
X59067508Y-77722492D02*
X60710000Y-76080000D01*
X62727912Y-80727912D02*
X59207912Y-80727912D01*
X63250000Y-81250000D02*
X62727912Y-80727912D01*
X57564414Y-79084414D02*
X57564414Y-77722492D01*
X69250000Y-98000000D02*
X70500000Y-99250000D01*
X70500000Y-99250000D02*
X70500000Y-99750000D01*
%TD*%
M02*
