%TF.GenerationSoftware,KiCad,Pcbnew,8.0.4*%
%TF.CreationDate,2024-09-01T02:32:28-07:00*%
%TF.ProjectId,chip_tester,63686970-5f74-4657-9374-65722e6b6963,rev?*%
%TF.SameCoordinates,Original*%
%TF.FileFunction,Copper,L2,Bot*%
%TF.FilePolarity,Positive*%
%FSLAX46Y46*%
G04 Gerber Fmt 4.6, Leading zero omitted, Abs format (unit mm)*
G04 Created by KiCad (PCBNEW 8.0.4) date 2024-09-01 02:32:28*
%MOMM*%
%LPD*%
G01*
G04 APERTURE LIST*
%TA.AperFunction,ComponentPad*%
%ADD10R,1.700000X1.700000*%
%TD*%
%TA.AperFunction,ComponentPad*%
%ADD11O,1.700000X1.700000*%
%TD*%
%TA.AperFunction,ComponentPad*%
%ADD12R,2.000000X1.440000*%
%TD*%
%TA.AperFunction,ComponentPad*%
%ADD13O,2.000000X1.440000*%
%TD*%
%TA.AperFunction,ViaPad*%
%ADD14C,0.600000*%
%TD*%
%TA.AperFunction,Conductor*%
%ADD15C,0.200000*%
%TD*%
G04 APERTURE END LIST*
D10*
%TO.P,J4,1,Pin_1*%
%TO.N,/MISO*%
X60710000Y-71000000D03*
D11*
%TO.P,J4,2,Pin_2*%
%TO.N,+5V*%
X63250000Y-71000000D03*
%TO.P,J4,3,Pin_3*%
%TO.N,/SCK*%
X60710000Y-73540000D03*
%TO.P,J4,4,Pin_4*%
%TO.N,/MOSI*%
X63250000Y-73540000D03*
%TO.P,J4,5,Pin_5*%
%TO.N,/RESET_{MCU}*%
X60710000Y-76080000D03*
%TO.P,J4,6,Pin_6*%
%TO.N,GND*%
X63250000Y-76080000D03*
%TD*%
D10*
%TO.P,J5,1,Pin_1*%
%TO.N,/MISO*%
X88120000Y-111160000D03*
D11*
%TO.P,J5,2,Pin_2*%
%TO.N,+5V*%
X88120000Y-113700000D03*
%TO.P,J5,3,Pin_3*%
%TO.N,/SCK*%
X85580000Y-111160000D03*
%TO.P,J5,4,Pin_4*%
%TO.N,/MOSI*%
X85580000Y-113700000D03*
%TO.P,J5,5,Pin_5*%
%TO.N,/RESET_{MCU}*%
X83040000Y-111160000D03*
%TO.P,J5,6,Pin_6*%
%TO.N,GND*%
X83040000Y-113700000D03*
%TD*%
%TO.P,J6,26,Pin_26*%
%TO.N,/PL2*%
X63040000Y-113660000D03*
%TO.P,J6,25,Pin_25*%
%TO.N,/PL3*%
X60500000Y-113660000D03*
%TO.P,J6,24,Pin_24*%
%TO.N,/PL4*%
X63040000Y-111120000D03*
%TO.P,J6,23,Pin_23*%
%TO.N,/PL5*%
X60500000Y-111120000D03*
%TO.P,J6,22,Pin_22*%
%TO.N,/PL6*%
X63040000Y-108580000D03*
%TO.P,J6,21,Pin_21*%
%TO.N,/PL7*%
X60500000Y-108580000D03*
%TO.P,J6,20,Pin_20*%
%TO.N,/PH3*%
X63040000Y-106040000D03*
%TO.P,J6,19,Pin_19*%
%TO.N,/PH4*%
X60500000Y-106040000D03*
%TO.P,J6,18,Pin_18*%
%TO.N,/PH5*%
X63040000Y-103500000D03*
%TO.P,J6,17,Pin_17*%
%TO.N,/PH6*%
X60500000Y-103500000D03*
%TO.P,J6,16,Pin_16*%
%TO.N,/PD7*%
X63040000Y-100960000D03*
%TO.P,J6,15,Pin_15*%
%TO.N,/PG5*%
X60500000Y-100960000D03*
%TO.P,J6,14,Pin_14*%
%TO.N,/PB5_{MCU}*%
X63040000Y-98420000D03*
%TO.P,J6,13,Pin_13*%
%TO.N,/PC7*%
X60500000Y-98420000D03*
%TO.P,J6,12,Pin_12*%
%TO.N,/PC6*%
X63040000Y-95880000D03*
%TO.P,J6,11,Pin_11*%
%TO.N,/PJ1*%
X60500000Y-95880000D03*
%TO.P,J6,10,Pin_10*%
%TO.N,/PG2*%
X63040000Y-93340000D03*
%TO.P,J6,9,Pin_9*%
%TO.N,/PE5*%
X60500000Y-93340000D03*
%TO.P,J6,8,Pin_8*%
%TO.N,/PE4*%
X63040000Y-90800000D03*
%TO.P,J6,7,Pin_7*%
%TO.N,/PE3*%
X60500000Y-90800000D03*
%TO.P,J6,6,Pin_6*%
%TO.N,/PE1*%
X63040000Y-88260000D03*
%TO.P,J6,5,Pin_5*%
%TO.N,/PE0*%
X60500000Y-88260000D03*
%TO.P,J6,4,Pin_4*%
%TO.N,/PD3*%
X63040000Y-85720000D03*
%TO.P,J6,3,Pin_3*%
%TO.N,/PD2*%
X60500000Y-85720000D03*
%TO.P,J6,2,Pin_2*%
%TO.N,/PD1*%
X63040000Y-83180000D03*
D10*
%TO.P,J6,1,Pin_1*%
%TO.N,/PJ0*%
X60500000Y-83180000D03*
%TD*%
%TO.P,J2,1,Pin_1*%
%TO.N,VBUS*%
X71500000Y-62900000D03*
D11*
%TO.P,J2,2,Pin_2*%
X74040000Y-62900000D03*
%TO.P,J2,3,Pin_3*%
%TO.N,GND*%
X71500000Y-65440000D03*
%TO.P,J2,4,Pin_4*%
X74040000Y-65440000D03*
%TO.P,J2,5,Pin_5*%
%TO.N,+5V*%
X71500000Y-67980000D03*
%TO.P,J2,6,Pin_6*%
X74040000Y-67980000D03*
%TO.P,J2,7,Pin_7*%
%TO.N,+3V3*%
X71500000Y-70520000D03*
%TO.P,J2,8,Pin_8*%
X74040000Y-70520000D03*
%TO.P,J2,9,Pin_9*%
%TO.N,/AREF*%
X71500000Y-73060000D03*
%TO.P,J2,10,Pin_10*%
X74040000Y-73060000D03*
%TO.P,J2,11,Pin_11*%
%TO.N,/PE1*%
X71500000Y-75600000D03*
%TO.P,J2,12,Pin_12*%
%TO.N,/PE0*%
X74040000Y-75600000D03*
%TO.P,J2,13,Pin_13*%
%TO.N,/PE5*%
X71500000Y-78140000D03*
%TO.P,J2,14,Pin_14*%
%TO.N,/PE4*%
X74040000Y-78140000D03*
%TO.P,J2,15,Pin_15*%
%TO.N,/PE3*%
X71500000Y-80680000D03*
%TO.P,J2,16,Pin_16*%
%TO.N,/PG5*%
X74040000Y-80680000D03*
%TO.P,J2,17,Pin_17*%
%TO.N,/PH4*%
X71500000Y-83220000D03*
%TO.P,J2,18,Pin_18*%
%TO.N,/PH3*%
X74040000Y-83220000D03*
%TO.P,J2,19,Pin_19*%
%TO.N,/PH6*%
X71500000Y-85760000D03*
%TO.P,J2,20,Pin_20*%
%TO.N,/PH5*%
X74040000Y-85760000D03*
%TO.P,J2,21,Pin_21*%
%TO.N,/PB5_{MCU}*%
X71500000Y-88300000D03*
%TO.P,J2,22,Pin_22*%
%TO.N,/PB4_{MCU}*%
X74040000Y-88300000D03*
%TO.P,J2,23,Pin_23*%
%TO.N,/PB7_{MCU}*%
X71500000Y-90840000D03*
%TO.P,J2,24,Pin_24*%
%TO.N,/PB6_{MCU}*%
X74040000Y-90840000D03*
%TO.P,J2,25,Pin_25*%
%TO.N,/PJ0*%
X71500000Y-93380000D03*
%TO.P,J2,26,Pin_26*%
%TO.N,/PJ1*%
X74040000Y-93380000D03*
%TO.P,J2,27,Pin_27*%
%TO.N,/CS1_PB6*%
X71500000Y-95920000D03*
%TO.P,J2,28,Pin_28*%
%TO.N,/PH1*%
X74040000Y-95920000D03*
%TO.P,J2,29,Pin_29*%
%TO.N,/PD2*%
X71500000Y-98460000D03*
%TO.P,J2,30,Pin_30*%
%TO.N,/PD3*%
X74040000Y-98460000D03*
%TO.P,J2,31,Pin_31*%
%TO.N,/IRQ_PB7*%
X71500000Y-101000000D03*
%TO.P,J2,32,Pin_32*%
%TO.N,/PD1*%
X74040000Y-101000000D03*
%TO.P,J2,33,Pin_33*%
%TO.N,/DB1*%
X71500000Y-103540000D03*
%TO.P,J2,34,Pin_34*%
%TO.N,/DB0*%
X74040000Y-103540000D03*
%TO.P,J2,35,Pin_35*%
%TO.N,/DB3*%
X71500000Y-106080000D03*
%TO.P,J2,36,Pin_36*%
%TO.N,/DB2*%
X74040000Y-106080000D03*
%TO.P,J2,37,Pin_37*%
%TO.N,/DB5*%
X71500000Y-108620000D03*
%TO.P,J2,38,Pin_38*%
%TO.N,/DB4*%
X74040000Y-108620000D03*
%TO.P,J2,39,Pin_39*%
%TO.N,/DB7*%
X71500000Y-111160000D03*
%TO.P,J2,40,Pin_40*%
%TO.N,/DB6*%
X74040000Y-111160000D03*
%TO.P,J2,41,Pin_41*%
%TO.N,/PC6*%
X71500000Y-113700000D03*
%TO.P,J2,42,Pin_42*%
%TO.N,/PC7*%
X74040000Y-113700000D03*
%TD*%
D12*
%TO.P,J1,1,Pin_1*%
%TO.N,Net-(J1-Pin_1)*%
X119500000Y-62300000D03*
D13*
%TO.P,J1,2,Pin_2*%
%TO.N,/PA0*%
X119500000Y-64840000D03*
%TO.P,J1,3,Pin_3*%
%TO.N,/PB6_{MCU}*%
X119500000Y-67380000D03*
%TO.P,J1,4,Pin_4*%
%TO.N,/PB7_{MCU}*%
X119500000Y-69920000D03*
%TO.P,J1,5,Pin_5*%
%TO.N,/A9*%
X119500000Y-72460000D03*
%TO.P,J1,6,Pin_6*%
%TO.N,/A8*%
X119500000Y-75000000D03*
%TO.P,J1,7,Pin_7*%
%TO.N,/A7*%
X119500000Y-77540000D03*
%TO.P,J1,8,Pin_8*%
%TO.N,/A6*%
X119500000Y-80080000D03*
%TO.P,J1,9,Pin_9*%
%TO.N,/PH1*%
X119500000Y-82620000D03*
%TO.P,J1,10,Pin_10*%
%TO.N,/A5*%
X119500000Y-85160000D03*
%TO.P,J1,11,Pin_11*%
%TO.N,/A4*%
X119500000Y-87700000D03*
%TO.P,J1,12,Pin_12*%
%TO.N,/A3*%
X119500000Y-90240000D03*
%TO.P,J1,13,Pin_13*%
%TO.N,/A2*%
X119500000Y-92780000D03*
%TO.P,J1,14,Pin_14*%
%TO.N,/A1*%
X119500000Y-95320000D03*
%TO.P,J1,15,Pin_15*%
%TO.N,/A0*%
X119500000Y-97860000D03*
%TO.P,J1,16,Pin_16*%
%TO.N,/PB4_{MCU}*%
X119500000Y-100400000D03*
%TO.P,J1,17,Pin_17*%
%TO.N,/IRQ_PB7*%
X119500000Y-102940000D03*
%TO.P,J1,18,Pin_18*%
%TO.N,/CS1_PB6*%
X119500000Y-105480000D03*
%TO.P,J1,19,Pin_19*%
%TO.N,/CS2_PB5*%
X119500000Y-108020000D03*
%TO.P,J1,20,Pin_20*%
%TO.N,Net-(J1-Pin_20)*%
X119500000Y-110560000D03*
%TO.P,J1,21,Pin_21*%
%TO.N,/PB4*%
X134740000Y-110560000D03*
%TO.P,J1,22,Pin_22*%
%TO.N,/PB3*%
X134740000Y-108020000D03*
%TO.P,J1,23,Pin_23*%
%TO.N,/PB2*%
X134740000Y-105480000D03*
%TO.P,J1,24,Pin_24*%
%TO.N,/PB1*%
X134740000Y-102940000D03*
%TO.P,J1,25,Pin_25*%
%TO.N,/PB0*%
X134740000Y-100400000D03*
%TO.P,J1,26,Pin_26*%
%TO.N,/DB7*%
X134740000Y-97860000D03*
%TO.P,J1,27,Pin_27*%
%TO.N,/DB6*%
X134740000Y-95320000D03*
%TO.P,J1,28,Pin_28*%
%TO.N,/DB5*%
X134740000Y-92780000D03*
%TO.P,J1,29,Pin_29*%
%TO.N,/DB4*%
X134740000Y-90240000D03*
%TO.P,J1,30,Pin_30*%
%TO.N,/DB3*%
X134740000Y-87700000D03*
%TO.P,J1,31,Pin_31*%
%TO.N,/DB2*%
X134740000Y-85160000D03*
%TO.P,J1,32,Pin_32*%
%TO.N,/DB1*%
X134740000Y-82620000D03*
%TO.P,J1,33,Pin_33*%
%TO.N,/DB0*%
X134740000Y-80080000D03*
%TO.P,J1,34,Pin_34*%
%TO.N,/PA7*%
X134740000Y-77540000D03*
%TO.P,J1,35,Pin_35*%
%TO.N,/PA6*%
X134740000Y-75000000D03*
%TO.P,J1,36,Pin_36*%
%TO.N,/PA5*%
X134740000Y-72460000D03*
%TO.P,J1,37,Pin_37*%
%TO.N,/PA4*%
X134740000Y-69920000D03*
%TO.P,J1,38,Pin_38*%
%TO.N,/PA3*%
X134740000Y-67380000D03*
%TO.P,J1,39,Pin_39*%
%TO.N,/PA2*%
X134740000Y-64840000D03*
%TO.P,J1,40,Pin_40*%
%TO.N,/PA1*%
X134740000Y-62300000D03*
%TD*%
D10*
%TO.P,J3,1,Pin_1*%
%TO.N,/A1*%
X104040000Y-75600000D03*
D11*
%TO.P,J3,2,Pin_2*%
%TO.N,/A0*%
X106580000Y-75600000D03*
%TO.P,J3,3,Pin_3*%
%TO.N,/A3*%
X104040000Y-78140000D03*
%TO.P,J3,4,Pin_4*%
%TO.N,/A2*%
X106580000Y-78140000D03*
%TO.P,J3,5,Pin_5*%
%TO.N,/A5*%
X104040000Y-80680000D03*
%TO.P,J3,6,Pin_6*%
%TO.N,/A4*%
X106580000Y-80680000D03*
%TO.P,J3,7,Pin_7*%
%TO.N,/A7*%
X104040000Y-83220000D03*
%TO.P,J3,8,Pin_8*%
%TO.N,/A6*%
X106580000Y-83220000D03*
%TO.P,J3,9,Pin_9*%
%TO.N,/PA1*%
X104040000Y-85760000D03*
%TO.P,J3,10,Pin_10*%
%TO.N,/PA0*%
X106580000Y-85760000D03*
%TO.P,J3,11,Pin_11*%
%TO.N,/PA3*%
X104040000Y-88300000D03*
%TO.P,J3,12,Pin_12*%
%TO.N,/PA2*%
X106580000Y-88300000D03*
%TO.P,J3,13,Pin_13*%
%TO.N,/PA5*%
X104040000Y-90840000D03*
%TO.P,J3,14,Pin_14*%
%TO.N,/PA4*%
X106580000Y-90840000D03*
%TO.P,J3,15,Pin_15*%
%TO.N,/PA7*%
X104040000Y-93380000D03*
%TO.P,J3,16,Pin_16*%
%TO.N,/PA6*%
X106580000Y-93380000D03*
%TO.P,J3,17,Pin_17*%
%TO.N,/PB4*%
X104040000Y-95920000D03*
%TO.P,J3,18,Pin_18*%
%TO.N,/CS2_PB5*%
X106580000Y-95920000D03*
%TO.P,J3,19,Pin_19*%
%TO.N,/PB2*%
X104040000Y-98460000D03*
%TO.P,J3,20,Pin_20*%
%TO.N,/PB3*%
X106580000Y-98460000D03*
%TO.P,J3,21,Pin_21*%
%TO.N,/PB0*%
X104040000Y-101000000D03*
%TO.P,J3,22,Pin_22*%
%TO.N,/PB1*%
X106580000Y-101000000D03*
%TO.P,J3,23,Pin_23*%
%TO.N,/PG2*%
X104040000Y-103540000D03*
%TO.P,J3,24,Pin_24*%
%TO.N,/PD7*%
X106580000Y-103540000D03*
%TO.P,J3,25,Pin_25*%
%TO.N,/A8*%
X104040000Y-106080000D03*
%TO.P,J3,26,Pin_26*%
%TO.N,/A9*%
X106580000Y-106080000D03*
%TO.P,J3,27,Pin_27*%
%TO.N,/PL6*%
X104040000Y-108620000D03*
%TO.P,J3,28,Pin_28*%
%TO.N,/PL7*%
X106580000Y-108620000D03*
%TO.P,J3,29,Pin_29*%
%TO.N,/PL4*%
X104040000Y-111160000D03*
%TO.P,J3,30,Pin_30*%
%TO.N,/PL5*%
X106580000Y-111160000D03*
%TO.P,J3,31,Pin_31*%
%TO.N,/PL2*%
X104040000Y-113700000D03*
%TO.P,J3,32,Pin_32*%
%TO.N,/PL3*%
X106580000Y-113700000D03*
%TD*%
D14*
%TO.N,/PG2*%
X75000000Y-94750000D03*
%TO.N,/RESET_{MCU}*%
X70500000Y-99750000D03*
X69250000Y-98000000D03*
%TO.N,/PD2*%
X69500000Y-92250000D03*
%TO.N,/PJ0*%
X66000000Y-85750000D03*
X65250000Y-83500000D03*
%TO.N,/PJ1*%
X66250000Y-92542943D03*
%TO.N,/PD3*%
X70249602Y-91348927D03*
%TO.N,/PL4*%
X58750000Y-78500000D03*
X57000000Y-80500000D03*
%TO.N,/PG2*%
X76750000Y-94750000D03*
%TO.N,/IRQ_PB7*%
X88750000Y-101000000D03*
%TO.N,/DB0*%
X78441472Y-101790000D03*
X109500000Y-92500000D03*
X96750000Y-96250000D03*
X121500000Y-88250000D03*
X130250000Y-80000000D03*
X96750000Y-98500000D03*
%TO.N,/PB4*%
X137500000Y-107500000D03*
X137500000Y-100000000D03*
%TO.N,/DB5*%
X100750000Y-107750000D03*
%TO.N,/CS1_PB6*%
X102250000Y-102250000D03*
%TO.N,/DB1*%
X129250000Y-108000000D03*
X93000000Y-105500000D03*
%TO.N,/PA2*%
X117000000Y-86500000D03*
X131500000Y-77000000D03*
%TO.N,/PA5*%
X113250000Y-91250000D03*
X123000000Y-84500000D03*
X121000000Y-85500000D03*
%TO.N,/PA1*%
X121000000Y-91500000D03*
X129000000Y-83000000D03*
X116500000Y-93500000D03*
%TO.N,/PB6_{MCU}*%
X86750000Y-89750000D03*
%TO.N,/PB3*%
X121000000Y-101000000D03*
X136500000Y-101000000D03*
X115250000Y-99250000D03*
%TO.N,/DB2*%
X121500000Y-97500000D03*
X101600000Y-104330000D03*
%TO.N,/PA7*%
X117000000Y-96000000D03*
%TO.N,/PA3*%
X117000000Y-84500000D03*
X127000000Y-78500000D03*
%TO.N,/A4*%
X117000000Y-89750000D03*
%TO.N,/PB1*%
X121250000Y-102750000D03*
%TO.N,/DB6*%
X132000000Y-117500000D03*
%TO.N,/PA4*%
X116000000Y-85750000D03*
%TO.N,/PB7_{MCU}*%
X89000000Y-92000000D03*
X75000000Y-92000000D03*
%TO.N,/DB3*%
X101000000Y-106750000D03*
%TO.N,/PH1*%
X95250000Y-92750000D03*
X105000000Y-84500000D03*
X83750000Y-95920000D03*
%TO.N,/PB2*%
X105500000Y-104930000D03*
%TO.N,/IRQ_PB7*%
X110000000Y-114500000D03*
X123000000Y-114500000D03*
X102750000Y-112500000D03*
X123000000Y-103360000D03*
X123000000Y-106000000D03*
%TO.N,/DB4*%
X95120000Y-108620000D03*
%TO.N,/CS2_PB5*%
X109000000Y-97860000D03*
X112750000Y-102500000D03*
%TO.N,/PE3*%
X67250000Y-84500000D03*
X69000000Y-83000000D03*
%TO.N,+5V*%
X56250000Y-79000000D03*
X88120000Y-118120000D03*
X65250000Y-118000000D03*
X65250000Y-112250000D03*
%TO.N,/PB5_{MCU}*%
X65950000Y-95258380D03*
X68650000Y-94500000D03*
%TO.N,GND*%
X56846754Y-81339032D03*
X83040000Y-116600000D03*
%TO.N,/PE0*%
X57250000Y-88250000D03*
%TO.N,/PH6*%
X66250000Y-91247301D03*
X68750000Y-88250000D03*
%TO.N,/PG5*%
X68390000Y-102110000D03*
%TO.N,/PH3*%
X67000000Y-87500000D03*
X69250000Y-84750000D03*
X71000000Y-84500000D03*
%TO.N,/PH5*%
X68750000Y-87250000D03*
X66700735Y-89450735D03*
%TO.N,/PH4*%
X66250000Y-96000000D03*
X72750000Y-89000000D03*
X68650000Y-96500000D03*
%TO.N,/PL4*%
X96750000Y-115250000D03*
X96750000Y-117650000D03*
%TO.N,/PG2*%
X65350000Y-93340000D03*
X83450735Y-103299265D03*
%TO.N,/PL6*%
X67000000Y-112000000D03*
%TO.N,/PD7*%
X69150000Y-112550000D03*
X66250000Y-101250000D03*
X66200735Y-103450735D03*
%TO.N,/PL7*%
X84250000Y-117250000D03*
X59133167Y-117100000D03*
X85500000Y-116750000D03*
%TO.N,/PL3*%
X60500000Y-117250000D03*
X95500000Y-117500000D03*
X100000000Y-116000000D03*
%TO.N,/RESET_{MCU}*%
X63250000Y-81250000D03*
%TD*%
D15*
%TO.N,/PJ1*%
X66250000Y-92542943D02*
X67207057Y-93500000D01*
X69993654Y-93500000D02*
X71023654Y-94530000D01*
X67207057Y-93500000D02*
X69993654Y-93500000D01*
X71023654Y-94530000D02*
X71976346Y-94530000D01*
X71976346Y-94530000D02*
X73126346Y-93380000D01*
X73126346Y-93380000D02*
X74040000Y-93380000D01*
%TO.N,/PG2*%
X65350000Y-93340000D02*
X65350000Y-96100000D01*
X74930000Y-97070000D02*
X75200000Y-96800000D01*
X65350000Y-96100000D02*
X67967438Y-98717438D01*
X67967438Y-98717438D02*
X69381091Y-98717438D01*
X69381091Y-98717438D02*
X70350000Y-97748529D01*
X70350000Y-97748529D02*
X70350000Y-97743654D01*
X75200000Y-94950000D02*
X75000000Y-94750000D01*
X70350000Y-97743654D02*
X71023654Y-97070000D01*
X75200000Y-96800000D02*
X75200000Y-94950000D01*
X71023654Y-97070000D02*
X74930000Y-97070000D01*
%TO.N,/RESET_{MCU}*%
X71163654Y-99750000D02*
X70500000Y-99750000D01*
X69250000Y-98000000D02*
X69250000Y-97836346D01*
%TO.N,/PD2*%
X69850000Y-90900000D02*
X69500000Y-91250000D01*
X69500000Y-91250000D02*
X69500000Y-92250000D01*
%TO.N,/PD3*%
X58950000Y-85796346D02*
X60023654Y-86870000D01*
X61890000Y-86870000D02*
X63040000Y-85720000D01*
X70249602Y-91348927D02*
X70350000Y-91248529D01*
X58950000Y-81864314D02*
X58950000Y-85796346D01*
X70151073Y-91348927D02*
X70000000Y-91500000D01*
X60864314Y-79950000D02*
X58950000Y-81864314D01*
X70249602Y-91348927D02*
X70151073Y-91348927D01*
X69081372Y-79950000D02*
X60864314Y-79950000D01*
X60023654Y-86870000D02*
X61890000Y-86870000D01*
X70350000Y-81218628D02*
X69081372Y-79950000D01*
X70350000Y-91248529D02*
X70350000Y-81218628D01*
%TO.N,/PJ0*%
X66000000Y-85750000D02*
X65650000Y-86100000D01*
X65650000Y-86100000D02*
X65650000Y-91650000D01*
X65650000Y-91650000D02*
X65942943Y-91942943D01*
X65942943Y-91942943D02*
X68192943Y-91942943D01*
X68192943Y-91942943D02*
X69250000Y-93000000D01*
X69250000Y-93000000D02*
X71120000Y-93000000D01*
X71120000Y-93000000D02*
X71500000Y-93380000D01*
X65250000Y-83500000D02*
X65000000Y-83500000D01*
%TO.N,/RESET_{MCU}*%
X65750000Y-93900000D02*
X68898529Y-93900000D01*
X74376346Y-99750000D02*
X74516346Y-99610000D01*
X65750000Y-93788529D02*
X65750000Y-93900000D01*
X69250000Y-94251471D02*
X69250000Y-98000000D01*
X71163654Y-99750000D02*
X74376346Y-99750000D01*
X68898529Y-93900000D02*
X69250000Y-94251471D01*
X66250000Y-81500000D02*
X66250000Y-83624314D01*
X65950000Y-93588529D02*
X65750000Y-93788529D01*
X65950000Y-93091471D02*
X65950000Y-93588529D01*
X65598529Y-92740000D02*
X65950000Y-93091471D01*
X65150000Y-92740000D02*
X65598529Y-92740000D01*
X65150000Y-84724314D02*
X65150000Y-92740000D01*
X66250000Y-83624314D02*
X65150000Y-84724314D01*
X77110000Y-99610000D02*
X83040000Y-105540000D01*
X65500000Y-80750000D02*
X66250000Y-81500000D01*
X63750000Y-80750000D02*
X65500000Y-80750000D01*
X63250000Y-81250000D02*
X63750000Y-80750000D01*
X74516346Y-99610000D02*
X77110000Y-99610000D01*
X83040000Y-105540000D02*
X83040000Y-111160000D01*
%TO.N,/PJ0*%
X60500000Y-83180000D02*
X61650000Y-82030000D01*
X61650000Y-82030000D02*
X63530000Y-82030000D01*
X63530000Y-82030000D02*
X65250000Y-83500000D01*
%TO.N,/PB5_{MCU}*%
X67891620Y-95258380D02*
X68650000Y-94500000D01*
X65950000Y-95258380D02*
X67891620Y-95258380D01*
%TO.N,+5V*%
X63250000Y-71000000D02*
X62250000Y-72000000D01*
X62250000Y-72000000D02*
X62250000Y-72050000D01*
X62250000Y-72050000D02*
X62150000Y-72150000D01*
X62150000Y-72150000D02*
X59560000Y-72150000D01*
X59750000Y-72150000D02*
X57260000Y-72150000D01*
X57260000Y-72150000D02*
X56250000Y-73160000D01*
X56250000Y-73160000D02*
X56250000Y-79000000D01*
%TO.N,GND*%
X57416346Y-81000000D02*
X57077314Y-81339032D01*
X57077314Y-81339032D02*
X56846754Y-81339032D01*
%TO.N,/PD2*%
X69850000Y-81284314D02*
X68915686Y-80350000D01*
X69850000Y-90900000D02*
X69850000Y-81284314D01*
X68915686Y-80350000D02*
X61030000Y-80350000D01*
X61030000Y-80350000D02*
X59350000Y-82030000D01*
X59350000Y-82030000D02*
X59350000Y-84570000D01*
X59350000Y-84570000D02*
X60500000Y-85720000D01*
%TO.N,/PL4*%
X58750000Y-78500000D02*
X57000000Y-80250000D01*
X57000000Y-80250000D02*
X57000000Y-80500000D01*
%TO.N,/PG2*%
X76750000Y-94750000D02*
X78250000Y-96250000D01*
X78250000Y-96250000D02*
X78250000Y-98250000D01*
X78250000Y-98250000D02*
X83299265Y-103299265D01*
X83299265Y-103299265D02*
X83450735Y-103299265D01*
%TO.N,/PH1*%
X95250000Y-92750000D02*
X92080000Y-95920000D01*
X92080000Y-95920000D02*
X83750000Y-95920000D01*
%TO.N,/DB0*%
X75790000Y-101790000D02*
X74040000Y-103540000D01*
X78441472Y-101790000D02*
X75790000Y-101790000D01*
%TO.N,/IRQ_PB7*%
X88750000Y-101000000D02*
X89000000Y-100750000D01*
X89000000Y-100750000D02*
X95941471Y-100750000D01*
X95941471Y-100750000D02*
X95941471Y-104290000D01*
X95941471Y-104290000D02*
X102500000Y-110848529D01*
X102500000Y-110848529D02*
X102500000Y-112250000D01*
X102500000Y-112250000D02*
X102750000Y-112500000D01*
%TO.N,/DB0*%
X96750000Y-98500000D02*
X96750000Y-96250000D01*
X130250000Y-80000000D02*
X130330000Y-80080000D01*
X130330000Y-80080000D02*
X134740000Y-80080000D01*
X121500000Y-88250000D02*
X121030000Y-88720000D01*
X121030000Y-88720000D02*
X119030000Y-88720000D01*
X119030000Y-88720000D02*
X115250000Y-92500000D01*
X115250000Y-92500000D02*
X109500000Y-92500000D01*
%TO.N,/PB4*%
X137500000Y-100000000D02*
X137500000Y-107500000D01*
%TO.N,/DB5*%
X106203654Y-112410000D02*
X124190000Y-112410000D01*
X100750000Y-107750000D02*
X102376346Y-107630000D01*
X103563654Y-109770000D02*
X104516346Y-109770000D01*
X102890000Y-109096346D02*
X103563654Y-109770000D01*
X126465686Y-98600000D02*
X126748529Y-98600000D01*
X135442498Y-89220000D02*
X136040000Y-89817502D01*
X129350000Y-93907502D02*
X134037502Y-89220000D01*
X102890000Y-108143654D02*
X102890000Y-109096346D01*
X125250000Y-99815686D02*
X126465686Y-98600000D01*
X104516346Y-109770000D02*
X105430000Y-110683654D01*
X124190000Y-112410000D02*
X125250000Y-111350000D01*
X136040000Y-89817502D02*
X136040000Y-91480000D01*
X125250000Y-111350000D02*
X125250000Y-99815686D01*
X136040000Y-91480000D02*
X134740000Y-92780000D01*
X134037502Y-89220000D02*
X135442498Y-89220000D01*
X105430000Y-111636346D02*
X106203654Y-112410000D01*
X100781471Y-107630000D02*
X100750000Y-107750000D01*
X126748529Y-98600000D02*
X129350000Y-95998529D01*
X105430000Y-110683654D02*
X105430000Y-111636346D01*
X102376346Y-107630000D02*
X102890000Y-108143654D01*
X129350000Y-95998529D02*
X129350000Y-93907502D01*
%TO.N,/A6*%
X106580000Y-83220000D02*
X116360000Y-83220000D01*
X116360000Y-83220000D02*
X119500000Y-80080000D01*
%TO.N,/A8*%
X102884314Y-74050000D02*
X118550000Y-74050000D01*
X104040000Y-106080000D02*
X100850000Y-106080000D01*
X100150000Y-105400000D02*
X100000000Y-105250000D01*
X100850000Y-105751471D02*
X100498529Y-105400000D01*
X118550000Y-74050000D02*
X119500000Y-75000000D01*
X100000000Y-76934314D02*
X102884314Y-74050000D01*
X100850000Y-106080000D02*
X100850000Y-105751471D01*
X100000000Y-105250000D02*
X100000000Y-76934314D01*
X100498529Y-105400000D02*
X100150000Y-105400000D01*
%TO.N,/CS1_PB6*%
X102250000Y-102390000D02*
X102250000Y-102250000D01*
X112250000Y-104000000D02*
X118020000Y-104000000D01*
X103563654Y-102390000D02*
X107056346Y-102390000D01*
X107963654Y-104250000D02*
X112000000Y-104250000D01*
X112000000Y-104250000D02*
X112250000Y-104000000D01*
X118020000Y-104000000D02*
X119500000Y-105480000D01*
X107730000Y-104016346D02*
X107963654Y-104250000D01*
X107730000Y-103063654D02*
X107730000Y-104016346D01*
X102250000Y-102250000D02*
X102976827Y-102976827D01*
X102976827Y-102976827D02*
X103563654Y-102390000D01*
X107056346Y-102390000D02*
X107730000Y-103063654D01*
%TO.N,/DB1*%
X124440000Y-112810000D02*
X129250000Y-108000000D01*
X109560000Y-112810000D02*
X124440000Y-112810000D01*
X92948984Y-105500000D02*
X93000000Y-105500000D01*
X106370000Y-116000000D02*
X109560000Y-112810000D01*
X92837968Y-105388984D02*
X92948984Y-105500000D01*
X103448984Y-116000000D02*
X106370000Y-116000000D01*
X93000000Y-105500000D02*
X93000000Y-105551016D01*
X93000000Y-105551016D02*
X103448984Y-116000000D01*
%TO.N,/A7*%
X105190000Y-82070000D02*
X114970000Y-82070000D01*
X114970000Y-82070000D02*
X119500000Y-77540000D01*
X104040000Y-83220000D02*
X105190000Y-82070000D01*
%TO.N,/PA2*%
X106580000Y-88300000D02*
X109880000Y-85000000D01*
X136440000Y-66540000D02*
X134740000Y-64840000D01*
X115055736Y-84595735D02*
X115944264Y-84595735D01*
X136440000Y-75022498D02*
X136440000Y-66540000D01*
X109880000Y-85000000D02*
X114651471Y-85000000D01*
X135442498Y-76020000D02*
X136440000Y-75022498D01*
X106580000Y-88420000D02*
X106500000Y-88500000D01*
X114651471Y-85000000D02*
X115055736Y-84595735D01*
X117000000Y-85651471D02*
X117000000Y-86500000D01*
X131500000Y-77000000D02*
X132480000Y-76020000D01*
X115944264Y-84595735D02*
X117000000Y-85651471D01*
X132480000Y-76020000D02*
X135442498Y-76020000D01*
X106580000Y-88420000D02*
X106580000Y-88300000D01*
%TO.N,/PA5*%
X114090000Y-91250000D02*
X113250000Y-91250000D01*
X124565685Y-74500000D02*
X123000000Y-72934315D01*
X121000000Y-85500000D02*
X120320000Y-86180000D01*
X120320000Y-86180000D02*
X119160000Y-86180000D01*
X119160000Y-86180000D02*
X114090000Y-91250000D01*
X131854314Y-73080000D02*
X130434314Y-74500000D01*
X130434314Y-74500000D02*
X124565685Y-74500000D01*
X121000000Y-85500000D02*
X120800000Y-85582498D01*
X134120000Y-73080000D02*
X131854314Y-73080000D01*
X134740000Y-72460000D02*
X134120000Y-73080000D01*
X123000000Y-72934315D02*
X123000000Y-84500000D01*
%TO.N,/PA1*%
X121000000Y-93002498D02*
X121000000Y-91500000D01*
X129000000Y-83000000D02*
X130400000Y-81600000D01*
X137000000Y-79542498D02*
X137000000Y-64560000D01*
X117250000Y-94250000D02*
X119752498Y-94250000D01*
X116500000Y-93500000D02*
X117250000Y-94250000D01*
X137000000Y-64560000D02*
X134740000Y-62300000D01*
X130400000Y-81600000D02*
X134942498Y-81600000D01*
X134942498Y-81600000D02*
X137000000Y-79542498D01*
X119752498Y-94250000D02*
X121000000Y-93002498D01*
%TO.N,/PB6_{MCU}*%
X86750000Y-89000000D02*
X108250000Y-67500000D01*
X86618628Y-89750000D02*
X86750000Y-89750000D01*
X86618628Y-89750000D02*
X86618628Y-89750000D01*
X86500000Y-89750000D02*
X86618628Y-89750000D01*
X119380000Y-67500000D02*
X119500000Y-67380000D01*
X108250000Y-67500000D02*
X119380000Y-67500000D01*
X86750000Y-89750000D02*
X86750000Y-89000000D01*
%TO.N,/PB3*%
X115250000Y-99250000D02*
X115000000Y-99250000D01*
X121000000Y-101000000D02*
X120580000Y-101420000D01*
X136500000Y-106260000D02*
X134740000Y-108020000D01*
X118797502Y-101420000D02*
X116627502Y-99250000D01*
X136500000Y-101000000D02*
X136500000Y-106260000D01*
X120580000Y-101420000D02*
X118797502Y-101420000D01*
X116627502Y-99250000D02*
X115250000Y-99250000D01*
%TO.N,/DB2*%
X107140000Y-99610000D02*
X102360000Y-99610000D01*
X116250000Y-97000000D02*
X107692032Y-97000000D01*
X107692032Y-97000000D02*
X107730000Y-97037968D01*
X121500000Y-97500000D02*
X121500000Y-97582498D01*
X101600000Y-99150000D02*
X101600000Y-104330000D01*
X107730000Y-97037968D02*
X107730000Y-99020000D01*
X120202498Y-98880000D02*
X118130000Y-98880000D01*
X121500000Y-97582498D02*
X120202498Y-98880000D01*
X118130000Y-98880000D02*
X116250000Y-97000000D01*
X73126346Y-106080000D02*
X74040000Y-106080000D01*
X107730000Y-99020000D02*
X107140000Y-99610000D01*
X102360000Y-99610000D02*
X101750000Y-99000000D01*
X101750000Y-99000000D02*
X101600000Y-99150000D01*
%TO.N,/PA7*%
X117000000Y-96000000D02*
X110500000Y-96000000D01*
X105190000Y-94530000D02*
X104040000Y-93380000D01*
X110500000Y-96000000D02*
X109000000Y-94500000D01*
X107056346Y-94530000D02*
X105190000Y-94530000D01*
X109000000Y-94500000D02*
X107086346Y-94500000D01*
X107086346Y-94500000D02*
X107056346Y-94530000D01*
%TO.N,/PA3*%
X109770611Y-84195735D02*
X106816346Y-87150000D01*
X116695735Y-84195735D02*
X109770611Y-84195735D01*
X135442498Y-73480000D02*
X136040000Y-72882498D01*
X136040000Y-68680000D02*
X134740000Y-67380000D01*
X117000000Y-84500000D02*
X116695735Y-84195735D01*
X106816346Y-87150000D02*
X105190000Y-87150000D01*
X105190000Y-87150000D02*
X104040000Y-88300000D01*
X136040000Y-72882498D02*
X136040000Y-68680000D01*
X132020000Y-73480000D02*
X135442498Y-73480000D01*
X127000000Y-78500000D02*
X132020000Y-73480000D01*
%TO.N,/A5*%
X120520000Y-76520000D02*
X118480000Y-76520000D01*
X119500000Y-85160000D02*
X120800000Y-83860000D01*
X120800000Y-83860000D02*
X120800000Y-76800000D01*
X105190000Y-79530000D02*
X104040000Y-80680000D01*
X118480000Y-76520000D02*
X115470000Y-79530000D01*
X120800000Y-76800000D02*
X120520000Y-76520000D01*
X115470000Y-79530000D02*
X105190000Y-79530000D01*
%TO.N,/A0*%
X102490000Y-75010000D02*
X102490000Y-95996346D01*
X106580000Y-75600000D02*
X105430000Y-74450000D01*
X102490000Y-95996346D02*
X103563654Y-97070000D01*
X103050000Y-74450000D02*
X102490000Y-75010000D01*
X103563654Y-97070000D02*
X107056346Y-97070000D01*
X105430000Y-74450000D02*
X103050000Y-74450000D01*
X116651471Y-96500000D02*
X118011471Y-97860000D01*
X107626346Y-96500000D02*
X116651471Y-96500000D01*
X118011471Y-97860000D02*
X119500000Y-97860000D01*
X107056346Y-97070000D02*
X107626346Y-96500000D01*
%TO.N,/A4*%
X119050000Y-87700000D02*
X119500000Y-87700000D01*
X117000000Y-89750000D02*
X119050000Y-87700000D01*
%TO.N,/PB1*%
X120420000Y-101920000D02*
X121250000Y-102750000D01*
X116760000Y-101920000D02*
X120420000Y-101920000D01*
X121250000Y-102750000D02*
X121250000Y-102500000D01*
X106580000Y-101000000D02*
X109180000Y-103600000D01*
X109180000Y-103600000D02*
X113250000Y-103600000D01*
X115080000Y-103600000D02*
X116760000Y-101920000D01*
X113100000Y-103600000D02*
X115080000Y-103600000D01*
%TO.N,/DB6*%
X130750000Y-118750000D02*
X132000000Y-117500000D01*
X75750000Y-118750000D02*
X130750000Y-118750000D01*
X74040000Y-111160000D02*
X75750000Y-112870000D01*
X75750000Y-112870000D02*
X75750000Y-118750000D01*
%TO.N,/A2*%
X106580000Y-78140000D02*
X106580000Y-79042498D01*
%TO.N,/PA4*%
X110910000Y-90840000D02*
X106580000Y-90840000D01*
X116000000Y-85750000D02*
X110910000Y-90840000D01*
%TO.N,/PB7_{MCU}*%
X106448628Y-69920000D02*
X89000000Y-87368628D01*
X113080000Y-69920000D02*
X106448628Y-69920000D01*
X119500000Y-69920000D02*
X113080000Y-69920000D01*
X89000000Y-87368628D02*
X89000000Y-92000000D01*
X72660000Y-92000000D02*
X71500000Y-90840000D01*
X75000000Y-92000000D02*
X72660000Y-92000000D01*
%TO.N,/A9*%
X106580000Y-106080000D02*
X107000000Y-106500000D01*
X122500000Y-106500000D02*
X122400000Y-106400000D01*
X107000000Y-106500000D02*
X122500000Y-106500000D01*
X122000000Y-74960000D02*
X119500000Y-72460000D01*
X122400000Y-85465686D02*
X122000000Y-85065686D01*
X122000000Y-85065686D02*
X122000000Y-74960000D01*
X122400000Y-106400000D02*
X122400000Y-85465686D01*
%TO.N,/DB3*%
X123248529Y-102760000D02*
X123248529Y-99191471D01*
X101480000Y-107230000D02*
X114170000Y-107230000D01*
X123600000Y-103111471D02*
X123248529Y-102760000D01*
X114500000Y-106900000D02*
X122948529Y-106900000D01*
X114170000Y-107230000D02*
X114500000Y-106900000D01*
X122948529Y-106900000D02*
X123600000Y-106248529D01*
X101000000Y-106750000D02*
X101480000Y-107230000D01*
X123600000Y-106248529D02*
X123600000Y-103111471D01*
X123248529Y-99191471D02*
X134740000Y-87700000D01*
%TO.N,/PH1*%
X107000000Y-84500000D02*
X107704265Y-83795735D01*
X117600000Y-84251471D02*
X117600000Y-84520000D01*
X117600000Y-84520000D02*
X119500000Y-82620000D01*
X117144264Y-83795735D02*
X117600000Y-84251471D01*
X107704265Y-83795735D02*
X117144264Y-83795735D01*
X105000000Y-84500000D02*
X107000000Y-84500000D01*
X105250000Y-84500000D02*
X105000000Y-84500000D01*
%TO.N,/DB7*%
X72650000Y-110010000D02*
X71500000Y-111160000D01*
X140500000Y-116100000D02*
X110600000Y-116100000D01*
X86970000Y-113223654D02*
X86970000Y-117321471D01*
X110500000Y-116000000D02*
X109350000Y-117150000D01*
X74516346Y-110010000D02*
X72650000Y-110010000D01*
X86291471Y-118000000D02*
X76150000Y-118000000D01*
X98650000Y-112550000D02*
X87643654Y-112550000D01*
X140500000Y-102151471D02*
X140500000Y-116100000D01*
X76150000Y-118000000D02*
X76150000Y-111643654D01*
X134740000Y-97860000D02*
X136208529Y-97860000D01*
X103250000Y-117150000D02*
X98650000Y-112550000D01*
X109350000Y-117150000D02*
X103250000Y-117150000D01*
X87643654Y-112550000D02*
X86970000Y-113223654D01*
X76150000Y-111643654D02*
X74516346Y-110010000D01*
X86970000Y-117321471D02*
X86291471Y-118000000D01*
X136208529Y-97860000D02*
X140500000Y-102151471D01*
X110600000Y-116100000D02*
X110500000Y-116000000D01*
%TO.N,/PB2*%
X104040000Y-98460000D02*
X100790000Y-98460000D01*
X103563654Y-104930000D02*
X104430000Y-104930000D01*
X101344215Y-105680000D02*
X102813654Y-105680000D01*
X104430000Y-104930000D02*
X105500000Y-104930000D01*
X102813654Y-105680000D02*
X103563654Y-104930000D01*
X100500000Y-98750000D02*
X100500000Y-105000000D01*
X100664215Y-105000000D02*
X101344215Y-105680000D01*
X100790000Y-98460000D02*
X100500000Y-98750000D01*
X100500000Y-105000000D02*
X100664215Y-105000000D01*
%TO.N,/IRQ_PB7*%
X110000000Y-114500000D02*
X123000000Y-114500000D01*
X123000000Y-103360000D02*
X123000000Y-106000000D01*
%TO.N,/DB4*%
X130000000Y-94980000D02*
X134740000Y-90240000D01*
X130000000Y-108348529D02*
X130000000Y-94980000D01*
X122901471Y-115250000D02*
X123098529Y-115250000D01*
X95285686Y-108620000D02*
X103415686Y-116750000D01*
X123098529Y-115250000D02*
X130000000Y-108348529D01*
X108598529Y-116750000D02*
X110348529Y-115000000D01*
X95120000Y-108620000D02*
X95285686Y-108620000D01*
X103415686Y-116750000D02*
X108598529Y-116750000D01*
X110348529Y-115000000D02*
X122651471Y-115000000D01*
X122651471Y-115000000D02*
X122901471Y-115250000D01*
%TO.N,/A1*%
X119500000Y-95320000D02*
X110820000Y-95320000D01*
X107490000Y-91990000D02*
X103380000Y-91990000D01*
X103380000Y-91990000D02*
X102890000Y-91500000D01*
X102890000Y-91500000D02*
X102890000Y-76750000D01*
X110820000Y-95320000D02*
X107490000Y-91990000D01*
X102890000Y-76750000D02*
X104040000Y-75600000D01*
%TO.N,/CS2_PB5*%
X112750000Y-102000000D02*
X112750000Y-102500000D01*
X109000000Y-97860000D02*
X109000000Y-98250000D01*
X109000000Y-98250000D02*
X112750000Y-102000000D01*
%TO.N,+3V3*%
X71500000Y-70520000D02*
X74040000Y-70520000D01*
%TO.N,/AREF*%
X71500000Y-73060000D02*
X74040000Y-73060000D01*
%TO.N,/PC6*%
X71500000Y-113700000D02*
X69750000Y-113700000D01*
X63228529Y-95880000D02*
X63040000Y-95880000D01*
X69750000Y-102401471D02*
X63228529Y-95880000D01*
X69750000Y-113700000D02*
X69750000Y-102401471D01*
%TO.N,/PE3*%
X69000000Y-83000000D02*
X67250000Y-84750000D01*
X67250000Y-84500000D02*
X67250000Y-84750000D01*
%TO.N,+5V*%
X71500000Y-67980000D02*
X74040000Y-67980000D01*
X88120000Y-113700000D02*
X88120000Y-118120000D01*
X88120000Y-118120000D02*
X88250000Y-118250000D01*
X65250000Y-112250000D02*
X65250000Y-118000000D01*
%TO.N,/PE5*%
X62108628Y-78140000D02*
X58550000Y-81698628D01*
X58550000Y-81698628D02*
X58550000Y-91390000D01*
X58550000Y-91390000D02*
X60500000Y-93340000D01*
X71500000Y-78140000D02*
X62108628Y-78140000D01*
%TO.N,GND*%
X63250000Y-76080000D02*
X62388629Y-76080000D01*
X83040000Y-116600000D02*
X83040000Y-113700000D01*
X62388629Y-76080000D02*
X57468629Y-81000000D01*
X57468629Y-81000000D02*
X57416346Y-81000000D01*
X71500000Y-65440000D02*
X74040000Y-65440000D01*
%TO.N,/PE0*%
X74040000Y-75600000D02*
X72890000Y-74450000D01*
X72890000Y-74450000D02*
X66563654Y-74450000D01*
X57250000Y-81784314D02*
X57250000Y-88250000D01*
X66563654Y-74450000D02*
X63750000Y-77263654D01*
X61770660Y-77263654D02*
X57250000Y-81784314D01*
X63750000Y-77263654D02*
X61770660Y-77263654D01*
%TO.N,VBUS*%
X71500000Y-62900000D02*
X74040000Y-62900000D01*
%TO.N,/PE4*%
X60023654Y-94490000D02*
X60976346Y-94490000D01*
X60976346Y-94490000D02*
X61750000Y-93716346D01*
X74040000Y-78140000D02*
X72890000Y-76990000D01*
X61750000Y-92090000D02*
X63040000Y-90800000D01*
X72890000Y-76990000D02*
X71023654Y-76990000D01*
X61936346Y-77663654D02*
X58150000Y-81450000D01*
X70350000Y-77663654D02*
X61936346Y-77663654D01*
X61750000Y-93716346D02*
X61750000Y-92090000D01*
X58150000Y-81450000D02*
X58150000Y-92616346D01*
X58150000Y-92616346D02*
X60023654Y-94490000D01*
X71023654Y-76990000D02*
X70350000Y-77663654D01*
%TO.N,/PH6*%
X66250000Y-90750000D02*
X68750000Y-88250000D01*
X66250000Y-91247301D02*
X66250000Y-90750000D01*
%TO.N,/PG5*%
X68390000Y-102110000D02*
X61650000Y-102110000D01*
X61650000Y-102110000D02*
X60500000Y-100960000D01*
%TO.N,/PH3*%
X67250000Y-87250000D02*
X67250000Y-86750000D01*
X67250000Y-86750000D02*
X69250000Y-84750000D01*
X67000000Y-87500000D02*
X67250000Y-87250000D01*
X74040000Y-83220000D02*
X72760000Y-84500000D01*
X72760000Y-84500000D02*
X71000000Y-84500000D01*
%TO.N,/PH5*%
X68750000Y-87401470D02*
X68750000Y-87250000D01*
X66700735Y-89450735D02*
X68750000Y-87401470D01*
%TO.N,/PD1*%
X70250000Y-102250000D02*
X72790000Y-102250000D01*
X64750000Y-96750000D02*
X70250000Y-102250000D01*
X64750000Y-84890000D02*
X64750000Y-96750000D01*
X63040000Y-83180000D02*
X64750000Y-84890000D01*
X72790000Y-102250000D02*
X74040000Y-101000000D01*
%TO.N,/PC7*%
X60263654Y-102350000D02*
X60976346Y-102350000D01*
X59350000Y-100483654D02*
X59350000Y-101436346D01*
X60976346Y-102350000D02*
X61750000Y-103123654D01*
X60500000Y-99500000D02*
X60190000Y-99810000D01*
X74040000Y-118900000D02*
X74040000Y-113700000D01*
X60500000Y-98420000D02*
X60500000Y-99500000D01*
X61750000Y-103123654D02*
X61750000Y-118868173D01*
X60023654Y-99810000D02*
X59350000Y-100483654D01*
X59350000Y-101436346D02*
X60263654Y-102350000D01*
X61781827Y-118900000D02*
X74040000Y-118900000D01*
X60190000Y-99810000D02*
X60023654Y-99810000D01*
X61750000Y-118868173D02*
X61781827Y-118900000D01*
%TO.N,/PH4*%
X68150000Y-96000000D02*
X66250000Y-96000000D01*
X74446346Y-82000000D02*
X72720000Y-82000000D01*
X74516346Y-84370000D02*
X75190000Y-83696346D01*
X72750000Y-85075685D02*
X73455685Y-84370000D01*
X72750000Y-87250000D02*
X72750000Y-85075685D01*
X75190000Y-83696346D02*
X75190000Y-82743654D01*
X72720000Y-82000000D02*
X71500000Y-83220000D01*
X73455685Y-84370000D02*
X74516346Y-84370000D01*
X72750000Y-87250000D02*
X72750000Y-89000000D01*
X75190000Y-82743654D02*
X74446346Y-82000000D01*
X68650000Y-96500000D02*
X68150000Y-96000000D01*
X72750000Y-89000000D02*
X72750000Y-88676346D01*
%TO.N,/PL4*%
X96750000Y-117650000D02*
X96750000Y-115250000D01*
%TO.N,/PG2*%
X83500000Y-103250000D02*
X83500000Y-103250000D01*
X83450735Y-103299265D02*
X83500000Y-103250000D01*
%TO.N,/PL6*%
X66460000Y-112000000D02*
X67000000Y-112000000D01*
X63040000Y-108580000D02*
X66460000Y-112000000D01*
%TO.N,/PD7*%
X66000000Y-103651470D02*
X66000000Y-109400000D01*
X66200735Y-103450735D02*
X66000000Y-103651470D01*
X65960000Y-100960000D02*
X66250000Y-101250000D01*
X66000000Y-109400000D02*
X69150000Y-112550000D01*
X63040000Y-100960000D02*
X65960000Y-100960000D01*
%TO.N,/PL7*%
X85500000Y-116750000D02*
X84750000Y-116750000D01*
X59133167Y-109946833D02*
X60500000Y-108580000D01*
X59133167Y-117100000D02*
X59133167Y-109946833D01*
X84750000Y-116750000D02*
X84250000Y-117250000D01*
X106580000Y-108620000D02*
X107000000Y-109040000D01*
%TO.N,/PL3*%
X95500000Y-115651471D02*
X96501471Y-114650000D01*
X95500000Y-117500000D02*
X95500000Y-115651471D01*
X60500000Y-117250000D02*
X60500000Y-117000000D01*
X60500000Y-113660000D02*
X60500000Y-117250000D01*
X96501471Y-114650000D02*
X98650000Y-114650000D01*
X98650000Y-114650000D02*
X100000000Y-116000000D01*
%TO.N,/MISO*%
X76400000Y-67650000D02*
X75500000Y-66750000D01*
X64960000Y-66750000D02*
X60710000Y-71000000D01*
X88120000Y-101718529D02*
X76400000Y-89998529D01*
X88120000Y-111160000D02*
X88120000Y-101718529D01*
X76400000Y-89998529D02*
X76400000Y-67650000D01*
X75500000Y-66750000D02*
X64960000Y-66750000D01*
%TO.N,/SCK*%
X76000000Y-70750000D02*
X76000000Y-96848529D01*
X76000000Y-96848529D02*
X85580000Y-106428529D01*
X64043173Y-72706827D02*
X67380000Y-69370000D01*
X60710000Y-73540000D02*
X61170000Y-74000000D01*
X74620000Y-69370000D02*
X76000000Y-70750000D01*
X63726346Y-72390000D02*
X64043173Y-72706827D01*
X62773654Y-72390000D02*
X63726346Y-72390000D01*
X67380000Y-69370000D02*
X74620000Y-69370000D01*
X62100000Y-74000000D02*
X62100000Y-73063654D01*
X62100000Y-73063654D02*
X62773654Y-72390000D01*
X61170000Y-74000000D02*
X62100000Y-74000000D01*
X85580000Y-106428529D02*
X85580000Y-111160000D01*
%TO.N,/MOSI*%
X66830000Y-71670000D02*
X64960000Y-73540000D01*
X84430000Y-105844215D02*
X75600000Y-97014215D01*
X84430000Y-112550000D02*
X84430000Y-105844215D01*
X74516346Y-71670000D02*
X66830000Y-71670000D01*
X75600000Y-97014215D02*
X75600000Y-72753654D01*
X85580000Y-113700000D02*
X84430000Y-112550000D01*
X75600000Y-72753654D02*
X74516346Y-71670000D01*
X64960000Y-73540000D02*
X63650000Y-73540000D01*
%TO.N,/RESET_{MCU}*%
X61420000Y-76080000D02*
X60710000Y-76080000D01*
%TD*%
M02*
