%TF.GenerationSoftware,KiCad,Pcbnew,8.0.4*%
%TF.CreationDate,2024-09-01T02:32:28-07:00*%
%TF.ProjectId,chip_tester,63686970-5f74-4657-9374-65722e6b6963,rev?*%
%TF.SameCoordinates,Original*%
%TF.FileFunction,Soldermask,Bot*%
%TF.FilePolarity,Negative*%
%FSLAX46Y46*%
G04 Gerber Fmt 4.6, Leading zero omitted, Abs format (unit mm)*
G04 Created by KiCad (PCBNEW 8.0.4) date 2024-09-01 02:32:28*
%MOMM*%
%LPD*%
G01*
G04 APERTURE LIST*
%ADD10R,1.700000X1.700000*%
%ADD11O,1.700000X1.700000*%
%ADD12R,2.000000X1.440000*%
%ADD13O,2.000000X1.440000*%
G04 APERTURE END LIST*
D10*
%TO.C,J4*%
X60710000Y-71000000D03*
D11*
X63250000Y-71000000D03*
X60710000Y-73540000D03*
X63250000Y-73540000D03*
X60710000Y-76080000D03*
X63250000Y-76080000D03*
%TD*%
D10*
%TO.C,J5*%
X88120000Y-111160000D03*
D11*
X88120000Y-113700000D03*
X85580000Y-111160000D03*
X85580000Y-113700000D03*
X83040000Y-111160000D03*
X83040000Y-113700000D03*
%TD*%
%TO.C,J6*%
X63040000Y-113660000D03*
X60500000Y-113660000D03*
X63040000Y-111120000D03*
X60500000Y-111120000D03*
X63040000Y-108580000D03*
X60500000Y-108580000D03*
X63040000Y-106040000D03*
X60500000Y-106040000D03*
X63040000Y-103500000D03*
X60500000Y-103500000D03*
X63040000Y-100960000D03*
X60500000Y-100960000D03*
X63040000Y-98420000D03*
X60500000Y-98420000D03*
X63040000Y-95880000D03*
X60500000Y-95880000D03*
X63040000Y-93340000D03*
X60500000Y-93340000D03*
X63040000Y-90800000D03*
X60500000Y-90800000D03*
X63040000Y-88260000D03*
X60500000Y-88260000D03*
X63040000Y-85720000D03*
X60500000Y-85720000D03*
X63040000Y-83180000D03*
D10*
X60500000Y-83180000D03*
%TD*%
%TO.C,J2*%
X71500000Y-62900000D03*
D11*
X74040000Y-62900000D03*
X71500000Y-65440000D03*
X74040000Y-65440000D03*
X71500000Y-67980000D03*
X74040000Y-67980000D03*
X71500000Y-70520000D03*
X74040000Y-70520000D03*
X71500000Y-73060000D03*
X74040000Y-73060000D03*
X71500000Y-75600000D03*
X74040000Y-75600000D03*
X71500000Y-78140000D03*
X74040000Y-78140000D03*
X71500000Y-80680000D03*
X74040000Y-80680000D03*
X71500000Y-83220000D03*
X74040000Y-83220000D03*
X71500000Y-85760000D03*
X74040000Y-85760000D03*
X71500000Y-88300000D03*
X74040000Y-88300000D03*
X71500000Y-90840000D03*
X74040000Y-90840000D03*
X71500000Y-93380000D03*
X74040000Y-93380000D03*
X71500000Y-95920000D03*
X74040000Y-95920000D03*
X71500000Y-98460000D03*
X74040000Y-98460000D03*
X71500000Y-101000000D03*
X74040000Y-101000000D03*
X71500000Y-103540000D03*
X74040000Y-103540000D03*
X71500000Y-106080000D03*
X74040000Y-106080000D03*
X71500000Y-108620000D03*
X74040000Y-108620000D03*
X71500000Y-111160000D03*
X74040000Y-111160000D03*
X71500000Y-113700000D03*
X74040000Y-113700000D03*
%TD*%
D12*
%TO.C,J1*%
X119500000Y-62300000D03*
D13*
X119500000Y-64840000D03*
X119500000Y-67380000D03*
X119500000Y-69920000D03*
X119500000Y-72460000D03*
X119500000Y-75000000D03*
X119500000Y-77540000D03*
X119500000Y-80080000D03*
X119500000Y-82620000D03*
X119500000Y-85160000D03*
X119500000Y-87700000D03*
X119500000Y-90240000D03*
X119500000Y-92780000D03*
X119500000Y-95320000D03*
X119500000Y-97860000D03*
X119500000Y-100400000D03*
X119500000Y-102940000D03*
X119500000Y-105480000D03*
X119500000Y-108020000D03*
X119500000Y-110560000D03*
X134740000Y-110560000D03*
X134740000Y-108020000D03*
X134740000Y-105480000D03*
X134740000Y-102940000D03*
X134740000Y-100400000D03*
X134740000Y-97860000D03*
X134740000Y-95320000D03*
X134740000Y-92780000D03*
X134740000Y-90240000D03*
X134740000Y-87700000D03*
X134740000Y-85160000D03*
X134740000Y-82620000D03*
X134740000Y-80080000D03*
X134740000Y-77540000D03*
X134740000Y-75000000D03*
X134740000Y-72460000D03*
X134740000Y-69920000D03*
X134740000Y-67380000D03*
X134740000Y-64840000D03*
X134740000Y-62300000D03*
%TD*%
D10*
%TO.C,J3*%
X104040000Y-75600000D03*
D11*
X106580000Y-75600000D03*
X104040000Y-78140000D03*
X106580000Y-78140000D03*
X104040000Y-80680000D03*
X106580000Y-80680000D03*
X104040000Y-83220000D03*
X106580000Y-83220000D03*
X104040000Y-85760000D03*
X106580000Y-85760000D03*
X104040000Y-88300000D03*
X106580000Y-88300000D03*
X104040000Y-90840000D03*
X106580000Y-90840000D03*
X104040000Y-93380000D03*
X106580000Y-93380000D03*
X104040000Y-95920000D03*
X106580000Y-95920000D03*
X104040000Y-98460000D03*
X106580000Y-98460000D03*
X104040000Y-101000000D03*
X106580000Y-101000000D03*
X104040000Y-103540000D03*
X106580000Y-103540000D03*
X104040000Y-106080000D03*
X106580000Y-106080000D03*
X104040000Y-108620000D03*
X106580000Y-108620000D03*
X104040000Y-111160000D03*
X106580000Y-111160000D03*
X104040000Y-113700000D03*
X106580000Y-113700000D03*
%TD*%
M02*
